<mxfile host="Electron" modified="2023-07-26T06:59:26.770Z" agent="Mozilla/5.0 (Windows NT 10.0; Win64; x64) AppleWebKit/537.36 (KHTML, like Gecko) draw.io/21.2.1 Chrome/112.0.5615.87 Electron/24.1.2 Safari/537.36" etag="eq1PA6Ccvw_L-ssXaing" version="21.2.1" type="device">
  <diagram name="第 1 页" id="C7Rz_XnBknAUtESU6E9H">
    <mxGraphModel dx="2018" dy="828" grid="1" gridSize="10" guides="1" tooltips="1" connect="1" arrows="1" fold="1" page="1" pageScale="1" pageWidth="827" pageHeight="1169" math="0" shadow="0">
      <root>
        <mxCell id="0" />
        <mxCell id="1" parent="0" />
        <mxCell id="4vRnkR8qmq0XhcPa6bdm-17" value="&lt;font style=&quot;font-size: 24px;&quot;&gt;OSC&lt;/font&gt;" style="rounded=0;whiteSpace=wrap;html=1;fillColor=#66B2FF;" parent="1" vertex="1">
          <mxGeometry x="500" y="240" width="120" height="170" as="geometry" />
        </mxCell>
        <mxCell id="4vRnkR8qmq0XhcPa6bdm-18" value="&lt;font style=&quot;font-size: 24px;&quot;&gt;network&lt;br&gt;TX（顶层）&lt;br&gt;&lt;/font&gt;" style="rounded=0;whiteSpace=wrap;html=1;" parent="1" vertex="1">
          <mxGeometry x="770" y="240" width="120" height="170" as="geometry" />
        </mxCell>
        <mxCell id="4vRnkR8qmq0XhcPa6bdm-19" value="&lt;font style=&quot;font-size: 24px;&quot;&gt;net_input_queue&lt;/font&gt;" style="rounded=0;whiteSpace=wrap;html=1;" parent="1" vertex="1">
          <mxGeometry x="-180" y="240" width="200" height="170" as="geometry" />
        </mxCell>
        <mxCell id="4vRnkR8qmq0XhcPa6bdm-22" style="edgeStyle=orthogonalEdgeStyle;rounded=0;orthogonalLoop=1;jettySize=auto;html=1;entryX=0.5;entryY=0;entryDx=0;entryDy=0;" parent="1" source="4vRnkR8qmq0XhcPa6bdm-20" target="4vRnkR8qmq0XhcPa6bdm-13" edge="1">
          <mxGeometry relative="1" as="geometry" />
        </mxCell>
        <mxCell id="4vRnkR8qmq0XhcPa6bdm-20" value="配置模块" style="rounded=1;whiteSpace=wrap;html=1;" parent="1" vertex="1">
          <mxGeometry x="200" y="30" width="120" height="60" as="geometry" />
        </mxCell>
        <mxCell id="4vRnkR8qmq0XhcPa6bdm-21" value="&lt;font style=&quot;font-size: 24px;&quot;&gt;virtual_queue_manage&lt;/font&gt;" style="rounded=1;whiteSpace=wrap;html=1;" parent="1" vertex="1">
          <mxGeometry x="430" y="30" width="250" height="60" as="geometry" />
        </mxCell>
        <mxCell id="4vRnkR8qmq0XhcPa6bdm-23" value="&lt;font style=&quot;font-size: 24px;&quot;&gt;idleslope&lt;/font&gt;" style="text;html=1;align=center;verticalAlign=middle;resizable=0;points=[];autosize=1;strokeColor=none;fillColor=none;" parent="1" vertex="1">
          <mxGeometry x="260" y="153" width="120" height="40" as="geometry" />
        </mxCell>
        <mxCell id="4vRnkR8qmq0XhcPa6bdm-24" value="" style="endArrow=classic;html=1;rounded=0;entryX=1;entryY=0.25;entryDx=0;entryDy=0;exitX=0;exitY=0.25;exitDx=0;exitDy=0;" parent="1" source="4vRnkR8qmq0XhcPa6bdm-17" target="4vRnkR8qmq0XhcPa6bdm-13" edge="1">
          <mxGeometry width="50" height="50" relative="1" as="geometry">
            <mxPoint x="420" y="390" as="sourcePoint" />
            <mxPoint x="370" y="440" as="targetPoint" />
          </mxGeometry>
        </mxCell>
        <mxCell id="4vRnkR8qmq0XhcPa6bdm-25" value="" style="endArrow=classic;html=1;rounded=0;entryX=0;entryY=0.25;entryDx=0;entryDy=0;exitX=1;exitY=0.25;exitDx=0;exitDy=0;" parent="1" edge="1">
          <mxGeometry width="50" height="50" relative="1" as="geometry">
            <mxPoint x="320" y="360" as="sourcePoint" />
            <mxPoint x="500" y="360" as="targetPoint" />
          </mxGeometry>
        </mxCell>
        <mxCell id="4vRnkR8qmq0XhcPa6bdm-27" value="" style="endArrow=classic;html=1;rounded=0;entryX=0.365;entryY=1.021;entryDx=0;entryDy=0;entryPerimeter=0;" parent="1" target="4vRnkR8qmq0XhcPa6bdm-21" edge="1">
          <mxGeometry width="50" height="50" relative="1" as="geometry">
            <mxPoint x="520" y="240" as="sourcePoint" />
            <mxPoint x="570" y="190" as="targetPoint" />
          </mxGeometry>
        </mxCell>
        <mxCell id="4vRnkR8qmq0XhcPa6bdm-28" value="" style="endArrow=classic;html=1;rounded=0;entryX=0.158;entryY=1.017;entryDx=0;entryDy=0;entryPerimeter=0;" parent="1" edge="1">
          <mxGeometry width="50" height="50" relative="1" as="geometry">
            <mxPoint x="601" y="239" as="sourcePoint" />
            <mxPoint x="600" y="90" as="targetPoint" />
          </mxGeometry>
        </mxCell>
        <mxCell id="4vRnkR8qmq0XhcPa6bdm-29" value="" style="endArrow=classic;html=1;rounded=0;entryX=-0.017;entryY=0.465;entryDx=0;entryDy=0;entryPerimeter=0;exitX=-0.017;exitY=0.465;exitDx=0;exitDy=0;exitPerimeter=0;" parent="1" source="4vRnkR8qmq0XhcPa6bdm-18" edge="1">
          <mxGeometry width="50" height="50" relative="1" as="geometry">
            <mxPoint x="670" y="270" as="sourcePoint" />
            <mxPoint x="620" y="320" as="targetPoint" />
          </mxGeometry>
        </mxCell>
        <mxCell id="4vRnkR8qmq0XhcPa6bdm-32" value="&lt;font style=&quot;font-size: 18px;&quot;&gt;i_pkt_bufid_ack&lt;/font&gt;" style="text;html=1;align=center;verticalAlign=middle;resizable=0;points=[];autosize=1;strokeColor=none;fillColor=none;" parent="1" vertex="1">
          <mxGeometry x="620" y="273" width="150" height="40" as="geometry" />
        </mxCell>
        <mxCell id="4vRnkR8qmq0XhcPa6bdm-34" value="&lt;font style=&quot;font-size: 24px;&quot;&gt;oc_credit&lt;/font&gt;" style="text;html=1;align=center;verticalAlign=middle;resizable=0;points=[];autosize=1;strokeColor=none;fillColor=none;" parent="1" vertex="1">
          <mxGeometry x="340" y="323" width="120" height="40" as="geometry" />
        </mxCell>
        <mxCell id="4vRnkR8qmq0XhcPa6bdm-35" value="&lt;font style=&quot;font-size: 24px;&quot;&gt;iv_transmit&lt;/font&gt;" style="text;html=1;align=center;verticalAlign=middle;resizable=0;points=[];autosize=1;strokeColor=none;fillColor=none;" parent="1" vertex="1">
          <mxGeometry x="340" y="243" width="140" height="40" as="geometry" />
        </mxCell>
        <mxCell id="4vRnkR8qmq0XhcPa6bdm-13" value="&lt;font style=&quot;font-size: 24px;&quot;&gt;CBS&lt;/font&gt;" style="rounded=0;whiteSpace=wrap;html=1;fillColor=#66B2FF;" parent="1" vertex="1">
          <mxGeometry x="200" y="240" width="120" height="170" as="geometry" />
        </mxCell>
        <mxCell id="4vRnkR8qmq0XhcPa6bdm-36" value="" style="endArrow=classic;html=1;rounded=0;entryX=0;entryY=0.471;entryDx=0;entryDy=0;entryPerimeter=0;" parent="1" target="4vRnkR8qmq0XhcPa6bdm-13" edge="1">
          <mxGeometry width="50" height="50" relative="1" as="geometry">
            <mxPoint x="30" y="320" as="sourcePoint" />
            <mxPoint x="80" y="273" as="targetPoint" />
          </mxGeometry>
        </mxCell>
        <mxCell id="4vRnkR8qmq0XhcPa6bdm-37" value="&lt;font style=&quot;font-size: 24px;&quot;&gt;ov_queue_empty&lt;/font&gt;" style="text;html=1;align=center;verticalAlign=middle;resizable=0;points=[];autosize=1;strokeColor=none;fillColor=none;" parent="1" vertex="1">
          <mxGeometry x="5" y="285" width="210" height="40" as="geometry" />
        </mxCell>
        <mxCell id="4vRnkR8qmq0XhcPa6bdm-38" value="&lt;font style=&quot;font-size: 24px;&quot;&gt;queue_gata_contrl&lt;/font&gt;&lt;br&gt;" style="rounded=0;whiteSpace=wrap;html=1;" parent="1" vertex="1">
          <mxGeometry x="155" y="480" width="210" height="80" as="geometry" />
        </mxCell>
        <mxCell id="4vRnkR8qmq0XhcPa6bdm-41" value="" style="endArrow=classic;html=1;rounded=0;entryX=0.5;entryY=1;entryDx=0;entryDy=0;" parent="1" target="4vRnkR8qmq0XhcPa6bdm-13" edge="1">
          <mxGeometry width="50" height="50" relative="1" as="geometry">
            <mxPoint x="260" y="480" as="sourcePoint" />
            <mxPoint x="310" y="430" as="targetPoint" />
          </mxGeometry>
        </mxCell>
        <mxCell id="4vRnkR8qmq0XhcPa6bdm-42" value="" style="endArrow=classic;html=1;rounded=0;" parent="1" edge="1">
          <mxGeometry width="50" height="50" relative="1" as="geometry">
            <mxPoint x="260" y="450" as="sourcePoint" />
            <mxPoint x="560" y="450" as="targetPoint" />
          </mxGeometry>
        </mxCell>
        <mxCell id="4vRnkR8qmq0XhcPa6bdm-43" value="" style="endArrow=classic;html=1;rounded=0;entryX=0.5;entryY=1;entryDx=0;entryDy=0;" parent="1" target="4vRnkR8qmq0XhcPa6bdm-17" edge="1">
          <mxGeometry width="50" height="50" relative="1" as="geometry">
            <mxPoint x="560" y="450" as="sourcePoint" />
            <mxPoint x="610" y="400" as="targetPoint" />
          </mxGeometry>
        </mxCell>
        <mxCell id="4vRnkR8qmq0XhcPa6bdm-44" value="&lt;font style=&quot;font-size: 24px;&quot;&gt;gata_ctrl_vector[]7:0]&lt;/font&gt;" style="text;html=1;align=center;verticalAlign=middle;resizable=0;points=[];autosize=1;strokeColor=none;fillColor=none;" parent="1" vertex="1">
          <mxGeometry x="315" y="443" width="250" height="40" as="geometry" />
        </mxCell>
        <mxCell id="4vRnkR8qmq0XhcPa6bdm-45" value="" style="endArrow=classic;html=1;rounded=0;entryX=0.011;entryY=0.134;entryDx=0;entryDy=0;entryPerimeter=0;" parent="1" target="4vRnkR8qmq0XhcPa6bdm-13" edge="1">
          <mxGeometry width="50" height="50" relative="1" as="geometry">
            <mxPoint x="85" y="263" as="sourcePoint" />
            <mxPoint x="135" y="223" as="targetPoint" />
            <Array as="points" />
          </mxGeometry>
        </mxCell>
        <mxCell id="4vRnkR8qmq0XhcPa6bdm-46" value="&lt;font style=&quot;font-size: 24px;&quot;&gt;CLK，RST&lt;/font&gt;" style="text;html=1;align=center;verticalAlign=middle;resizable=0;points=[];autosize=1;strokeColor=none;fillColor=none;" parent="1" vertex="1">
          <mxGeometry x="50" y="223" width="140" height="40" as="geometry" />
        </mxCell>
        <mxCell id="BK12QYTPV-eWoDnU58BK-1" value="" style="shape=image;verticalLabelPosition=bottom;labelBackgroundColor=default;verticalAlign=top;aspect=fixed;imageAspect=0;image=data:image/png,iVBORw0KGgoAAAANSUhEUgAABf4AAAN+CAYAAABEmRpWAAAgAElEQVR4nOzdbWyV55kv+n+7o9H0SIXtokiHwI5JMQ51pYliWXk5s5UoIWNiEK1QIC1tlCnKbtqo0M5R1GnopEF5acnsKFKnUCUhB5ETZafTgQp1UHDshDCg2TsFIUsZKS4hdoMjqM8XxgP90NmjVpwPtrExa/kFG6+1Hv9+UhR4Xu7nWs9t7utZl+91r09cuHDhQgAAAAAAgEL4ZKUDAAAAAAAAZo7CPwAAAAAAFIjCPwAAAAAAFIjCPwAAAAAAFIjCPwAAAAAAFIjCPwAAAAAAFIjCPwAAAAAAFIjCPwAAAAAAFIjCPwAAAAAAFIjCPwAAAAAAFIjCPwAAAAAAFIjCPwAAAAAAFIjCPwAAAAAAFIjCPwAAAAAAFIjCPwAAAAAAFIjCPwAAAAAAFIjCPwAAAAAAFIjCPwAAAAAAFIjCPwAAAAAAFIjCPwAAAAAAFIjCPwAAAAAAFIjCPwAAAAAAFIjCPwAAAAAAFIjCPwAAAAAAFIjCPwAAAAAAFIjCPwAAAAAAFIjCPwAAAAAAFIjCPwAAAAAAFIjCPwAAAAAAFIjCPwAAAAAAFIjCPwAAAAAAFIjCPwAAAAAAFIjCPwAAAAAAFIjCPwAAAAAAFIjCPwAAAAAAFIjCPwAAAAAAFIjCPwAAAAAAFIjCPwAAAAAAFIjCPwAAAAAAFIjCPwAAAAAAFIjCPwAAAAAAFIjCPwAAAAAAFIjCPwAAAAAAFIjCPwAAAAAAFIjCPwAAAAAAFIjCPwAAAAAAFIjCPwAAAAAAFIjCPwAAAAAAFIjCPwAAAAAAFIjCPwAAAAAAFIjCPwAAAAAAFIjCPwAAAAAAFIjCPwAAAAAAFIjCPwAAAAAAFIjCPwAAAAAAFIjCPwAAAAAAFIjCPwAAAAAAFIjCPwAAAAAAFIjCPwAAAAAAFIjCPwAAAAAAFIjCPwAAAAAAFIjCPwAAAAAAFIjCPwAAAAAAFIjCPwAAAAAAFIjCPwAAAAAAFIjCPwAAAAAAFIjCPwAAAAAAFIjCPwAAAAAAFIjCPwAAAAAAFIjCPwAAAAAAFIjCPwAAAAAAFIjCPwAAAAAAFIjCPwAAAAAAFIjCPwAAAAAAFIjCPwAAAAAAFIjCPwAAAAAAFIjCPwAAAAAAFIjCPwAAAAAAFIjCPwAAAAAAFIjCPwAAAAAAFIjCPwAAAAAAFIjCPwAAAAAAFIjCPwAAAAAAFIjCPwAAAAAAFIjCPwAAAAAAFIjCPwAAAAAAFIjCPwAAAAAAFIjCPwAAAAAAFIjCPwAAAAAAFIjCPwAAAAAAFIjCPwAAAAAAFIjCPwAAAAAAFIjCPwAAAAAAFIjCPwAAAAAAFIjCPwAAAAAAFIjCPwAAAAAAFIjCPwAAAAAAFIjCPwAAAAAAFIjCPwAAAAAAFIjCPwAAAAAAFIjCPwAAAAAAFIjCPwAAAAAAFIjCPwAAAAAAFIjCPwAAAAAAFIjCPwAAAAAAFIjCPwAAAAAAFIjCPwAAAAAAFIjCPwAAAAAAFIjCPwAAAAAAFIjCPwAAAAAAFIjCPwAAAAAAFIjCPwAAAAAAFIjCPwAAAAAAFIjCPwAAAAAAFIjCPwAAAAAAFIjCPwAAAAAAFIjCPwAAAAAAFIjCPwAAAAAAFIjCPwAAAAAAFIjCPwAAAAAAFIjCPwAAAAAAFIjCPwAAAAAAFIjCPwAAAAAAFIjCPwAAAAAAFIjCPwAAAAAAFIjCPwAAAAAAFIjCPwAAAAAAFIjCPwAAAAAAFIjCPwAAAAAAFIjCPwAAAAAAFIjCPwAAAAAAFIjCPwAAAAAAFIjCPwAAAAAAFIjCPwAAAAAAFIjCPwAAAAAAFIjCPwAAAAAAFIjCPwAAAAAAFIjCPwAAAAAAFIjCPwAAAAAAFIjCPwAAAAAAFIjCPwAAAAAAFIjCPwAAAAAAFIjCPwAAAAAAFIjCPwAAAAAAFIjCPwAAAAAAFIjCPwAAAAAAFIjCPwAAAAAAFIjCPwAAAAAAFIjCPwAAAAAAFIjCPwAAAAAAFIjCPwAAAAAAFIjCPwAAAAAAFIjCPwAAAAAAFIjCPwAAAAAAFIjCPwAAAAAAFIjCPwAAAAAAFIjCPwAAAAAAFIjCPwAAAAAAFIjCPwAAAAAAFIjCPwAAAAAAFIjCPwAAAAAAFIjCPwAAAAAAFIjCPwAAAAAAFIjCPwAAAAAAFIjCPwAAAAAAFIjCPwAAAAAAFIjCPwAAAAAAFIjCPwAAAAAAFIjCPwAAAAAAFIjCPwAAAAAAFIjCPwAAAAAAFIjCPwAAAAAAFIjCPwAAAAAAFIjCPwAAAAAAFIjCPwAAAAAAFIjCPwAAAAAAFIjCPwAAAAAAFIjCPwAAAAAAFIjCPwAAAAAAFIjCPwAAAAAAFIjCPwAAAAAAFIjCPwAAAAAAFIjCPwAAAAAAFIjCPwAAAAC1q3dXOlfsyvlKx8Hk6K+Z555SgsI/AAAAALPgVLpX3Jfu3krHMVUzEfdsvvaZupb+qlR/ne/cks665dlTtzx7VmzJ6YmaWPpQWg8+lHkzcG2KQ+EfAAAAgKnr3ZXOFVtydPN9lxUoRxcuOzcfymCB8d683/V+3m9Zns4dp3J68/Ic7Rw6fsd92bP50Kh2B2cvX9rO0Izm4euuWJ49dWOKokP7JiqUlm93ZNb0+R33pXPHP18W92Wvu25U4XSybUz2ntaVLwiXvh+bcnTstTq3ZM+KXTmvv2qjv3p35VdfShYfP5H1Ayeycu3JvDt8r8eNY0z7l/XzoXSvWH4xzqOdU3id1CSFfwAAAACuTNe+ZM3zFwuU3cOFy79tyG0DJ7J+4M00ZUeOdi5J08E38/nmz+fzx0+kddOSzLvx8zl3crDYeP6DZH5352CBsrcn55o+m3lDBdCmoQLobTceSMdwAbRrX/K9N7N+YFsWD8fSuyudD/ekaeeobaWM1+5lFl8W92Wv++eNef/h8ZZZKdPGZO7p6LYndT925Nax12rdlvXDs8H1V9X31/n2A8nT30jT0sFD523alOtf65x41n+5mIb7ubMzp5teyPqBE1k/8Hw+1/pfp/Y6qTkK/wAAAABcmebv5nOtgwXDeY2NOffBRznffiDnup5LR93y7Km7N+++9v7FgvFo89pWJfsO5nwO5Uw2pWntyZzvTc6fPJnr19x1sQC6eOnI8fOHC6Cjrpsk6XouHS3PZf73tl08vpxx272S193amuu7DuT0TC2XUqbtKd2PybStv2bG1eyviwbv9RXFNNTPWdqQvPZIOjfvyuneXMGyQNQahX8AAAAAZtT8p98cmlk8+F/J2cRLV2RxenK+szO58YYsbmzM6fZDOb2vMYtap3jB5u9m5c/X5uMvTWI99KuiMfMmKGBXZ9uD9Fe1tz0DbS59KK0Db6bpxuTMw/da2mcOUPgHAAAAYMbMa1uV/OClUeuoX1pg/N3FmctLMq/pZLr/Nvl025KktTXzP+jM75pas3hUO8Mzs8+3H8i5B1rLLwvTui0rn554PfRx2+3qGZxZ3Xsov/7B+2XiTtL1XH7dObTsTWdnPm5uGJlBPdk2yinT9lTvx6SuFf1Vbf01tj/O79iRj8e7j5PVeyine5dk8aaH8rm1awc/BTDm2hSLwj8AAAAAM2fpQ7nt58nplqEvEn344NCs7iVZ/L3GnPvSyBeJLl7TmHNdGZrNfEM+3b0v52684ZJ2uofa+dUHq7Jy+13jXnrepufz+e5HLn4J7XjxXdbu0ody29Mn827L8uxp2ZE88PmhEy6PO81rk/2PZk/d8nT8bfL5nUNr6E+ljXLGa3tS92PMtYa/3HeC+6G/qqS/xvRHx77G3D7BfZyU3t9cjKVjX/L5v7praq+TmvOJCxcuXKh0EAAAAABQE3p3pfPh5LbhL8ytlbbnKv3FHHVNpQMAAAAAgJl1KEfrHsnHY7bOf/rN0uvXz6pxYmurSEBVQH9NK46K3yOqkRn/AAAAAABQINb4BwAAAACAArHUD1S596+9udIhAAAAAAA1ROEfqtT7196c7j/8vtJhAAAAAAA1RuEfqtBw0b/pmk8lSQ7+73MVjggAAAAAqBUK/1CFhov+wzP+F/6nP5nS+c3db1yNsAAAAACAGqDwD1VmeE3/g//7XBb+pz+ZchG/q2n11QgLAAAAAKgRn6x0AMCIsUv8AAAAAABMlcI/VCFr+gMAAAAAV0rhH6rU6g/eqnQIAAAAAEANUvgHAAAAAIAC8eW+UAMm+4W9U/0iYAAAAACgeMz4BwAAAACAAjHjH2qAmfwAAAAAwGSZ8Q8AAAAAAAWi8A8AAAAAAAViqR8AAACYA9auXFvpEACAWaLwDwAAAHPEvo59lQ4BAJgFCv9Q5bqaVlc6BAAAAACghij8QxVr7n6j0iEAAAAAADXGl/sCAAAAAECBKPxTvTq3pHPHqat3/JTOOZXTm+/LnrotOV3ynEM5uvnQ1K4NAAAAAHAVWOqH6tW6La2t023kUI6u+E0+d/ChzJtWOx/lTPeqrBwYbGfxtOMCAAAAALg6zPineo03G79zSzpXbEln3fLsqbsvRztH7zyV7hVbcjqn0r3ikXzc9Vw6VuzK+XLX2ffSpe2Mvm7nlnTu+OeRdi6Z8X8q3Zvvy5665encvCPnSjY+HEuS3l3pHI6jc8vItVbcl8665WNeAwAAAADAlVH4p2adS0NuGziR9cc3JX87Utg/vfnR/O5727I4S9J08IVc3/zdrBxnxn+5dkYsHmlnYFsWD209v+PRnL7x+awfOJHb1jSWKfwvyeK1J3OmM0lvMr+pJ6d7k9P7k08vHb7+qtw2cCK3+hQBAAAAADADFP6pWfPXrhgs5i+9IZ9OT84nOfeDe/Nu96p8bgpF9FLtTPrcxiVJknmtrbm+zDHz2lbl3MlTOb2/J4vWJL/rPZXzacjipWOuDwAAAAAwAxT+qVnn9h0cLNL3HszpNGRekvlPv5nbmw7kV1P4kt9S7eSDj5Ikp/fvG//ck4PXOd/ZmY/LHbT0s5n/wUs5c2NrFre2Jvtfyu9uVOwHAAAAAK4OhX9q1vwcyK/qlmdPy4HM/97IUj6Ltz+fxfseHVoz/4Z8OuOv8X9ZO63fyOLuR7Knbnm6uz9f9vrzNj2fxfvuzZ665fnV/pSd8Z/clUXZlzTeNRhP975k6JMCAAAAAAAz7RMXLly4UOkgYMo6t6Tz5DfSuqlYBfT3r7053X/4ffr/+B9Z/cFblQ4HAAAokLUr12Zfx/ifagYAiuGaSgcA4zuUo3WPXLKMzvyn30xr4wy1M6O/OJiNawAAAAAAjM+Mf6giZvwDAABXixn/ADB3WOMfAAAAAAAKxFI/MMvev/bmcfc3XfOpNF3zqfz7n60ruf9P/2Xv1QgLAAAAACgIhX+YZd1/+P20zn965doZigQAmIglMQAoZ633ZgBUMYV/mGXrB07kJ/M+e8Xn/7dT1v8HgNmgoAPARPyCGIBqpfAPFfDt878pud2X+wIAAAAA0+XLfQEAAAAAoEAU/gEAAAAAoEAU/gEAAAAAoEAU/gEAAAAAoEAU/gEAAAAAoEAU/gEAAAAAoEAU/gEAAAAAoEAU/gEAAAAAoEAU/gGYOR+9kvu/8Er6Kh0HIybTJ/oNuBqmOrYYi6qHvps+9wSqi3+Tc48+rxz3vmoo/ANUnb688oX788pHcz2GalIN9+MqxnDD1/IP//i11FdTTMAsqpJ/y1c8Fk2kSl7fVVElr03fXU5uhSvk38Dco88LRw6sGgr/QOH0vfx47r+uIQ3X3Z/H//rxkd80j/mtc9/L9+f+lwf/1vfO8DkNuf+vDw8eMNXjy0eUV/76/jQMHd9wXUMavvBK+j56JY9/YXjb/XnlnaFjv7AizxzvyjN/3nCF17v0+Iah13BpG6PvyeN5fDi+Lzyew6ViGD7uCw1puO7xHC7X3mjvPD5ybX1SHX1Szuj7WvL6SXI4r4y6N4+/879K3hegCpT9d1xq7Lp8fDn81w15/J2h41++Pw0lxuBxx69R49LYmMYdLSczFo3dft2oN4clc8TUxqqK5avhnKnvaq/vpnNP5Fbmglod11Kt48rjF9+v3P/Xr+TwqBhfeWfkuMvf04zTF+WOL/eeqVzctZ7Los+n3Ofjxi0HVgOFf6BYPnol392afOt/9qTnt8/lL/L36ZrMOT9uyHO/7UnPbw/mW/npxQeNGTn+nZfzzIlVOTh0/OMtzXn8776W+hvuytf/ric9v+3Jwdca88yPX0lf6vO1fxw65n/25B++Xn9l8T2QrPqfQ23/3V2pH9r2raFtzy07kBXDyfr43yf3Pjd47JqT+enLuTyG4eP+6mB6fvtM7hyvvWF3P5Oef/za4LX1SXX0yWRddv2+5J23cmD5rvT8drAfv373/1U6JqA6lPp3XHLsunyMW7KsOSd7B99snfowaT7x1tCbxJ50Lb9h4vFreFwajuWjV3L/d3ryrb8bte1KX8PY7a815pnvjPeLzkWTH6sqma+Gc2a5163vqrfvJktuZS6rxXGtWseV4yeHXtPBrDrxTB7aP3T+xfcuSUq+pxk+v0RflDu+3HumouYyfT71Pp8sObBirql0AAAzqe/tA8mTz+XOG5KkPnc+8niavzPxOV3Hu7Liumcubmte1pfcMMXj7y6TmO7+eh7/8YqLxzc/8HieG4qvfuga9Tc0pHmq8ZW53vA9+NrFtuvT9/Lo+5LU37MqzVvfyuFHGpKWx/P1obbqlzam681TSZZc3vCo4y69z2PaKxOPPqmePplQqevf05C89lDuz+P51iN3XbwOUKVK/DvuS7mx69JT6+9ZlXznUPq+fkPeyrfyrTU/zUcfJUt6T+bL9z6Tvrd/OqnxK0ly/Jms+PPky6/1TH3cKDkWjdl+91/kyw/8NIc++lq+NsXmx6qafKXvpqxq+m48citzWQ2Oa1U7rrSsuviabliefPneoUL7Je9dxnlPU/J9xp2ljy/znqnv5WLmMn2e6fX5eOTAilH4B0jS/OTBy3+jPM66ciWPL+edlwd/k/2PY+YXfPRKHv/OM/n740N/b3l8Zq6XpOvDU8lVWGl3NumTKnPD1/IPv70rh18+lLe+syI/XXMw//D1SgcFTFXpsWvMnOsb7sqqvJxT7/Qky76eO5c25qdvH072N+Yv/jFJ7xQu2PJ4Dv5VT1Y88Hj+4rdTnDU+aY254YaMmyOupquaryY8T99Nx2z1XVlyK3NcEce1io8ryZTe04x7fJn3TH2Ry0bT51dIDpwVlvoBCqX+nlXJ1pdz+KMk6cvhF5659ON5x3ty6qMkHx3Oy1u7LjlnZJ3Zvis/vpQb/iKNrz00ao28x/PKR4O/7T+55uDgR9te+/Jls8t7Prr0NU32evX3rErza29dPL7vo74x92VopsEDfzHhg09PmQeWqbSnT6qvT67IR4dz+KP63Pn1r+Xra7489IuM8WMCqstEY9fIv+X63LD8ZH7646Thnvrk7r9I44dvpWf54Jgy5fHm7mdy8MmTeehKlx8b6/gzefmd4XVy38rftzSMfCaqRI64/PWVVpX5akxs+q60au67ccmtzGHVPq7V7LiSid/TTPr4Mu+ZiprL9HlmvM/HJQfOCoV/oFhu+FqeezL56Z83pOG67+atjE5iX8tzT57MQ3/ekIY//2nyQPPI9teSA38+lNy+c2hwDcGpHl/G4EcRh5Lqb3tycE3yzAuHh5LnisEvx3mzIY15Ji+/kyT1ueuvGnPygaEvtJni9cYev+I7h9I3tO2nQ9u+++GqHPzv45WEx8RQ5hqXtXfDDWnMM/nuy30jX+6kT6qnT6bjo48utr1if/L4I3dOHBNQXcqOXZf/W77z3sZ0Hc/gbOwsScOJv8/JZUsuaWfy41dS//Xn8viJh6a2Hmw5LV9O3vzu4Hj04wyuPTscV6kcMdmxqpL5ajhnjhebvivfbhU+a0yK3MpcVu3jWq2OK8k472mmdny590yFzWX6fOp9Ph1y4Kz4xIULFy5UOghg0PvX3pzuP/w+/X/8j6z+4K1Kh1MMH72S+7+TPDf8JUMVcPivG/LTZcMfi+vL4Ze/m5/mubn7ZTX6BKgRa1euzb6OfZUOg9FmM4dUQb4qFH1XFYxrM8v9nEPm4Lgy598z6fO51+cFZI1/gBlxOI9f91D+fszW5icP5h/++6689YUVadg6tO2BXXnuv083cY5zPUl5iD65VLXHB8wNlR6LKn39Wlbpe1fp65dSjTEBk1eN/4arJ6Y7r8p7pkqrnvs7onpimlqfV0/clGfGP1QRM/4BoHqYyQkUjXFtZrmfAFQza/wDAAAAAECBKPwDAAAAAECBWOMfgElZu3JtpUOYMT6SDcDVJGcCUOvkMqh9Cv8ATNq6nzRXOoRp2/vtrkqHAMAcIGcCUOvkMqhtCv8ATNmVPjwV4cERAKZCzgSg1sllUJsU/gG4IlN9iDPTAoC5Ss4EoNbJZVB7FP4BmDHDD3fVPrPjf/y//+Pin7/6l1+tYCQAzFVyJgC1Ti6D6vbJSgcAAAAAAADMHIV/AAAAAAAoEIV/AAAAAAAoEGv8A3DFyn1h09jt1b7mIwBcbXImALVOLoPaYsY/AAAAAAAUiBn/AFyxsTM5hmd6mOEBAJeSMwGodXIZ1BYz/gEAAAAAoEAU/gEAAAAAoEAU/gEAAAAAoECs8Q/AjLG2IwBMjpwJQK2Ty6C6KfzDdHRuSefJb6R105KpHTuV86BKDX+REwAwPjkTgFonl0HtUfiH6WjdltbWSgcBJXR1ZEP/LfnZ6rqpHTvJ88zsAKAw5EwAap1cBpRgjX+Yjs4t6dxxqszOU+nefF/21C3PnrotOV3umBXl9sE0NK+c3EMfAMx1ciYAtU4uA0pQ+IerpfOlnM6mrBw4kfUD27K4xCGnNz+a332v9D6Ylq6ObHhjoMzOgby68/U0bdyepo0dOVLumK3l9gFAgciZANQ6uQwoQeEfrpLzJ09m/pq7Mq/M/nM/uDfvdq/K5ywVxGzrOpb23Jr23ZvTvXtl7ihxyJGd7en5Yul9ADBnyJkA1Dq5DOYshX+4is7tP5TzZfbNf/rN3N50IL8qu1QQXB19/WezrGVp6svsf2/va/nmmcY8ZBlHAOY4OROAWieXwdyl8A9XybxNz2dxdqRjeI3/pQ3JDx5Nd+/IMYu3P5/F+x7N0c7Kxcnc9OHx3vSV2XfTugfy4qKTeazsR0UBYO6QMwGodXIZzE0K/zAdrdvSumlJmZ1L0rT9F1k/vMb/0ofSOvCLNC0dfd6SNB38RW613A+zqH51W9pyNG3DazwuXJDsbc+r/SPH3PFwW9qOteeJrsrFCQCVJmcCUOvkMpi7rql0AFD7DuVo3SP5eNSW+U+/Oc4vBGAWNK/Mz8rurMuDD38lDz48suWO3S2Df1g4ct6DT37l6sUHANVCzgSg1sllQAkK/zBtd+XWgRO5tdJh1JC1K9detm1fx74KRFJ0vXli44HsHbXlpnUP5Ger6yoWEQBUJzkTgFonlwGXUviHWfb+tTePu7/pmk+l6ZpP5d//bF3J/X/6L3tLbofLLc1TuzfnqUqHAQBVT84EoNbJZcClFP5hlnX/4ffTOv/pErPli6DUpwCYXR9cd/f4B1x3d3747MTt/M1j/zYzAQFzWrXkhWqJg+oyEzlTvmSuKtq4WrTXw9wwYR5L5DIKba6M3Qr/MMvWD5zIT+Z99orP/2+n/iOrP3hrBiOafZb6qU1rV67Nup80VzoMYA6pdG5Yu3JtxWOgNsmZML6ijK3yBEUml1F0c2H8VviHCvj2+d+U3P7+tTen+w+/T/8fa7+4DwAAAABUhsI/MOuGf6tqhgwAAAAAzLxPVjoAAAAAAABg5ij8U3s6t6Rzx6mrd/xsqMaYAAAAAIBCUPin9rRuS+umJZWOAi7X1ZENbwxcveNnQzXGBEDtmo3cOOlzBnJk5+tp2tiRIyXP6c0TO3undm2qj74FqklNvb8yVkLRKPxTe8adLX8q3Zvvy5665encfF86Nx8a3LzvpXTWLc+euvtytDM5vfm+dA/ls/M7BrdN1N6eFVtyunfo+ivuS2fd8jLnlYphVDt1W3J6TEzdcmsxNK/Mz1bXVToKAKgeM5Ibe/PE1uPpm3Yw/5q3zzSmfffK3CFnF5e+BaqJMQmoIIV/CuX8jkdz+sbns37gRG5b05hzQ9vPpSG3DZzI+uObkr/dlXlrGnO6/VSSUzm9rzGLWss02PnSxfbW72xI948PDbW3KrcNnMitJc4rGUPnSzmdTVk5cCLrB7Zl8eiYft6Y00PtUuPGnc0xkFd3vp6mjduzYefr2TA8k+LYsWzYuD1NG1/PE13JkZ2v59X+wV19bwxum6i9pq0dOdI/dP2tr2fDxu1lzisVw6h2NnbkyJiYhmMBgCsyXm7s6siGrR2X5MERA3l1a0eOZCCvbj2QvR+/m7bxiv9j8ukl1+3qyIY3To20c8mM/9G58Wg+LNn4cCxJ+o9nw3AcXR0j1xo3/xZNiWeQCY67+NxxWb8MjGlv5N5O6rhS9C1QTab6HnG2xsmLY9tkxkqgVin8UzjzGweXAZrX2prrh7etXZF5SbL0hnw6PTnf2pr5+w7mfO/BnG5qzeIybZ0/efJie1n62czv/k3Oj25vkjGcP3ky89fcdck5IzE1XNkLpab0vdGe9kVt6d69Oc+2LMh7Q9vfy4I8u3tzun90a/LL46lvWZD2rsGHtsPHFuSe5jINdh272F73Nxfkhf29Q+015tndm/NUifNKxtB1LO25Ne27N6d798rcMTqmzQvSvt/HUQC4esbmweEixZGd7en54srckbo8+OSqrLv+9rQ/2ZL6KbYzYv5IO0P5Limfny9VlztvOZu3u5L0J8sWnc3h/uTI8aRh4fD1y+ffwinzDDLW5O7tpce133I2u8oU2Cd73NSur2+ByqnkODk8tj3UP7kYgNqk8E/hnDs5uAzQ+c7OfMjKoDIAACAASURBVDy8bd/BnE+S3oM5nYbMy11Z1NSTX/+4J4v/6q6ybc1rbLzYXnp/k3NNnx234D9uDPsPDcbAnLVs4eBHPOubG7JuaNtNtywdLGIs/EwacjZ9zQ1Zdqw3ff29aV/UcLEwMVZf/9mL7WVhXZadGUjf6PYmGUNf/9ksa7n0nJGYFlzZCwWASbosDyZ5b+9r+eaZxjw0hUJrqXYmq1R+Hqu+uTEf9g/kyPGzuacl6ekfyKksyJ0Lx1x/Dij3DFLKZO5tMtjnTRu3p23vyXzYX34t7MkeN5Xr61ugkio1To4e2yYbA1B7FP4plHmbns/iffdmT93y/Gr/ycwf2j4/B/KruuXZ03Ig87/3UOYlWbwm+bi7IYuXjtNg6zey+INHB9fmf7gnTeP8kmC8GOZtej6LsyMdo9f4Z84ZfvDq6+rJ3qFt7x3rHXyz3N+b9ixIfZbmnkVns2v/2bStKf/DWb9wwciDXP9APlxUN6k3paVi+PB47wysmwwAU3d5HkxuWvdAXlx0Mo9N4csQS7WTM/+aJDly/OS455bKjZdZWJdlZ47l7UUNuaO5ITl+LD2L5mZBeCrPICXvbYl+uWndA4OfIPjRAyNrYU/2uHHoW6DaVXqcLBsDUAjXVDoAmLLWbWkttyZ/lqTp4Ik0JUkO5ejmcY5v3Zb1ZdsZ1d72X6Rp+6hNS8e7fpkYSrSzeLiNpQ+ldfvYNiia+tVtadv6Wpr2JjfdviA3ZXCJp5tyMo9tfDfvZUHWbf5K6pPUtyTf/OWCtC8cp8HmW9K2sz1NG88m1zfmxW+2JP09U46hfnVb2na2p23jgSSNeXHzjL1kAJjQ5XmwI0lyx8NtObW1PU8s/Eqeav5MGnIgbVtTdrmfy9ppHkjbL19L08bkpusXJItKX//S3Ng4zkzHpbknB/L2wpVJBtJw5mR6WlZO/wbUolLPICWUfPZpvuWyfhl+FmnaeDbJgjz2o6/kwckeN86zkr4Fql2lx8nLYxhvrARq0ScuXLhwodJBwNQdytG6Ry4uo5Mk859+M62bllx6zObk1u0Tz9KfXHtXO4bk/WtvTvcffp/+P/5HVn/w1qTOqWVrV67Nvo59lQ6jAnrzxM7kqYfH+7hJ9cWwduXarPtJ7S9wu/fbXVn3lZFH2q/+5VcrGA1QTjXkiGqIodC6OrKh/5ZJz0isJXLmWNXw7ENSHeNaNcQwU4r0Wqi06hsn5TKKbK6M32b8U6Puyq0DJ3LrRMdMeib9ZNq72jFQDL15YuOBSz4iedO6yX/Mcmbam+kYAGA6yuSlCWYhTrqdGc1vcujUVeqeTfW6+haolFoZJ4GiUfgHpmTtyrWXbZsLvyWdvKV5avfmPDXRMQ/PZHtXOwYAmI5yeWllfjYj7cyk2bhG0VTquWOqfaVvgUqplXESKBqFf5hl719787j7m675VJqu+VT+/c9Kr673p//i63YAAAAAgPIU/mGWdf/h99M6/+kSM+4rrdSnAGbjXGbWB9fdPf4B192dHz47cTt/89i/zUxAAFVAnmKsCfNlMqmcWel8+cNn//PEB113d374T/86cs4/XbqG5Y2/fWemw4KaI09Qq2bi/V+lcxkwPoV/mGXrB07kJ/M+e8Xn/7dTlf3i35lc6meufJlKURTly50AJkuO4krVQs6cTLFm4i9E3DzDUUFtkScoslrIZcD4FP6hAr59/jclt79/7c3p/sPv0//Hyhb3AQAAAIDapfAPTMnwrBaz9QEAAACgOn2y0gEAAAAAAAAzR+Gf6ta5JZ07TlU6iqvsUI5uPlTpIAAAAACAglD4p7q1bkvrpiXTbORQjq7YlfMzEhDMgq6ObHhjoNJRJOnNEzt7Kx0EAEU01VxXNblxlGqMCYDqIEdwVVToPfron+eSP9tqB9VK4Z/qNu6M/0M5umJ59tQN/bf5UM53bknn0N8HzzuV7hWP5OOu59KxYlfO51S6N983ePx4vwzo3JLOFfels255/nnb2DYv3b9nxZZ075ham0c7R+Lo3Lwj56Zzjyie5pX52eq6SkcBAFePXAdAkclzzLrePLH1ePqu9mX8bNcUhX9qV2dnzq19M+sHTmTl05/P9WvuyrzWb+S2gRNZP/BmFu97KaezJE0HX8j1zd/NyoMPJTsezekbnx88Z21Pft1ZvvlzWZXbBk7kv24Z2+al+1euPZn3P9iU9QMncnvTgZwe55ecw+d87uRIHLetaVT451LjzQ7p6siGra9nw8bt+b/3dGTDxu1p2rj90t++D+1v2tqRV994PU0bt6dpvAeAUec80TWQV3cOnrNh59F8eDVeHwCMOxNydC56PRuGZ5AdOzaU917PE13JkZ2v59X+wV19bwxum6i9pq0dOdKfMblvsjGMamdjR46MiWk4luIrcT8nOO7iPSw5Y3B0e0PPK5M9rtQ1tw71Tf/xbBjV3hNdmUS/A8yQqeY54+Msq+Zclgnfo/d1ja0FDOTVrQey9+N307b1eP7XZftLK/UsdXnbJWIb81rUDqrXNZUOAK7Y0obkS/dmzw+SNH83tx9M0nswv2p5bqiQvja3lzjt3A+Gzkky/+lvJK2llxKav3ZF5qV8m8P7zye5fs1dSZJ5NyZnepMsLR3y6HPmNw5ed15ra67fP5UXzlz3XhrTvrsl9RlI3/qVqc9AXt16LEdWr8wdo/bnjdfTdubWdO9emiM7X8/h/pY8uHD8NvPG63lsUVu6d9elr6sjbcdn9aUBQPreaE97iVz0Xhakfffm1Pf35okXj6f+iwvyQtdAHlydHD62IPc8WabBrmMX20v/8WzY35s7Wkbn00nG0HUs7bk17buXDp7T1ZFvDsfU1ZEN+3vz4MNlHgKLpNT9LPG6y/XjuMe90ZFdXclTkz2ueexRdbnzlrPZ1ZXckWTZorM53J8sOZ40rEnSP36/A8wG42MVqOpcNmi89+j1zbfk2d2X1gIefHJVerYO5KEnB2sFi3ZfXisY646Wy5+l6nN526XOney9obIU/qlZ59sPZP7PT6S1dWTb6R8fyOLjJ9K69FCOrig9nX/+028Ofm9A76lk6cTfHzCZNq/EuZOnktYlOd/ZmY/TmltnrGWK7qZbhgoO/b157Pvv5r0kSWNeHLO/L8m6lsGHl/pFydv9ScoU/kefs2zh4Mf26psbsk7yBqACSuWii/lv4WfSkJ70NTdk2dbe9DUn7Ysa8rMybfX1n73YXhbWZdmZgfS1jGpvkjH09Z/NspaVl5wzEtOCK36ttabk/UxK3svJPlO8t/e1NO0d/PNN624p+7xy2XG5fKmB+ubGfNg1kCNnzuaeluTt/oEkC3LnwiT9E/c7wGwwPlZWteeyZIL36GVqARdNtH9YqWepyZ5bKi6qjqV+qFnz2lbl3JeG1/i/L0c7k8VrGnO6ZXn2rOhMsi9nOpPkhnw6g2v8Z9PzWfzBo4PntDya7kl890jpNqcZ+6bns3jfvdlTtzy/2p9cP/0mmYOO7D+Zth9tTvfuVVk3gz9EH/YPfpyvr6sne2euWQCYtFK56L1jvYMfie/vTXsWpD5Lc8+is9m1/2za1pSfaV+/cMHF9tI/kA8X1U2qsFEqhg+P9179tXOr3FTuZ8lnijP/miQ5cvzkxeNuWvdAundvTvePHhhZN3iyx421sC7LzhzL24sackdzQ3L8WHoWzZ1iFlAbjI+VVfW5bIIYJqoFTL5WcPmz1FTqDGoH1c+Mf6pb67ZLZvSPNjITP4NfnLv/ULJ9W1oHtg0dMfz/JWk6eCJNQ39r2v6LNG2fwnVbS7U5sn/epl9cnK0/+s/jv5ZLY4IrcUfLgrzw/e159vrGrMvJvN1V+iN4U1G/ui1tWwdnINx0e2PWzUikADB5l+aiBbkpDUmSm3Iyj218N+9lQdZt/krqk9S3JN/85YK0l5lVlyRpviVtO9vTtPFscn1jXvxmS9LfM+UY6le3pW1ne9o2HkjSmBc3z9hLri2l7mcJJfux+Za0/fK1NG1Mbrp+QbIoF+9r08azSRbksR99JQ9O9riS/b409+RA3l64MslAGs6cTE/Lyqt3PwCmyPhYBao+l5WLYfA9eslaQPNn0pADaduatH+x1P7S7d8x5lmqZNsLFyTb2/Nq81fy4DhxUX0+ceHChQuVDgLGdyhH6x7Jx6O2zH/6zbQ2vpTOL+0bXHu/eW1u37kti6e8rGqZtjdNvATQ1Wjz/WtvTvcffp/+P/5HVn/w1jRiuPrWrlybfR37Kt4Gs2ftyrVZ95MyTws1ZO+3u7LuKyOPJV/9y69WMBqgHDmCQb15YmfyVEXXzp96DHLmWNXQj1QL4zuMVr3jo1w2VvX2FVM3V3KRGf/UgLty68CJEjPpR8/En+m2q61N5p7ePLHxwCUfl7tp3eQ/Cjh7bQLAlZrpvHQl7cmN01epe6jvgGpnfKwdRe8rPxNzlRn/UEXM+KeamfEBzCY5glomZ0J5xneoDXIZRTZXcpEZ/zDL3r/25nH3N13zqTRd86n8+5+VXiHtT//FV6YAAAAAAOWZ8Q+zbE/d8mmd//R/+ZMZigQu9cF1d89IO3/z2L/NSDtXixkfVLO1K9dWOgRgAkXJlz989j9Pu40bf/vODEQCwGyTy0bIZRSZwj9UwE/mfXZa51fDMkCW+pl7fNQTrj7j4gj3glomZ0J5xneoDXIZRTZXcpGlfqACvn3+NyW319Ia/wAAAABAdfpkpQMAAAAAAABmjsI/AAAAAAAUiMI/1alzSzp3nKp0FAAAAAAANUfhn+rUui2tm5ZMs5FDObpiV87PSEAwC7o6suGNgUpHwVTVYr9VQ8z9x7Nh4/Y0bezIkStqYCCvbt2epo3b80TXDMcGFEs1jHlUkd48sbP3yk6Vu4BKkcsoS16jPIV/qtO4M/4P5eiK5dlTN/Tf5kM537klnUN/HzzvVLpXPJKPu55Lx4pdOZ9T6d583+Dx4/0yoHNLOlfcl8665fnnbWPbvHT/nhVb0r1jojZPpXvFlpxOkt5d6Rw+rnNLjnZe2t7Rziu/XRRE88r8bHVdpaNgqq5av/Xmia3H01fxNq7i9W5fle7dK3NHkr6u43li6/Zx3tAM5NWdr6dp4/Y0be3Iq/11efDJzWlft2BmQgeK64rH6dkeQ6m8SfT5xdw1Uuxo2vh6Xu0vdbDcBcwQuYwrIq/NdddUOgCYss7OnFv7ZtYfXJLzO+7LrxvvyrzWG3LbwLbMy6l0r3gppzdtS9PBF/K7Fb/J5w4+lOy4L6dvfD7rB5bk/I4t+XVncmtr6ebPZVVWDvwi83Iq57dc2ubiUfuz4750fLAp6wfuyunN9+V070NpWjq2tSVZvPZkft2ZLE4yv6knp3uTefuTT/9Vkt7R10vev5r3jerX1ZEN/beUfqDr6siGX55NPj6b/3NVY/6/AyfzXpKb1j0wePyo/e9d35jHbjmbZ/eeTa6/Pe1PtqT+sgYH8urWY1ny5Mrc0X88G15Mnn2yJfVdHXkiK/NURtpbtnlznmq++i+/sgby6s72PPvu2eT6xrz4zZXJ/tdzas1X8uDCpO+N17Nr4VdK34fhflt4LBt+meTjk3kvC/LYjwbPvVxvnth6IHs/Hvrr7avS3tKTx7aP7tPk1aFj9m5N2p9cmsMX4yvXp2NeR5Zk/fWnRtr44tk8NtynqxqT/6P83Tiys9RrH32PhmMY53qXxDx4T+/oH/Vz9cDtl9yTXceTe25pzIdlYup7oz3P5ta0716adHWk7cXjufPJlvIvAmDYJPPrsgduz4evvTs0Fq9J27HR43CJcberY5LjftFMI2eOOvem2xckuTU/a+kZ6Z+LfZXLc87ofhzvuAliHr5uX1fHuLn3//ni2WzfPuZ5a7T+3rQvWpXuJwfz0ob9vXnw4UvfDMhdwIyRy2ZYDeay0f28+YE0HJfXmJjCP7VnaUPypXuz5wdJmr+b2w8m6T2YX7U8l3NJkrW5vcRp534wdE6S+U9/I2ktvZTQ/LUrMi/l2xzefz7J9WvuSpLMuzE505vkssJ/Mq9tVc61n8rpD3qyaE1ypvdUkoYsXpqkd9T1YALvpTHtuweLrX3rVw4WXbcey5HVgzOmh/fnjdfTdubWdO9emiM7X8/h/pYSD291ufOWs9nVldyRZNmiszncnyw5njSsSdI/+npzQNextC9qS/fuusGPO+7vzc9aFuSFroE8uDo5fGxB7nly4mbey4K07948+EBX4kFp8Fo9+fCWB9L9ZN3QA+XS1Dd/Js/uvrRPH3xyVXq2DuShJwf7dDi+vjc6sqsrZX4JcSztQw9ig/3WmwtDbdR3dYz0aVdHNpScwTHojhKvve+N9stjyPjXG3tP72gZ9XPVfzwbLn4idWmeejhJV0deKBNX35nksTVD12m+JY/98lj6krnx8wlcVaPz52PrHkj38Bvh1SPjcLmxZlLjftFMI2dekku6OtJ2fBLHXcw5kzyuRH4sdd365lvGzb31Gcii3Zc/b120cGkeSXuaNh5IsiCP/Wjl5deVu4BZIpdNUQ3msmRMP8trTILCPzXnfPuBzP/5ibSOmrF/+scHsvj4ibQuPZSjK0qvmTP/6TcHvzeg91SydOLvD5hMm5Oy9LOZ/8FLOXNja25tTc5sfim/u/Ebiv1M2U23DCXY/t489v3BWRxJY14cs78vybqWwYe1+kXJ2/1JSszaqG9uzIddAzly5mzuaUne7h9IsiB3LkzSP+p6c0Bf/9ksWzj0cLywLsvODKTv4YYs29qbvuakfVFDfjaJdi7es4XjfNRx4YJk+2tp2pvk+tvz4pMp26ejvbd36JwkN627Jcnls336+s9mWcvKsv026T5tvvy195WIoS/lr1fynrbMrZ8roDZcHJdW35plW19L094FWbeuLU+tnsK54437BTPdnDl8bn1zQ9aVKZYkJfJemRmok8mPJa87Ue6daH/Xsbwwumg0NOtRjgMqQS6bmlrNZaPf88trTIY1/qk589pW5dyXhtf4vy9HO5PFaxpzumV59qzoTLIvZzqT5IZ8OoNr/GfT81n8waOD57Q8mu5JfO9J6TavxF1ZlH1J412DMXXvSxqn+8XFzGVH9p9M2482p3v3qqy7fhoNLazLsjPH8vaihtzR3JAcP5aeRXOzKFu/cEE+7B9aW75/IB8uqkt9luaeRWeza//ZtK2ZuVkvfV0ns2zz5nTv3pzuJ1tyRybXpzete2DwnB+V+FjmKB8e752BNTxLv/ZSMZS7Xul7euXqFyXP7h+8Vl/XsTybBXPyZxW4ivo/k4ee3JzuHzUmx2ZiLC2m6ebM4XP7unqyd3jjmX9Nkhw5fvLicSXz3mSPm8R1J8q9E+3v6z877utM5C6gAuSySanVXDZeDPIapSj8U51atw3Ozi9heCb++oETWf/zxpzbf2jw+IETWX9wW249eGJo/f4laTp4IusPPpR5WZKm7b8YPGfgFyXW4i9x3VJtjto/b9MvLn5PwOg/l7J4+6UxXTx2nNcJ5dzRsiDt39+epq09SU7m7a4rbWlp7snJZOHSJJ9Jw5mTycLJPWQUTvMtaTvTPvglRS+ezSNDD3p3tCR7zwx9CmKG1Dc35sPtI1+a9ERXuT79TBrybtq2Hk9Wt43E9/32Ml+0lNSvbktbjqZt4/Y0bezIkVFtXPLQv3BBsrd8O8nlr72+RAzjXq/MPZ2svjdez4Y3Bi7+v351Wx4bulbbL5PHvmn2CTCz+vqP5bGN29P0/ZPJF5emvtwYOtdNI2fWr25L27HX0rRxex47fjY3XWzvQJo2bs8LZxaMHDc27032uAmvm6zLxLm3foLnrdFtNn3/ZNq+Obj0gtwFVJJcNkk1mMvKxyCvUd4nLly4cKHSQUBph3K07pF8PGrL/KffTGvjS+n80r7Btfeb1+b2ndsG18ufibanVYSffpvvX3tzuv/w+/T/8T+y+oO3phHL1bd25drs69hX8TaYPWtXrs26n9T+t/zu/XZX1n1l3cW/f/Uvvzqr1x/9xbnp6siG4w352VxYR3Os/uPZ8P13814a8+LuMetLTspAXt36Wp79OFlXoC+gNi6OcC+oZXLmZPTmiZ3JU7WUA+WuGWF8h9ogl01GDeay0eZwXpsrucga/1Sxu3LrwIncetn2bWkd2HaV2q62Npl7evPExgMjHxfM4Mf+Jvtxv9lrcy6a6n0sc3zLgrzw/e15Nkmub8yL37ySh8SZ6tMK/mwsbMnPdrdMo4G6PPjk5jw4YwEBxTad8U4enbpK3bOrfF25C6gouWx2FTSXjSavFZ4Z/1BFzPinmpnxAVefcXGEe0EtkzOhPOM71Aa5jCKbK7nIjH+YZe9fe/O4+5uu+VSarvlU/v3P1pXc/6f/srfkdmDQD5/9z+MfcN3d+eE//evI8f+0/bJDbvztOzMdFkza2pVrp93GXHiIBaZnwnyZTJgz5Uuu1Ezkumoh50LlyGVMR5FyUTlm/MMs21O3fFrnP/1f/mSGIoFLfXDd3TPSzt889m8z0s6VmtTD3wQ8/FHrKl2EmAsP0cxd8uUI+RKml3PlSypFLhshl1FkCv9QAT+Z99lpnV8NywBZ6mfu8VFPuPqmOy4OFxAqPbbKEcx1ciaUV5TxfSZyblHuBcUkl1Fkc2X8tdQPVMC3z/+m5PZaWuMfAAAAAKhOn6x0AAAAAAAAwMxR+IfxdG5J545TlY4CAAAAAGDSFP5hPK3b0rppyRWceChHV+zK+RkPCIZ0dWTDGwOVjoKiqYafq/7j2bBxe5o2duTIFTXw/7N3/6Ft3Xm+/187hGV6v9/aVzWFde213dpxXAUm1Bhnsny/KRkXqYoJxcRmSSZkMbmkCVilX8JSu0tjnDCNyxC2jA1JzA3+3pBNGJxgSrBVaeLNNne4aYzRkoGojmN1rWCPFhaPNi7f26G09PuHflg/zpFkW5Zk+fmAIa7OOZ/P+xxpPu+jtz7nnJCu9Q/J2j2ks94cxwYgvY2MIRm39evsiD93/Rpuk6YPIBvkMKBwiuE8NueM8pLBa4w9AExQ+AfSSTfj39MnT9theSxNevj/XpXH0qQxS5M8w7+Xr+20nnl/LbdZ8d/TJ09bX2Sbw/LxHRNr1WzXzXbLOjb062z/jAI5DwiZ5erY56KdfH8O1tjfvoPyjdpVO3FD1u6h1f8ZFuRCujYSWa/frWtBi44POOXqrMhh/ACysu7cVABbKVYUkSzyGTkMKIztPq5Hxp79cUV8a/cNXQsarczYA2wXPNwX2IDnOih76LY0fFhfnv9cXdGrA3ou6Zu2r/X61AmVmW7bIHtoVmWePnk+vSfr0IG8xY0S4HXrSLDV+OTW69aRz5alZ8vaeWyfnl5/oEeS9nQekmN6UreeSbf6JddAi2oNt5X0bE6PVKHej4/qeOXm707hhXRtxKXBB8tSTaMun7JLd25o4VB4/wMTN3S18qjONWe37f5g3PvjdetIcFfmYy+/zvaH15Ek7TsoV8u8eofmIu/fMd1sl671x7dTry9ife8zaTcpRtWpq2ZhtY13ltUb/bwcbJT+i/lRuj9idEzi9z8aQ5r+EmKOO15xn9mo2vaj8rWH/w73V58SU2DCpUHtlWu0XvK65bg8ozcHWsx3AsDmSZebgjM68uGDxPEsNk406rJT0vS0jtyKzz+rY8mefRWS9ib2Ef07IU8ZjUnpYlVqHylCutY/rboBu/YHZ3TksjQ40KJar1tnZdc5xY1hTqdJriglucmZ0eN9s2U+9T2N/3xE30ej995ovYwxx7UXed8e1TSqt3VZg7eSlyt2TtTpdKjhs9UcfK5qTv87eZ/jPovkMCDPIuPC6SVXcY9HcWPPXx1s1L9Pxp/rWwzjMnzNa3z+rKBfrqqD8g2Ex5Ujd/w6fjJx/GHsAbYPCv/ABpR3tIUL+z09Km97W2Mf7VbN+Yva27OGbesbNjdIbEuP1CjXaIs0cUO9ncfkixZh2g9qvj+kE6ZfjKVHqpBr1Bk+oTU4USxJ3mm5qhzyjVrCxak7ft1sqdAlb0jH26Uvpiv01kD22+5POW8u1/GBDMfeO6+nrcfkG7DECgS1zS9pcNQeLqT3T+t+uz2hHU3ciPUdmHDrqlfGX2y803JFTu7Dffv1YzQWrzv2eQl/iTE/TPsNjklgwpUag9L3Z3S8YjEEZ3QkZVJkyPQ9CCxJvYci/TS3qvezaQUk0883gMIIeOek+HzkdSeOE163TiXlnzerHq6OL163HDNZ9GM0JqUpxCesb9qHRW+2LuuqV9ovaWfVsr4ISnUzUsMhScG4MWytB2Yr2kDOzO54m+WWLNczeL/N2os/X3Is7ZVvtF73R27oi2CLjivunCjo19nLfr0Zn8u9yzqSvM8mM2vJYUD+GJ2vGinUeCTF54yQAl2J5/q1BnGZxWp4/lxZr9Nyydo9KalCvR/bU2Nl7AG2DQr/QC74X9XrU7Pa67+qhyentNLzWqEjwja3pzVyIte+Vzv7r8t6q0KdnQ6da1/DtpXb51LPQHBZOysjxahKi3YuhRQ42aCd/X4FmiVXVYNurmXb9UyYqayQhq7LektSzT5dHpAU9Ks3MkNWatRlg80e3YpsI2lPZ6uk1Jm2geCydrbYTU/mY+95Js2pxyRgEENA5v2ZHa+0MXin5WptNX0PABS/2qR8dMJgnDDKP9Hxora5QZ1ZFP6l7MbFeNn0UdvcqKfekO4vLeutFuluMCSpQm9WSgquYRwtARvJmVL272nK+2hyBWK277dRe9H3LSCpsyU80aG2SrobKeCvfiZfUoPmFYhvOy4nzre26rjZjpDDgPwyOF81U6jxKDa2mJzrG8Vl9Jph7vFO61L8j7OR2fzbJUcBSMQ9/oEcWPFf0ZeWJo21TEoftKlMr+pFpbnHP5AvwZd0YsAp38eN0rSfe/ubqK2s0NNg5GFgwZCeVllUq3q9VbWsq3eW5ThkftWD8baSlv4kSbo/M5dV2l8gTQAAIABJREFUDAHvnHY6nfKNOuUbaNF+SffvzMnxsVO+0YPqrDHebk/nsfA2Hx9Le1/TpzO5eP+Nj4lRDGb9mR4vUyFd+0w6bbJvtVXS4J1wXwHvtAZVwRcboBgl5aMlZTcuRceLgHdet6IvZhhfsx0X0/aRrNKinUvTulvVoP3NDdLMtOartk+xP95GcqaU/Xtq+D5mu56BtX4uJOlR9Nwp6JcrJb+s7nNDs1l75DAg/4p/PIoyO9c3iiurXKXwj7OZMPYA2weFfyAd2wXZovftT7OszHZBttCsukK3tddWJ6lO1qlZdZnd4z++3foTsnF/f2ySQHBavd1Dsn44J71Tr1q9pAY9kIMH/CZqbpVjyRV+wNXlZZ2OfEnY3yLdWorM6FzLts2tcixNyto9pEtL0Zmr6Y99bXOjng6tPojrrDd8qbLrwyFZ++clzemuN7EdtTtW+/7QZfLwLqm23SGHHsrRPSRrt1v3zWKprJBumbdjdExqDWJI25/JsTYVmSm5P/KfgYkbOjIRiv1b2+5Qb6Qvx2dS7ylmNAHFKDkf/U3KOJGqtt0hx/R1WbuH1DsjdUrG42vc2GU0JqVj2Ieher2lOamyXtJLaliakyqzKx6XnA3kzMTjvaw9sfYS31PD9zHb9cz6XcPnImqP5mKf253vtKScR2XcZ3IYUBDFPB4lxpl6rm+Ul7LPVYnrWj+ck+NU+HZmjD3A9vQXP/7444+FDgIobvf00HJaz+JeKT//ufkPAhvY9vHLb8j3/bcK/vCd2p/8biNBb7oOe4fG3eMFbwP502HvUOdvtv4TC2+951Xn0dXT5V/+3S8LGM2q+AfnyuvWkZkG3dwOz1dIFnsAaKMuj9pjxZLshXSt/7oGn0mdW/AhmxsdFzvsHZJU8LGVHIHtjpyZDb/OjkjnijXXpXtYddw6Z4OtOhddZ5vnsGyVyviei5xbKsdi6yvy8SiTTRp7yGUoZdtl/OUe/0BGB7Q3NKu9ed8WyMSvs92TCZd67unM9vL1jWy7XeXqmJm001KhSx8OaVCSahp1+dR6vnhscoz5+HxUtujm6HoekhBl0fEBp/m9lgFssmLLL2uNp9ji36oKdRzz129g4oYc0xW6PBDXNjkMKEKlPx4x9gAwQ+Ef2Eais1LibYdfOEtXvc6NOnUu79tuV7k6Zmbt2HVz1L5JbReqHQDbT7GNH2uNp9ji36qyOY71OneyEP1mqdme9qGgte1H5WvPRUcANlcJjEcAsE4U/oE8e/zyG2mXW3e8IOuOF/Tnnxnfue+nf0j3KB8Avxr8r+lXeOUX+tW//Gl1/X8ZSlll1x//OddhAVkz+pE2323wozBQ+jLmSyljziRfYr1yketygXwXVizvB/LnySu/yLzSK7/QrwbNF/9D73/mLiAAm4LCP5Bnvu+/3dD253N8UraRk7xiKE4hdzKe/GU48YviBBBAqSBHwUwucib5EkAxINcBQOmi8A/kWVdoVr8pe23d2/+3hfU/+DeXt/rhwY3bz1Z5uFOmQkp2D3dy5jgqIDuFfrgvX/5TkaewHlshZ2bzw0PmnEm+xNoVw3cA8l2qQr8nKD5bIZcBSI/CP1AA7618bfj645ffkO/7bxX8Yf3FfQAAAAAAAADbG4V/YBuJzuIohlk2AAAAAAAAADbHTwodAAAAAAAAAAAAyB0K/9hcnj55hhdyt95mx5GvvvIZDwAAAAAAAIBthcI/Npftgmw9dSYL7+lh21WtZFwvH+Ji2ajYvuSwTeSe160jE6HcrbfZceSrr3zGg3Xw6+yIf32bBmd0pHtI1m637q+rgZCu9Q/J2j2ks971hQBgE23F8bsYYmZs3B4MP2uRnMpnANiaiiGHbDqjc3+D1xjHAJig8I/NZTqzfUG+ttN65v213G1XtRJdz9MnT9theSxNGmvrk2/4sMYsTRqLFdAX5HMmv2bAfzXchqXJoP/4Nvq06E+KJWN7v5evrU+L0dej23j69NAT3effJ7UZ16clsu34lUibh+VbZx0PG9Bs1812i8lCv872zyiQcb18iItlo2L7ksM2UUSyeF/3HZRv1K7aiRuydg+t/s/wx4SQro1E1ut361rQouMDTrk6KzYpfgAbsmn5Khc5I995Z439RcbG/ZIC3hmd7R9KU0xibNySMv3/I/oZCPp1NlL8Cr+/RivzGQCKQsG/pxWZWC5bLeJbu28wjgHbHA/3RYHUyTp1Sd+0fa3Xp06ozNMXW/JcB2UP3ZaGD8v9pEddoQNadB7Wov+Eql1ntLjrorpCdVoZ7tNXHmmvLbX1FdekdP5zdUWvIvDELfRcibUh/1V5Pv032eJjMYg2ub0V/aO+8kjVksqt81r0S2V3pBffl+SXpOqU/VtUj+yhA+H2PX16oAbZQ7Mq8/TJ8+k9WYcO5OLAIltet44EWw1OFkO61j+pW8+kW/2S651l9QZbdbNyWkc+W5aeLetRTaN6W5c1eGtZqtkn10CLahXStRGXBh/Ev2YgOKMjHz7QI0l7Oo/pZmVS37E2GnX5VKsWLsfFYtRmQnuH5Jh+oroBu/YHZ3TksjQ40KJar1tnZdc5uXUkuEuO6fg26/VFtE816rJT0vS0jtya0yNVqPfjozpemdxpKUo+9nbpzg0tHArvf2Dihq5WHtW5ZoNNve7YZ+OvDjbq3yfnVt/fdkvCcuPPTvo2dzqPqWEmHNuefRWS9irgdat3KL4fJXxu//s7yxoaSoojTm37Ufnaw3+H960+JYTAhEuD2ivXaL3kdctxeUZvDrRs6CgD2ESRvHZ6yZXd2CW/zkbGDUnSvoNytcynHVsScka6MSx+TFWdumoWEvNqdHw72Cj9F/Nduj9iNA4b5ds0/SXEHB7f9wfjxthj+xKOydUZ6a3WRj01iYmxUdpQzozbNprTbrbMr56Txc7PlPo+x5+7pVvPqFuD9aP9J6h8SSdOOXWuUgpMuNXrDel4Ug7lMwAUiTXnvUKMPyFd6582/X52Qsnn9BbDOA1f85rksqBfrqqD8g2Ex6gjd/w6fjLxXJ9xDNg+mPGPolPe0RYrvtccChfDy3ZJ30QmpD7/6G2NWZrk/mhcz+eM75Nf1tOj8vG3NWY5rIdJM/5X5uZU3hj5QaD+NZX7vs54O57k9socB/V8bkGLd+ZVdUj6xr+gFTWoOrV2ttrnoQMJPyrE9rO+IUPvyC+Ljg8cVKfBydsjNWpw1ClX67IGl/bKN+rU5ao5fREMnzy5qhzyRZZfNblEMuCdkzqPyTfqTP3RwTsda8N3qkKX7vzJNBbj9ur0Zuuy7nolBaWdVcv6Iijdn5EaYsX78sQ2vdNyaa9co87YbMdHqtDgqFM+Z4Vcd7bJ5Sgpx96v/S0VcnlDkkL6YrpCbxl+gQiLfjb+sas1fOxGj8kxPR271DbdZydTmyeCq5+twZYKPZJU25zcT+Ln9m9Slpsx37fAktR7qF61kf56tcxVIsAWkPXY5Z3X09Zw/nB1VqizpT7j2KIsc50ScsshDSTlsuj4ds7kvCndvhjm23T9GYzvio/BGt9jvc6dbNH+ND94MzZqQzkz/v2L5rRM66U9r8r2M5l1/xbVVkpSSIGlZe2sTJ1NzGcAKC7FPf5Y0n4/S827xnGaxW6YyyrrdVoPw7P5h5blOGQwwYdxDNg2mPGPLaf8/Ofhe+j7F6R6k+cC+F/V61Oz2uu/qocnp7TyweqissbG8A8GtjrJ/7WeW18znOWftr2e11T+5IqWdtm01yYtOa/om13vpm3n+Z17WrEdyNwXitae1vDJUUBSZ0v4BKq2SroblN6U9OjWdVlvRdbtbJWU+mWxtn2vdvZfl/VWhTo7HToXV1wIBOO+YFZatHMppIBBG2nba27UU29I95eW9VaLdDcYklShNyslGRSZA8Fl7WyxJ/yoEN1PVW6fSz0Nj/3JBu3s9yvQLLmqGnQzzfaxYxb0qzdyBYbUqMtJy40+OzIpMMVvE42ttrlBnTPm/cRkWh7lnZartTXtvgHYYpqzHLsqK6ShSN6q2afLA8pq7Mgm1xnllnixMXMd+xIwiCEg8/4Mx/eWNcSAFBvNmSk5zUTKZ80kX2bzmVxT/0G/zl5+qIZTRxPO0wAUqWzzngoz/tSm/X5mnHeN4jR6zTCXead1qcoh36glfHV4ZDY/OQ/YnpjxjwJ6VS8qzX31DZT1XFT1kzPhe+W3nDG9N/6K/4q+tDRprGVS+qBNZfUN0keR9W3vrrZxcl7W9w9kjCWlPR1Qlcalxsi2vnGpMflHiNU21XNR1RqWO/4e/yg5eyIz730fp95aJSb4kk4MOOX7uFGa9ifMrKitrNDTYOSewsGQnlZZMp+gJbdXadHOpWndrWrQ/uYGaWZa81XpixtPZ/zbfoaH8bGv11tVy7p6x3imjJH7d+bk+Ngp3+hBddbkLr5obAHvvG5l0U92cYR07TPptMlntbZKGrwT/mwEvNMaVAVfGIAtIbuxK+Cd006nM5y3Blq0X9mNHVnlOuUqtxjvi1EMZv2tK7emwdi48ZyZnNMkSUt/kiTdn5mLrWf4Wct2vbX2HxWc0ZHLIb11yvxWh3wGgGJT5ONPmu9nZnnXKM60Y1ecQHA57TGQGMeA7YQZ/9hctguyGdyDP6xO1qlZRa9KC6+3un5Zz+3YXTdX/66Tdei2rEPpuy2zXZAtdCHulROyhU6s9pvSRmIsmduTqodmVR23bUzcPse3mdxndfS41J+QLcP+IN9eUoMm5eiXXO9kt0Vtu0OOEZes3ctSmnvjB4LT6v0wfP/8TqcjfDn5kEvXmo/qeHPrahs1jbp8qkVSaDUWg5kaKe3Jorc0qbuV9vC2S3Oab7Gb799AOG5H96Ri9/jfjgyPvbS/RTr1WYVcWc74299SoUsfDmmwplGdmtNdb/j2SRtR2+6Qoz88m2jPvkZ1mvXTHP+5NVievA9Js/0DEzfUK4cG5VKvHLrZ7lBv9LNR06jeUy2xKxAAFLdsxq7a5kY9/XAocp5SoU7nUZ3LNLYMZJfrojkxlltGW43zamXFag40iTV5Xwzzbbr+BgzG9+B81seSsdHABnJmYk6r0B41hNv77Lqs3dKemgqpyuR9zna9rPsP59QEwWU9ejanUx8+kBQu6kXfez4DQPEq7vGn3vT7mdE5/TmDcSrj2GWyn9G4NHFDRxjHgG3pL3788ccfCx0ESt09PbSc1rO4V2K36ym6tjcz1swev/yGfN9/q+AP36n9ye82rZ8Oe4fG3eMl0Qbyp8Peoc7fpLnR/RZx6z2vOo+uni7/8u9+WcBo8ij2IOhGXR5dzw8SIV3rv67BZ1Kn02ny0DRs1EbHxQ57hyStu42Nbh/fTjG0sVHFEMNmiX9wrrxuHZlp0M2T2V3dVFI2aWwkZ2bDr7Mj0rlCf+7Ij3lXDGNrLvJdrtoohWOx9RTJ+JMr5LK0tu33P6RVDONvPjDjH3lwQHtDs7HZ+8Xd9mbGiuLj19nuyYRLJfd0ZneZeP7b3sxYkZ3NeA/y+L5WtujmaMsGGrDo+IBTx3MWEID8MBlnorMMpcis7fUUP3I1hhUwxzE2bpJCvafr6JfPAFBittD4kyuMYwBMUPgHsI3V69yoU+e2RNubGSuysxnvAe8rgM1mNs7YdXM0+VZwuWq7UO2geGTzntbr3MlC9AugtDH+AEAUhX8gzx6//Eba5dYdL8i64wX9+WfGd+776R/SPcoHwK8G/2v6FV75hX71L39aXf9fUh+yseuP/5zrsLBNFMvlotHL9gu1fTG1UQoxoLg8eeUXmVd65Rf61aD54n/o/c/cBbROGfOllDFnki+3pmLJVRuRq7G5GHJVseSZYokD+VEquQxAehT+gTzzff/thrY/X0InublqA7mR8eQvw4lfFCeAAAAA2Cx8fwAAIDsU/oE86wrN6jdlr617+/+2sPEH/xbLQxe3y8NUSsVWebhTph8esnu4kzPHUaHUFUsRIhfjcq7aKYY2NqoYYsDWtBVyZjY/1GfOmeTLraRYclWuFMODeXPRRqHzzPZ8uC+ysRVyGYD0KPwDBfDeyteGrz9++Q35vv9WwR82XtwHAAAAAAAAsD39pNABAAAAAAAAAACA3KHwDwAAAAAAAABACaHwj1SePnmGFwodRQHd00Pnvcyv+a/KY2nSmKVPi+vqZ0G+tiaNWZr00LO+SAEAAAAAAAAgGYV/pLJdkK2nbhMavqeHbVe1sgktF8yxS+oKXVB1XBF/rM3sh4AF+ZyHY+v4/HWyTs3Kfn53noOGIa9bRyZChY4iA7/Ojvgzvxac0ZHuIVm73bq/rn5CutY/JGv3kM561xcpAKDE5SJvrqeNrLcJ6f7IjXAuNNwmkj/JmciI8y+gKG2J729rYTTWZInxB4AJCv9IFZnxv+g8LF8k76wMH04zK/2eHkaL3pYmjTnvacXTF5kN3xS5emBBvrbTeub9tdxtV7WSUARP82OAp0+etsPyWJr0+wvJbSYuH2vrk284c5upsUnxRXmPc1jPzV6L6+/h/4xrc/iMFjs+V1doVl0fSL6UKwbC6zxWj+yhWdk/kB6fLLEfQba6ZrtutlsKHUXu7Dso36hd++NO4qz9ZieCIV0buRFb51rQouMDTrk6K/IcNABgy9i0vOnX2f4ZBTbczp90d6lRrlG79meK1Shndt/QtaDRyuRMpMFnCcifUvv+llYWuZHxB4ABCv8wVX2oUYuucNF+cbxRVTaTFT0ePY8Uve3nd6vm0AGV2d7Vz0Oz6gp9rurxK1pUnaxTl1TT/PeyT52Qhs9ocdfF8DYd8/oqza1unuugfh6a1f/Vl9xm4nJ7x5weP+lRV2hW+6yTWjT5sTw1tkjhPhLPzw816rnJa/H97f2/jdtfkSTf1ylF/ZUn0u73D6gsEsNuzVP4LyaRGSP3R1ZPjgITN8xnPHjdOtJ/Q0e6h/T/jLkjMyyGVmedxC239rt1bSJ6YmV+whbwGrQTd1J2ZOShnpq9FtffWV9cmxMuuVqPyTfqlO8d6ZLBLJLAhEuD2ivXqFOud6TBy7kouAAAStq68mY0zyWvF9K1frfuK6Rr/ZO69eyBHOkKHNPTie3Ez/r0unVkYmG1nYQZ/0Y5NU7QL1fVwXDOdFbIdYecaSyxYHQ/qOw/BwnvwQ0dGfEbvH+hpD4ixzjb9Yz6jE5+CM7oSFx7Z72bc/7FZwnIg7XmoSIcf4zGldQxKTE3/i/DMSsO4w+AOBT+Yc5mU/n4lFb8U1q02lRttl59g/TR2xqzNMk9fjD8A4F/Sl9amjRmeVuPTRLv8+g2H43r+Zz5MwXKO9pUJvM2Y8sl1Rw6IEkq2yV9Y3aVnFk7jeHbG5XZbKpJ91pcf1FlPT0qHw/vz5efzJnuC4rf/pYKubzhE6wvpiv0VrP5uo/UqMFRp/6xq1WDo075Ro/JMT0dm1UfXe5qXdbg0l75Rp26XDWnLwxnXUi1zantBCZcclU55Bt1arClQo9MXovv75zVuP2AJC2FUk7qAktS76F61UZi6NUyJ34AgKysLW9WhPPcx3ulz1aLDPdHXJp/x679suj4wEF11uyTa6BFtWtsZ1X5ajujdu2PvGqWP2Mq63VaD8NFnKFlOQ7Vp7RMzpTknY4dR9+pCl2648/6c5DxPTBYz9W6rKsm3yeyW8+iN1uXddcrKSjtrFrWF0Hp/ozUULlJ5198loC82crjj1FMqWNSYm78G4MxKwHjD4A4OwodAIrZAVVZPfrqU6n6/ROma624JlX+21nZ4q4IWPx0UtUzs7LV39PDNuPp/OXnPw8/S8C/INVnfqZANm1mw6yd53MLkq1OKx6Pnsmm1w1e22va6qt6fWpWexW+LdKXMvhxYJf04NN7qh46IHmu6LEaZF/3XmDTNDdoZ79fgWbJVdWgm2lW3dMaPllS0K/eDx9ETh4bdTlpeUBSZ0v4hKu2SroblFRp0KBJOzsrw5ew1jY3qHPG/LVYPHFq2/dqZ/91WW9Je2oqJHH5JgAgh9aTNytfUoPmFZD06NZ1narZJ9fJ7Ls0aidbRvkzxjutS1UO+UYt4ZmZl2f0ZpofILarQHA5dhxVadHOpZACJ7P/HKR9D+I8uhU+f5GkPZ2txudORusp9dYftc2NeuoN6f7Sst5qke4GQ5Iq9GalNuX8i88SkEdryENFN/4YxWQyJsVkWs74AyAOM/6RVvUh6ZmvQdWpPxLHlDkO6vnfRu/xH34WQPWhRi22NGmszSNpXEseSXpVLyp8j3/1XFT1kzPhbVrOxJ4lkD4WozbXs0+p7ZT1XFR1dMb+HalGxq+Z8kSvImjSl08O6uc9dVoZPizP8ELs37Kei9qtYbktTXJ/Iu0eOZHy4wCKQb3eqlrW1TvGsyOM3L8zJ8fHTvlGD6oz7Qdlfe08DYYv4Qx453UrzWvGXtKJAWd4FkmrJKMfB6qkwTt+BSQFvNMaVAUnhgCALGWfNx9Nh3ONgn65IrlmT+cxXa6aU+8aHtBo1I6W/iRJuj+T/srLdPkzEFzO2Dc5U6qtrIgdRwVDelplUe0aPgeG74HB+7enM3Krwo+Prd7HO9v1klVatHNpWnerGrS/uUGamdZ8VficaDPOv/gsAfm0dccfo5gyfbfMtJzxB0A8Zvwjle3C6ux92wV1md3bP2J1Br3CD7+9c08auiBb6EJkjei/dbJOzSp6Fax16LasQ2uLJbXN1eVlPbdjM/Lj/zZsM0NsUamvHUi4skHXT2vseof2hS7IFkq6KqLntsKrRv9N3ucF+drCtxuq+a1ZsCiE/S3Sqc8q5DKZ2ZG6foUufTikwZpGdWpOd72rtxVYW7+p7Zxrd8gRnbG/r1GdkmoNXjPl9at3KDwjZM++fRo8aVFg4oZ65dCgXOqVQzfbHeodccnRPSnVNKr3VEvsSgUAADLJNm/u0Zx6ux/okSrU6TyqWrnD2590aKHfpbOVR3Wu+SU1aFKOfpne7ielneaQHJ9dl7U7cnVblXH/mfJn/HKpQr0fH5UmbugIOTNRc6scIy5Zu5elmkZdPtUiKbvPQeJ7UKE9agi3l/T+1bY7VvuIvBfHs13PsP96vaVJ3a20SwqpYWlO8y32SNy5P//iswTk11Ydf4zGFcPvlvG58R2D5XH9Mv4AiPcXP/7444+FDgJbxT09tJzWs7hXys9/LlvjFXn+djz88NvmDu0buZD2CoE1td2T+RZA+W1zcz1++Q35vv9WwR++U/uT321aPx32Do27x0uiDRgIzujIhw/0SI26PLqeHyFCutZ/XYPPpE6nU+ci98nssHeo8zdpbt68Rdx6z6vOo6tf13/5d78sYDQoFR32Dkna8uNiMe1HoY9FscRQMrxuHQm2ms+ILBRyZlqbmzP9OjsinTu55i8OxWmTPku5lKsxPhdxbCSGXOxHMbVRDO+HVPjPRX4x/iQil2H7KYbxNx+Y8Y81OKC9oVmDmfTxM+hz3XaxtYntx6+z3ZMJl3Pv6UxzKWfB2oxT2aKboy0baMCi4wNOHc9NNACAbcUkx2V5FV3GdnL9wwE5c5Pk6f0rmn7FZykPogXq5P/Od+GmWOKAGcaftWP8AUoVhX8gjx6//EbGdaw7XpB1xwv6889SLyD+6R/S380dm6Fe50adOlf0bQIAUAzMcpw97QMXs28HW0M271+9zq3hoc656xdAaWP8AYAobvUD5FH0Vj5mrDteSLtcks7/9V/mOixAkvTklV9suI1/6P3PHESyubjUE5uh2G6RA2DzlEq+/NXgf91wG7v++M85iATYmPXkzY3kbfIsSkGp5LJs8P0PRrbLrX5+UugAAAAAkBsUIwAAAAAAErf6AfJq93/8q6bKXjNdHvzhu4xtjLsnNhxHsTx0cbv8wloqSuXhTsB2sN6xtdiuXCh0jiiGGLA1bYWcmc1MzcyzJJ05jgqbqVjuRb/esbXYf9xe7z4Vw/shFf5zgeKzFXIZgPQo/AN59t7K16bLorcCCv7wndqf/C6PUQEAAAAAAAAoFRT+AQAAAABAUYvOSC/0DPViiQMAgEy4xz8AAAAAAAAAACWEwv925emTZ3ih0FEUgXt66Ly3vk39V+WxNGnM0qfFdTWwIF9bk8YsTXroWV8IAAAAAAAAAJCMwv92ZbsgW0/dJjR8Tw/brmplE1rOvyz25dgldYUuqGz4sMYsTav/M/wxYUE+Z2S9tj75/HWyTs3Kfn73JsWPFF63jkyECh1Flvw6O+Jf36bBGR3pHpK1263762ogpGv9Q7J2D+msd30hAAC2iVzk1kLmZ3ImAAAAShSF/+0qMuN/0XlYvkhtcWX4cJqZ5/f0sC2xsL3i6YvMeG+KXD2wIF/baT3z/lrutqtaSSh0pymge/rkaTssj6VJv7+Q3Gbi8rG2PvmGM7W5IF9bZBa+/6o80fU8fZH9W43L4xzWcynjvvwxZXmisp7b6grNqisULuTXHDqQss7K8Bk9Vo/soVnZP5AenyyVH0i2kGa7brZbCh1FDvh1tn9GgXSr7Dso36hdtRM3ZO0eWv2f4Y8JIV0biazX79a1oEXHB5xydVZsUvwAgJKxabk1U67LIhdmK5Iz9wf9Ohsp4ofzodHK5EwAAABsDTzcd5urPtQoj2tB1h5pcbxRVVMmK3o8et7xubqm6rQyfFhfNR5Qme1V/Tx0QWVakK/tihZ7Lsg6dUnftH2t16dOSMOHtbjrorpCdVoZ7tNXHmmvzbj55zooe+i2yrSglb7ENqvjlmv4sNxPetQVOqBF52Et+k/IWp/cWp2qO+b0lUeqllRundeiXyq7I734frgAH4vL0yf3HanM9m7afSnTgv7PUGpcqRZMj+PKE2n3+wdUJkm2d7X7kytakcL/jfzwunUk2KrTSy4tHDqq45VSYOKGrlYe1blmk/U/W5aeLeuvDjbq3yfn9EjSns5j4SJH3PJHNY3qbV3W4K1lqWafXAMtqk1pMKRr/dOqG7Brf3BLqAsQAAAgAElEQVRGRy5LgwMtqvW6dVZ2nWsO6dqIS4MPlrVnX4WkvQp43eodiu9XutY/qVvPpFv90n9/Z1lDQ0lxxaltPypfe/jv8L6m/B9GgQmXBrVXrtF6yeuW4/KM3hxo2ejRBgBsB+vKrZKezemRKtTpPKpzsYXRPNmqhbhcl5pTQwm58FzVnP53ct8y6Ccuzxrm6sqXdOKUU+cqpcCEW73ekI4n5VVyJgBgO7n1HpezAVsZhf/tzmZT+SdTWnFIi1abTOryUn2D9Ldva+wjSc1/r31TkvxT+rLl13ouSerQPoPNnn8U2UZS+fl3JZvx7YXKO9rCBXCTNqPLV6TYbPqyXdKSX1JqHVNljoN67lrQ4pN5VR2SlvwLkhpUHVm3vDEcR5nNppo7WexLFvsqSfJc0WLHu+bHEUVhf0uFLnlDOt4ufTFdobcGzNd9pEa5RltUq5ACXXbVRooS99vt2h+3XBM35FjaK99ove6P3NAXwRYdr0xuzaI3W5d11Svtl7SzallfBKW6GanhULiY4KpyyDdqUcDrlmNGqm1u1eBoYr/HBw5qvj+kEwPhuKpGU+NKFTLd18CS1HuoPlz8aG5V72fTCkgGP1wAAGBsbbm1Qq5Rp2qDfp29PKPAO+HX74+4NP/OUR2XtD8h1yWzJOZC77KOJPftTe3nfwXnVvPshFtXvdK5ysR2ayslKaTA0rJ2tqReyUDOBABsF+Pu8YT//qf/8U8FigTAelH43/YOqMrq0VefStXvnzBda8U1qfLfzsoWV9Fe/HRS1TOzstXf08M243sElZ//PPwsAf+CVJ/5mQLZtJmV+tdU/uSKlnbZtNcmLTmv6Jtd78Z+PHg+tyDZ6rTi8eiZbKrK0G92cS3I94lknTLez7Jd0oNP76l66IDkuaLHapB9/XuIjWhu0M5+vwLNkquqQTfTrLqnNfLlPuhX74cP9EiS1KjLScsDkjpbwr8s1VZJd4OSUgr/Um1zo556Q7q/tKy3WqS7wZCkCr0ZWXdnpSWyXoM6Z8z7jcm0PMo7LVdra9p9BQBg3daTWytfUoPmFZD06NZ1narZJ9fJjfU939qq4yb9/DHSj/VWZHlna2quDvp19vJDNZw6mvSjAAAAALC1cI9/qPqQ9My3OhveSJnjoJ7/bfQe/+FnAVQfatRiS5PG2jySxrXkkaRX9aLC98VXz0VVPzkT3qblTOxZAuljMWpzPQ6oSuNS44FwTL5xKTrLv+eiqsff1pilSV/ekWpM+13dl7Js4orM9o/eAmhl+LA8wwuxf8t6Lmq3huW2NMn9ibR75AS3+SmYer1Vtayrd5blOJTmgx/n/p05OT52yjd6UJ01G+i60qKdS9O6W9Wg/c0N0sy05qvqYzMFnwbDDzcMeOd1K4t+s4srpGufSadN7sFcWyUN3vErICngndagKpi5CABYo+xz66PpcM5R0C9XJOfs6Tymy1Vz6l3XQ35X+25oXs11yf28EunHN+qU7+PU2+MpOKMjl0N669RRg6v2wsiZAAAA2CqY8b9d2S6szt63XVBXhnvTrM54V/hhu3fuSUMXZAtdiKwR/bdO1qlZWSP/ZR26LevQ2mJJbXN1eVnPbe1V6t9GqodmI0X4cEyrEmMMO5BxX1KW+yVdP62x6x3aF7qg6vj9iMQX/s/bsVv/JB6PBfna3tZjr1Tz2zQ7gk2xv0U69VmFXFnO5tvfUqFLHw5psKZRnZrTXa/ZLXUyqddbmtTdSrukkBqW5jTfEr72o7bdIUd/eCbinn2N6jTrt/klNWhSjn7J9Y7B8uR9SprtH5i4oV45NCiXeuXQzXaHekdccnRPSjWN6j3VEruKAQCAbGWbW/doTr3dD2L33q+VO7z9SYcW+l06W3lU5+JzneHtfhKXG/Wd3M/fNNdrfsQla/eypAr1fnw0dnWAJCm4rEfP5nTqwwfh7TuPxXIlORMAsN398u9+WegQAKwRhX8kuaeHltN6FvdK+fnPZTvUKE9Lkx5LUnOH9o0cyF3bPZlvAZTfNrNUf0K2kPntkTIz+gECm6rZvnrrgWa7fEYPHUyz/s3R6M2ZVv+NLq9tX304YfzfRvafdEZ+NLDo+IAzbkn4vxOKEKo36DdxvZTlQUkPJmV90KjLo3btj9+PSHzh/z4ae/34yaM6Hru9QkjX+q9r8JnUGR8eAADJ1ppbJanVoZsD8bPtV9s4PnA08pdRToyXuryztT7xB4KUfixJ+U4pOdM3mnwjRnImAAAAtiYK/0hyQHtDswYz6eNn4ue67WJrE9uPX2e7J3Ur7pU9nQa3ACh4m1mqbNHN0ZYNNJCp2AIAQCYmeXDN983PnE8DEzfkmK7Q5YF15FhyJgAAAEoUhX8gjx6//EbGdaw7XpB1xwv68886U5b99A+3DLbAxtXr3Kgz7Sz94mgTAICtwiwP2tf4oPnM+bS2/ah87UkvNq+1HwAAAKC0UPgH8sz3/bemy6w7Xki7XNZ2nf/rv8xJHB32jpJpA7nx5JVfpF/hlV/oV4PpV/mH3v/MXUAAsEHkKWyGjPlSypgzyZcAAADYbBT+AQAAUHIo2APA5iiWH1VLpY1iyVfFEgcAbAVbZcyk8A/k0e7/+FdNlb1mujz4w3cZ2xh3T2w4jg57h8bd4yXRBvKnw96hzt9k89RGACgeG8kz5CmsFzkTpa6QY2u02FIqbRQ6z+RiPwBgO9oK4yaFfyDP3lv52nTZ45ffkO/7bxX84Tu1P/ldHqMCAAAAAAAAUCp+UugAAAAAAAAAAABA7lD4R/55+uQZXsj/trlu339VHkuTxix9WlxXZwvytTVpzNKkh551NQAAAAAAAAAAKSj8I/9sF2TrqVvDBvf0sO2qVta1ba7FxSJJxy6pK3RB1XFF/LE2sx8CFuRzHo6t4/PXyTo1K/v53XmLHhl43ToyEcr/trluPzijI91Dsna7dX9dnYV0rX9I1u4hnfWuqwEAQCnJdY7L2J5fZ0f8uYvFcJtIH+RMAAAAlCgK/8i/yKz6Redh+SLf6VaGD5vMel+Qr+20nnl/LXfbVa1EZ+R7+uRpOxyecd/WJ99wtKAeLcrHF9njCvXJYrP2mwxm+icW6hf9SbHErbkyfEaLHZ+rKzSrrg8kn/NeSlcrw2f0WD2yh2Zl/0B6fDJNXCiMZrtutlvWsIFfZ/tnFFjXtrkWF4sk7Tso36hd++MKEtZ+s6JGSNdGbsTWuRa06PiAU67OirxFDwAoYgXPcRuUKf5ozgz6dTYuZ14LGq1MzgQAAMDWQOEfBVN9qFGLrgVJC1ocb1SVzWitOlmnLqmm+e9lnzqhsrglz3VQPw/Nyt4xp8dPetQVmtU+66QW/ZFC/K6L6grNyt4xr69MbqWz4pqUzocL9ilXEniuxNroGmmQ79N/M40loU1J8n2dUtRfeSLtfv+AyiSV2d7Vbs1T+C82kRmB90duxL7sByZumMzgC+la/6RuPXsgR/+MAtHZhF63jvTfCM8e7Hfr2kS0OBAtyscXDOIK9cliMxCHDGYpJhYd7geTYolbMzDhkqv1mHyjTvnekS4ZzKAMTLg0qL1yjTrlekcavJwmLgDA9rOm/CiDHBaXt6Iz66enI+tE21xd58jIQz2N61fJf8dkmVNj2xr0Ea/yJZ045ZRv1ClXq+Typl5ZQM4EAADAVkHhH4Vjs6l8fEor/iktWm2qXuPm5R1tseJ7zaEDkqSyXdI3kbrm84/e1pilSe6PxvV8zvi+/WU9PSoff1tjlsN6mDTjf2VuTuWNkR8D6l9TuUExP7WdJn35ydwa9wTFZn9LReTLfkhfTFforWajtSw6PnBQnTX75BpoUW3ckkdq1OCoU67WZQ0u7ZVv1KnLVXP6IhgpxFc5IkWFZV01KZoEvHNSZ7hgnzJL0Tsda8N3qkKX7vzJNJaENiVpKZRSoAgsSb2H6lUrqba5Vb1apogBAEiRXX40yGHeabkixfLw1WjSI1VocNQpn7NCrjv+hPw42FKhR1nEk21ONVrfuA+LaislKaTA0rJ2VqZeJUDOBAAAwFZB4R8FdEBV1nl99em8qt8/kPPWyyMz+btmPjd/LoD/Vb0+NauumYPS+FRCYb+ssXH1BwP/13pufc10lr8UaSc0q593SIr7USLW3i7p8af3tCJpxXNFj9WQpj0UVHODdk77FQj65apq0P41br6ntT5WfO9sqZck1VZJ85FZko9uXZe1e0iOW3N6GjS+T3Ft+17tnL4ua/cNnU2a4RgIxhUjKi3aaVDMT21nSL2fLa9xTwAAiJNlfkzOYYHgsna21Cf8MB3LlZWrt8iJ5rba5gZ1ZhlSNjk1XsY+gn6d7Xdp4dBRnTP5YQMAAADYCij8o6CqD0nPfA2qrk+31qt6Uan31U+nrOeiqp+cCd+fv+VM7FkCyVb8V/SlpUljLZPSB20qq2+QPoqsb3t3tY2T87K+f8A8Fs9UuB1Lk758clA/76nTyvBheYYXYv+W9VzUbg3LbWmS+xNp94j57YJQaPV6q2pZV+8sy3Eo7YdzXfZEZkH6Pj5mfs/h4Es6MeCU7+NGadqfUNivraxYLW4EQ3paZTGd5S9F2hl1arBVUmt9yrq1VdLgnXAfAe+0BlWRpj0AwPaVZX5MymFLkp7O+DPOjI/mtoB3XreiLy79SZJ0f8b4isqscmqmPmJxz+jI5ZDeOnVUxyuNtydnAgAAYKvYUegAsA3ZLshmW/27y/De/vHqZJ2alTW6iU2SVtso67mtvUr+u07WoduyDqVvucx2QbbQhbhXTsgWOrHab0obcbH4r0rXT2vseof2hS7EbRfRc1vhEKP/Kqm9Bfna3tZjr1Tz2wyHAHm3v0U69VmFXCZf/MNeUoMm5eiXXO9k125tu0OOEZes3cuSKtT7sXFxIRCcVu+Hc3qkCnU6HeFbDwy5dK35qI43t662UdOoy6daJIVWYzkV15DXr96hB3okac++fRo8aVFg4oZ65dCgXOqVQzfbHeodccnRPSnVNKr3VPh2Qdy6AACQLJv8mJzD/qa5XvPRPKNGXXamblPb7pCj/7qst6Q9+xrDs/GbW+X47Lqs3dKemgqpSuErBKL5MMucmraPeMFlPXo2p1MfPpAU/lEhmivJmQAAANhqKPyjiNzTQ8tpPYt7pfx8mtv0FLrt+hOpxf41SfxBA0Wg2a6bcX/7Ml7ib9HxAaeOR/4rvO1qG7XtR3Uu5W+Ljp88quMn07dc22zXzVF73CstujnastpvShtxsQRnpAeTsj5o1OVRe9x2Ee1HIzEejcWa2F5I1/qva/CZ1GlQnAEAbDNrzI+pOSw5z2j1NkGVLboZeT0+p8a2S3ktUz5MH39Ke0k505cU92quJGcCAABga6HwjyJyQHtDs7HZ+1unbZQ+v852TybcEmBPZ3a3FChI25UtqcX+NbEYFl8AAEi0mfkxT/GQMwEAAFCiKPwDefT45TcyrmPd8YKsO17Qn3+W+si5n/4h5W60yIt6nRt1xmbvb522AQDYTMWWw4otHgDxOuwdKX+Pu8cLFQ4AACWPwj+QZ77vvzVdZt3xQtrlsrbr/F//ZU7iiD/x3uptIDeevPKL9Cu88gv9ajD9Kv/Q+5+5CwgASgB5rvRkzJdSxpxJvgQAAMBmo/APAAAAbAKK/gCQ3kbGyWKZhLTRNoolVxRLHACwVWyFcZPCP5BHu//jXzVV9prp8uAP32VsY9w9seE4OuwdG76stljaQP502DvU+ZuMTzwGACQh120/5EwgO+sZH3Nxm6BiaqPQOYLbLgHA2hXD+J0NCv9Anr238rXpsscvvyHf998q+MN3an/yuzxGBQAAAAAAAKBUUPgHAAAAAACbKjozcqvMkgQAYKv7SaEDAAAAAAAAAAAAuUPhHwAAAAAAAACAEkLhHwAAAAAAAACAEkLhHwAAAAAAAACAEkLhHwAAAAAAAACAErKj0AEAALaOW+95Cx0CAABbAjkTAAAAhUThHwCQlXH3eMJ//9P/+KcCRQIAQHEjZwIAAKDQuNUPAAAAAAAAAAAlhMI/AAAAAAAAAAAlhFv9AADW5Zd/98tChwAAwJZAzgQAAEC+MeMfAAAAAAAAAIASwox/AAAAFI0Oe0fK38kPSgUAYCsj1wHA1rTVxm8K/wAAAAAAAAAA5En8jwibhcI/gILKx0AHAPmSizGtGNoohhhy1VapHQsA2CjGteJU6GNa6P4BYDvJ15hL4R9AwRTz5VAAsBa5usyzw96xoTY2Gkcx7IfRSfB62srFvhT6/QCAXCqGMR7mCnVMyVUAkL1cF+w3e+zl4b4AAAAAAAAAAJQQZvwDAACgaDDjEABQ6qK5jqsnAGBr2WrjNzP+AQAAAAAAAAAoIRT+AQAAAAAAAAAoIRT+AQAAAAAAAAAoIRT+AQAAAAAAAAAoIRT+AQAAAAAAAAAoIRT+AQAAAAAAAAAoIRT+AQAAAAAAAAAoIRT+AQAAAAAAAAAoIRT+AQAAAAAAAAAoIRT+AQAAAAAAAAAoIRT+AQAAAAAAAAAoITsKHQAAAABKQ4e9I+Xvcfd4ocIBAAAAgG2Lwj8AAAAAAMAWFP+jezG0AwDbRS7Gzc0eeyn8A1g3Tg4BIBHjYqpCH5ON9r8VTugBYC1KZVwrlv0o5LEohvcBAFC8KPwDWBdu3QAAq7itjblCHZNcvCcd9o4Nb7/RGAAgV3I1Jm10bNyoXI3vxdBGrpTKfgDAVrFVvifwcF8AAAAAAAAAAEoIM/4BAACQE9EZK4WeDQoAAAAA2x0z/gEAAAAAAAAAKCEU/gEAAAAAAAAAKCEU/gEAAAAAAAAAKCEU/gEAAAAAAAAAKCEU/gEAAAAAAAAAKCEU/gEAAAAAAAAAKCEU/gEAAAAAAAAAKCEU/gEAAAAAAAAAKCEU/gEAAAAAAAAAKCEU/gEAAAAAAAAAKCEU/gEAAAAAAAAAKCE7Ch0AAAAAAADAWnTYO0qmjWKIoRj2AwC2kmIYNzPFQOEf2KaKYYACgFJTLGPrRuMolv0oBhRTAJQaxiQAALa+bPI5hX9gGxp3jxc6BAAoKdGTrkKPrxuNo1j2o1hs9DhwPAEUk1IZk3IRfy6ORTEcz1LZDwDYajrsHUUzbqaLg3v8AwAAAAAAAABQQij8AwAAAAAAAABQQij8AwAAAAAAAABQQij8I/88ffIML+S/jay3WdCi87DGLH1aNNzmnh4670n+q/JYmsLrrS2SWD++tiaNWZr00LOuBgAAAAAAAAAgBQ/3Rf7ZLshm24yG7+lh29d6feqEyjbUzr9pyXdQ9lC4nep0sR67pK6hAwoX8d/WY68k7dbumduy1ievvCCf84weX38sNXdo98gFWadmVT18WF9tKF4AAAAAAAAAWMWMf+RfZBb9ovOwfP7wSyvDh81nvXv65Gnri8yuT15vQb62Pi1qQb6203rm/bXcbVe1Ytb3+JXEduJn9Hv65Bn+/Wo7CTP+F+RzHtaYpUke57CeJ7frn9Ki9ZK6QrPq+m2jFj+9l9L1yvAZPVaP7KFZ2T+QHp9MEycAAAAAAAAArBMz/lEw1Yca5XEtyNojLY43qmrKfN3napA9NKsy/z09PHlVKx+EX190ntE3H9yWVZKmLumbDDP+zdqJi0rW+HY8ffIpXLRf3HVRXaE6rXj65L6TtFl9m6w6ozHLaYVn/F9I6XvlibT7/QPh2GzvavcnV7QibfDqBAAAAABAoXTYOwodQk5iKIb9wNYz7h4vdAgA0mDGPwrHZlP5+JRW/FNatNpUnWbV8o62cIG8/lW9qHmtSHr+0dt64Duo19dw2yCjdrLetrFOklRms6kmeaHniny7LoZn/M8c1CKz+QEAAAAAAAAUCDP+UUAHVGX16KtPper3T6Rd8/n4lFZ6TqjMP6VFNejnmlf5+c9lfXJGXw63ydZTl1WPRu3oyb9JqtPinXFp17vm284tSLY6rXg8eiab9sYtW5mby9h32S7pwaf3VD10QPJc0WM1yJ5V1AAAAACAYlIMM52js/Q3Eksu2sD2wxUiwNbAjH8UVPUh6ZmvQdUpD8JNVK5JfWlp0ljLpMo/WL2VT/XQRVWPn4nc9/9Vvaj09/hPacf2rqp9pzVmaZLPt9u0/7Kei6oef1tjliZ9eUcpM/7jl4+1TKp65IQ0fFie4QWtRP4t67mo3RqW29Ik9yfS7pGNPoQYAAAAAAAAAFIx4x/5Z7sgm231765sbtXTcVG2qfhZ/attWKduR16rk3VqNny//0z9xhhtU6e9UwdStklZz/+1dP20xq53aF/oQuryntsKbxr9V7IO3ZZ1KLrCgnxtb+uxV6r5rVnQAAAAAAAAALA2FP5RRO7poeW0nsW9Un7+c9kac9ROlrcDylr9CdlC6W9RlF6GHyoAAAAAAAAAYB0o/KOIHNDe0GzCvfPDjGbqr6cdAAAAAAAAACh9FP6BPHr88hsZ17HueEHWHS/ozz/rTFn20z/c2oywAAAAAAAAAJSQv/jxxx9/LHQQwHbx+OU35Pv+W9Pl1h0vpF0uSef/+i9zHRYAoMSMu8fXtV2HvSPHkQAAgM223rwvreb+jbSB7YdzRmBr+EmhAwAAAAAAAAAAALnDjH8gz35T9tqGtm9/8rscRQIAyBVmyxWfYnhPiiEGAIhiTFrFsVjFsQCAteuwdxR83Mxm/OYe/0Cevbfytemy6K2Agj98R4EfAAAAAAAAwLpwqx8AAAAAAAAAAEoIhX8AAAAAAAAAAEoIhX8UjqdPnuGFwrexXv6r8liaNGbp0+K6GliQr61JY5YmPfTkODYAAAAAAAAA2xaFfxSO7YJsPXWb0PA9PWy7qpV1L1+DY5fUFbqgav89PYwU8cfa+uTzG628IJ/zcNw6dbJOzcp+fncuIgEAAAAAAAAASRT+UUiR2fqLzsOxQvnK8GHz2e+ePnna+iKz7JPXW5CvrU+LWpCv7bSeeX8tt2FxP3H5U6O+DfuJL9obtFv/ql4fmVVXaFb2DmnRlXoVwsrwGT1Wj+yhWdk/kB6fzNGPDwAAAAAAAAAQh8I/Cq76UGOkUL6gxfFGVdnM132uBv08NKuumR7pk9XC+aLzjL754IKqVSfr1CXVNP+97FMnVJbSQuLynSZ9J/fzx+EzWtx1MVLYn9dXKT9O1KmsXpIWtPJkTuWNqVcyrDyRdr9/QGWSymzvarfmKfwDAAAAAAAAyDkK/yg8m03l41Na8U9p0WpTdZpVyzvawsX8+lf1YqRw/vyjt/XAd1Cvp/nBIJu+v+l4N9Z3cj//X6SfMUuT3B+N6/mcwXMF/Pf0sO2MVt6/rb3riQUAAAAAAAAAcoDCP4rAAVVZ5/XVp/Oqfv9A2jWfj0+FZ8n7p7SoBpVJKj//ufZZJ/Xluh7yu9r3i47VWfrJ/fwfkX66QrPqmvk89dkE/qvynPxaVSO3Za037qlsl/T403takbTiuaLHkfgBAAAAAAAAIJco/KMoVB+SnvkaVG1SNI8q16S+tDRprGVS5R+s3sqneuiiqsfPRO7H/6pelNk9/lOXG/Wd3M8rPRdV/eRM+B7/LWdSH97rn9dz76/1oCX8gF/P8IJWhg8n/FvWc1G7NSy3pUnuT6TdI0a3IgIAAAAAAACAjdlR6ACwjdkuyGZb/bsrm9vjdFyUbSp+tv1qG9ap25HX6mSdmpXVtJHU5TXRW/uY9lMn69BtWYfiXvJLun5aY9c7tC90QV2hC0n93JYt4V8ltbEgX9vbeuyVan5rGiwAAAAAAAAArAmFfxShe3poOa1nca+Un/9ctsYctRN3m56V4cNyjzdq31Tqw3gzqj8hW+jE2reLyfQDBQAAAAAAAACsHYV/FKED2hua1d6U1+OuENhQO6vKem6rqyfpRdta+wEAAAAAAACA4kHhH8ijxy+/kXEd644XZN3xgv78s86UZT/9w63NCAsAAAAAAABACaHwD+SZ7/tvTZdZd7yQdrms7Tr/13+5CVEBAHKhw95R6BAAAECWyNurOBYAsDZbYdz8SaEDAAAAAAAAAAAAucOMfyCPdv/Hv2qq7DXT5cEfvsvYxrh7IpchAQByIDrbY9w9XuBIAABAJuTrVZzDAMDaddg7tsS4SeEfyLP3Vr42Xfb45Tfk+/5bBX/4Tu1PfpfHqAAAAAAAAACUCm71AwAAAAAAAABACaHwDwAAAAAAAABACaHwDwAAAAAAAABACaHwDwAAAAAAAABACaHwDwAAAAAAAABACaHwDwAAAAAAAABACaHwDwAAAAAAAABACaHwDwAAAAAAAABACaHwDwAAAAAAAABACaHwDwAAAAAAAABACaHwDwAAAADA/9/eHYTWXed7H/94CT66MOEsurnGUm2pMcJApWCF2ZQDJ51KFyETns2zE64UkmGgDJKFqy7KIAXRgHSgcLdDHM6ikGmOhGwGpgHxASGZtBhvKGeui2cREi84iJJncVKbtknaNCc5ya+vF8jA/3/+v/+3RTryzq+/AwBQEOEfAAAAAAAKIvwDAAAAAEBBujo9AAAAALA/BgcGOz0CB5B/LwB25jD8uWnHPwAAAAAAFMSOfwAAAChcfare6RE4gO7tWPXvB8CTGxwYPBR/btrxDwAAAAAABRH+AQAAAACgIMI/AAAAAAAURPgHAAAAAICCCP8AAAAAAFAQ4R8AAAAAAAoi/AMAAAAAQEGEfwAAAAAAKIjwDwAAAAAABRH+AQAAAACgIMI/AAAAAAAURPgHAAAAAICCCP8AAAAAAFCQ59bW1tY6PQTQMnfkVOZ/+iHf/fxj3r39RafHAeAJDQ4MdnoEAAAA+IUd/wAAAAAAUJCuTg8AAHDY1afqnR6BA+je3wTx7wcAB5X/rwLYucGBwUPx56Yd/wAAAAAAUBDhHwAAAAAACiL8AwAAAABAQYR/AAAAAAAoiPAPAAAAAAAFEf4BAAAAAKAgwj8AAAAAABRE+AcAAAAAgIII/wAAAAAAUBDhHwAAALyMuBoAABzOSURBVAAACiL8AwAAAABAQYR/AAAAAAAoiPAPAAAAAAAFEf4BAAAAAKAgXZ0eAAAAAIDOGRwY7PQIAIfKYfhz045/AAAAAAAoiB3/AAAAAM+g+lS90yMAHDqDA4OH4s9PO/4BAAAAAKAgwj8AAAAAABRE+AcAAAAAgIII/wAAAAAAUBDhHwAAAAAACiL8AwAAAABAQYR/AAAAAAAoiPAPAAAAAAAFEf4BAAAAAKAgwj8AAAAAABRE+AcAAAAAgIII/wAAAAAAUBDhHwAAAAAACiL8AwAAAABAQbo6PQAAAJRscGCw0yMAAABtdBj+G9+OfwAAAAAAKIgd/wAAsAfqU/VOjwAAALTZ4MDgofhvfTv+AQAAAACgIMI/AAAAAAAURPgHAAAAAICCCP8AAAAAAFAQ4R8AAAAAAAoi/AMAAAAAQEGEfwAAAAAAKIjwDwAAAAAABRH+AQAAAACgIMI/AAAAAAAURPgHAAAAAICCCP8AAAAAAFAQ4R8AAAAAAAoi/AMAAAAAQEGEfwAAAAAAKIjwDwAAAAAABRH+AQAAAACgIMI/AAAAAAAURPgHAAAAAICCCP88GxpjaYwvtX+9nay78bPtngcAAAAAYF1XpweAfVG7klptL9Zr87oAAAAAALtkxz/Phm132M9kttqXicr6P6Mzrc9Xh9Ko9GWiOpb58aHWver1rG5cb9t1lzI/uv5cZSzNrT5T3eoeAAAAAMDOCf/QaGRl8GaGlxcycPnNHL1wNkmykvM5s7yQgcE7mbs9kuHlhbzTP5nm4pOuey3NjGRgeSHDy1fSu8lHmqOX8v0Hm98DAAAAAHgawj8cP5F8eC4Tlb5M1c/n5fWje3oGq+le/8i9HwZ0v558/4Thf/XOnfRcOPvLGg9b+fBc/j5/Pm84KggAAAAAaCPhn2fe6l8n0/PnhQwvL2R4+r227r5fuTHTOhpoEz2Xb+ad/snc8iW/AAAAAEAbCf8887p/cz4r//veGf9DmW20ad2Rq+nNeKbunfF//ETy4aXMb/gbA72fXk1v/VLb3gkAAAAA8Nza2tpap4eATmqODmX1939J//G0vqz3Ri21T892ZJa5I6cy/9MP+e7nH/Pu7S86MgMAAAAAsLnBgcHUp+qdHuOxujo9AOyfmcxWLubuhis9l2+mduFkGqf7Mpckbw3mnT/tNPpvse7IsV1PDAAAAACwU8I/z5CzeXt5IW8/cv1KastX9mBdAAAAAID954x/AAAAAAAoiB3/sM/mjpza9n5/14vp73ox//rVbze9/8LXn+/FWAAAAABAIXy5L+yziUrfrp6//MrzbZoEAAAAACiR8A8d8En3a7t6/t3bX7RpEgAAAADgSQ0ODKY+Ve/0GI/lqB/ogN+tfrvp9bkjpzL/0w/57ucfxX0AAAAA4Kn4cl8AAAAAACiI8A8AAAAAAAUR/ilDYyyN8aX2r9fudQEAAAAA9pgv94U9MZPZ6rd5Y/q9dO/gKWf8AwAAAMDBdVi+3NeOf8qw7c78mcxW+zJRWf9ndKb1+epQGpW+TFTHMj8+1LpXvZ7Vjettt+6GNWb/83prrUpfGuN/y3z1Yu5+9VGm7q236bNj688MZX6xLb8LAAAAAADCP8+ARiMrgzczvLyQgctv5uiFs0mSlZzPmeWFDAzeydztkQwvL+Sd/sk0dxDh763xxv9MJpdb76iN/Dr905/l6Ft/yMA2O/5XciJnlhcy/OeTaX48s/tfJwAAAABAhH+eBcdPJB+ey0SlL1P183m51rrcM1j9Jcrf+2FA9+vJ9zsI//fW6B4ZSU/9XCYqQ5l9wu8E+OX9x088+QsBAAAAAB6jq9MDwF5b/etkev68kFptD1+y+GremF7I24vXM/sf01kdeW0PXwYAAAAAsDXhn+J1/+Z8Vk73ZSJJ8maO/vkvebvN71hdvJZbp+tZyZs5+uer6U7yUi5mqpptj/sBAAAAAGi359bW1tY6PQTspeboUFZ//5f0H0/rS3Vv1FL79Gynx9rU3JFTmf/ph3z384959/YXnR4HAAAAANhgcGAw9al6p8d4LDv+KchMZisXc3fDlZ7LN1O7cDKN032ZS5K3BvPOn3Ya/bdYd+TYHj8LAAAAALBzdvzDAWLHPwAAAAAcXIdlx/+/dXoAAAAAAACgfRz1A/ts7sipbe/3d72Y/q4X869f/XbT+y98/flejAUAAAAAFMJRP7DPJip9u3r+8ivPt2kSAAAAAKBEwj90wCfdr+3qeef/AwAAAMD+Oyxn/DvqBzrgd6vfbnrdl/sCAAAAALvly30BAAAAAKAgwj8AAAAAABRE+OfgaIylMb60d5/f0TNLaY4OZaIyluamz8xkdnRmZ+9+qjkAAAAAAHbGGf8cHLUrqdV2u8hMZqvf5o3p99K9q3X+K/+cP5+B5dY6vbueCwAAAABgf9jxz8Gx3S74xlga1bE0Kn2ZqAxltrHx5lLmq2NpZinz1Yu5+9VHmapez+pW76lfe3Cdje9tjKUx/rf76zyw438p86NDmaj0pTE6npUtll9t3Juzb8Ov5/6zE5WxNB+ZHQAAAACgPYR/Do2VnMiZ5YUMfzmS/PF+2G+OXsr3H1xJb46lf/qzHH3rDxnYZsf/Vuvc13t/neUr6V2/ujp+Kc3Xr2Z4eSFnLpzcMvx3195vrb98M731a62o37iWZkYysLyQ4Q1r3p8dAAAAAKA9hH8OjZ7BaivmH381L+WbrCZZ+fBc/j5/Pm/s4CiezdZ54mdPHkuSdNdqObrVhxanc6vSl4nKucx91bq0eudOei6cfeCHEU8zOwAAAADA4wj/HBor9elWpF+cTjMn0p2k5/LNvNM/mVs7+KLczdbJ7f9KkjRv1Ld/9k7rPauNRu5u8Znmx5Pp/XIhw8uf5ehbG569MfPADxmeZnYAAAAAgMcR/jk0ejLZ2kl/ejI9H9w/yqf306vprV9aP/f/1byU7c/4f2Sd2vvpnb+YiUpf5uff3PL93SNX01s/l4lKX27dyJY7/nsvnEzzdF8mqo0k9fyzsf5sxjP10Bn/D84OAAAAALB7z62tra11egh4rMZYGnfeT23kWKcn2VNzR05l/qcf8t3PP+bd2190ehwAAAAAYIPBgcHUp7Y/NeQg6Or0APCgmcxWLj5wjE7P5ZupnWzTOm39wcF+vAMAAAAAYGfs+IcDxI5/AAAAADi4DsuOf2f8AwAAAABAQRz1A/ts7sipbe/3d72Y/q4X869f/XbT+y98/flejAUAAAAAFMJRP7DPJip9u3r+8ivPt2kSAAAAAKBEwj90wCfdr+3qeef/AwAAAMD+Oyxn/DvqBzrgd6vfbnrdl/sCAAAAALvly30BAAAAAKAgwj8AAAAAABRE+AcAAAAAgIII/wAAAAAAUBDhHwAAAAAACiL8AwAAAABAQYR/AAAAAAAoiPAPAAAAAAAFEf4BAAAAAKAgwj8AAAAAABRE+AcAAAAAgIII/wAAAAAAUBDhHwAAAAAACiL8AwAAAABAQYR/AAAAAAAoiPAPAAAAAAAFEf4BAAAAAKAgwj8AAAAAABRE+Ofga4ylMb60d59/xExmR2d28TwAAAAAQOcI/xx8tSupjRzb5SIzma1ez+quh2nXOgAAAAAAe0P45+Dbbgd/YyyN6lgalb5MVIYy29h4cynz1bE0s5T56sXc/eqjTG0Z7ZcyPzqUiUpfGqPjWUmy2ri3bt/6+x9c578fub/FutWxNJNk8Xoa997fGGvN2hhLozqURqXvodkBAAAAAJ6O8M+ht5ITObO8kOEvR5I/3g/7zdFL+f6DK+nNsfRPf5ajb/0hA9PvpXuTNVbHL6X5+tUMLy/kzIWTWUnSXXu/te7yzfTWr6X50Dr//sj9zRxL7+Cd/LORZDHp6f8mzcWkeSN56fi9+c/nzPJC3q7twW8OAAAAAPDMEf459HoGq62Yf/zVvJRvsppk5cNz+fv8+byxg5jec7J1nFB3rZajSbI4nVuVvkxUzmXuq00eeNz9dd2/OZ+VO0tp3vgmL19Ivl9cympOpPf4Q/MDAAAAALSB8M+ht1Kfbu3yX5xOMyfSnaTn8s280z+ZWzv4kt+VO63PrjYauZuk+fFker9cyPDyZzn61qOff9z9Xxx/LT23r+Wfr9fSW6slN67l+9fFfgAAAABgbwj/HHo9mWztvD89mZ4P7h/l0/vp1fTWL62fnf9qXsrWZ/x3j1xNb/1cJip9uXUjOZqk98LJNE/3ZaLaSFJvHdezYZ3uTe9v5mxeTj05ebb1/Hw9ObnbLysGAAAAANjcc2tra2udHgKeWmMsjTvvpzZSRkifO3Iq8z/9kO9+/jHv3v6i0+MAAAAAABsMDgymPlXv9BiP1dXpAeDJzGS2cjF3N1zpuXwztZNtWqctPzjYy7UBAAAAAJ6MHf9wgNjxDwAAAAAH12HZ8e+MfwAAAAAAKIijfmCfzR05te39/q4X09/1Yv71q99uev+Frz/fi7EAAAAAgEI46gf22USlb1fPX37l+TZNAgAAAACUSPiHDvik+7VdPe/8fwAAAADYf4fljH9H/UAH/G71202v+3JfAAAAAGC3fLkvAAAAAAAURPgHAAAAAICCCP8cDI2xNMaX9u7zOzaT2dGZJ7j2lPZ8fgAAAADgWSX8czDUrqQ2cmyXi8xktno9q20ZCAAAAADgcBL+ORi22wHfGEujOpZGpS8TlaHMNjbeXMp8dSzNLGW+ejF3v/ooU1vF/8ZYGtWhNCp9+duVe+v1bXjvUuZHh1rXRsezstW1Des8OEvLamP7tScqY2k+Mj8AAAAAQHsI/xwKKzmRM8sLGf5yJPnj/bDfHL2U7z+4kt4cS//0Zzn61h8yMP1eurdc53zOLC/k12Pvt9Zbvpne+rU0k6yOX0rz9asZXl7ImQsns7LFtY3rvF179B3dtUfXTuNamhnJwPJChpevpPeR+QEAAAAA2kP451DoGay2Yv7xV/NSvslqkpUPz+Xv8+fzxibx/bHrLE7nVqUvE5Vzmftqw/2TreOGumu1HN3u2r11NrPJ2qt37qTnwtkHnnma+QEAAAAAHkf451BYqU+3dvkvTqeZE+lO0nP5Zt7pn8ytp/iS3ObHk+n9ciHDy5/l6Fsb3nOntdZqo5G721x7qrVvzDxwBNFu5gcAAAAA2Irwz6HQk8nWLvrTk+n54P5RPr2fXk1v/dL6Wfuv5qVsc8b/Br0XTqZ5ui8T1UaSev7ZSLpHrqa3fi4Tlb7cupEczebXHmfLtTOeqYfO+H9wfgAAAACA3XtubW1trdNDwLYaY2nceT+1kWOdnmTPzR05lfmffsh3P/+Yd29/0elxAAAAAIANBgcGU5+qd3qMx+rq9ABw30xmKxcfOE6n5/LN1E62aZ22/+Bgv94DAAAAAPDk7PiHA8SOfwAAAAA4uA7Ljn9n/AMAAAAAQEEc9QP7bO7IqW3v93e9mP6uF/OvX/120/svfP35XowFAAAAABTCUT+wzyYqfbt6/vIrz7dpEgAAAACgRMI/dMAn3a/t6nnn/wMAAADA/jssZ/w76gc64Her32563Zf7AgAAAAC75ct9AQAAAACgIMI/AAAAAAAURPgHAAAAAICCCP8AAAAAAFAQ4R8AAAAAAAoi/AMAAAAAQEGEfwAAAAAAKIjwDwAAAAAABRH+AQAAAACgIMI/AAAAAAAURPgHAAAAAICCCP8AAAAAAFAQ4R8AAAAAAAoi/AMAAAAAQEG6Oj0AAAAAAAAcFoMDg50e4bGEfwAAAAAAeAL1qXqnR3gijvoBAAAAAICCCP8AAAAAAFAQ4R8AAAAAAAoi/FO2xlga40vt+xwAAAAAwAH33Nra2lqnh4DOmMls9du8Mf1eug/IDHNHTmX+px/y3c8/5t3bX3RsKgAAAADg8LLjn7JtuZN/KfPVi7n71UeZql7P6r3PNcbSqA6lUenLRHUs8+NDmaj0ZaJ6Pav3nht96NqGZ2YbW8xw7/5/Xm+tXelLY/xvD86wh78NAAAAAMCzQ/jnGXUs/dOf5ehbf8jAQzv+V3I+Z5YXMjB4J3O3RzK8vJB3+ifTXExWxy+l+frVDC8vZGDwm/yj8eAzb9c2f9u9+2/8z2Ry+WaGlxdSG/n1ljMAAAAAADwt4R8e0jNY/SXCH71wNknS/Xry/WLr2sqH5zJR6cvUh/Ws3Fl65Jnt1uweGUlP/VwmKkOZ9Z0CAAAAAMAeEP5hh3rWd+wPf3kztZFjO3t48dW8Mb2Q4S/PJ/Vpx/sAAAAAAG0n/PMMezUvZWfn63ePXE3v7UutM/5PX8r84s7euLp4LbcqfZk4PZl8UE33U8wAAAAAALCd59bW1tY6PQTQMnfkVOZ/+iHf/fxj3r39RafHAQAAAAAOoa5ODwB7byazlYu5u+FKz+WnOKbnwLwHAAAAAGBrdvzDAWLHPwAAAACwW8I/7LO5I6d29fwLX3/epkkAAAAAgBIJ/7DPJip9u3r+8ivPt2kSAAAAAKBEwj90wCfdr+3qeccAAQAAAABbEf7hAHHGPwAAAACwW//W6QEAAAAAAID2Ef4BAAAAAKAgwj8AAAAAABRE+AcAAAAAgIII/wAAAAAAUBDhHwAAAAAACiL8AwAAAABAQYR/AAAAAAAoiPAPAAAAAAAFEf4BAAAAAKAgwj8AAAAAABRE+AcAAAAAgIII/wAAAAAAUBDhHwAAAAAACiL8AwAAAABAQYR/AAAAAAAoiPAPAAAAAAAFEf4BAAAAAKAgwj8AAAAAABRE+Kf9GmNpjC91eI2ZzI7OPN2ji9fTqPRlojKW5i4meLylzFf7MlHpy2xjT18EAAAAADxDhH/ar3YltZFje7DwTGar17O6H+v8n88yvHwlvUlWG9czW+27/4OIX34w0JeJ6voPBza79oilzI8O/fKZ+cVj6Z9eyMDlN3f9KwIAAAAAuEf4p/3Wd+s3R4cyv9i6tDo+tPWu9sZYGtWx9XD+8OeWMl8dSzNLma9ezN2vPsrUltH+flhvjI5nJclqY+yXIN8K9w+u89+P3H/YTP5xI3l5cPD+pePVnPlyIcPLCxkYvJN/Nra49pDV8UuZy0gGlhcy8EEy9x/t+CEGAAAAAMCDhH/2TO+Fk2n+tRXbm/WTebm29WdXciJnlhcy/OVI8sf7Qbw5einff3AlvTmW/unPcvStP2Rg+r10b7LG6vilNF+/muHlhZy5cDIrSbpr77fWXb6Z3vq1NB9a598fuf+ws3n70/fSe3LjtWPJX1s/YJiqn88bta2uPTTf7eTN359N9/pcb+Yb4R8AAAAAaDvhn71Tq6WnPp3Vxek0+2vp3eajPYPVVsw//mpeWg/iKx+ey9/nN4/oW65zsnXEUHetlqNJsjidW5W+TFTOZe6rTR543P0tdI/8pbW7/4Nvcmv9bwpsdg0AAAAAYL8J/+yhs3m5/5v84+Nv0vv7s9t+cqU+3dr9vjidZk6kO0nP5Zt5p39yRxF95U7rs6uNRu4maX48md4vFzK8/FmOvvXo5x93f1OLS2kuPsG1h3S/nsx9PJPVJKuNa5lb/3UCAAAAALST8M+e6r2Q3J0/kd7j23+uJ5OtnfenJ9Pzwf2jfHo/vZre+qX1c/9fzUvZ+oz/7pGr6a2fy0SlL7duJEezftzQ6b5MVBtJ6utn799fp3vT+4+xOJ35063vBZj6Y9I/cmzTa6vjQ2mML/3yv90jV/NmxjO1/pk3/7T5kUUAAAAAALvx3Nra2lqnh+AZ1xhL4877qY0c6/QkLYvX0zj9UVYymHeWr2x7RNHuLGW+2jpi6OifF/J2LZk7cirzP/2Q737+Me/e/mLP3gwAAAAAlKur0wPwLJnJbOVi7m640nP5Zmont3xgZ+u06wcHx99Lbfm99qy1rWPpn15I/z68CQAAAAB4dtjxDweIHf8AAAAAwG4J/7CP5o6c2tXzL3z9eZsmAQAAAABKJfzDPrq3o38r/V0vbns/SS6/8ny7xwIAAAAACvJvnR4AAAAAAABoHzv+YZ990v3arp539j8AAAAAsB3hHw4QX+4LAAAAAOyWo34AAAAAAKAgwj8AAAAAABRE+AcAAAAAgIII/wAAAAAAUBDhHwAAAAAACiL8AwAAAABAQYR/AAAAAAAoiPAPAAAAAAAFEf4BAAAAAKAgwj8AAAAAABRE+AcAAAAAgIII/wAAAAAAUBDhHwAAAAAACiL8AwAAAABAQYR/AAAAAAAoiPAPAAAAAAAFEf4BAAAAAKAgwj8AAAAAABRE+AcAAAAAgIII/wAAAAAAUBDhHwAAAAAACiL8AwAAAABAQYR/AAAAAAAoiPAPAAAAAAAFEf4BAAAAAKAgwj8AAAAAABRE+IcDqPq/ejo9AgAAAABwSD23tra21ukhgPvmjpzK/E8/5Luff8y7t7/o9DgAAAAAwCFjxz8cMG/+v/+bxK5/AAAAAODp2PEPB9C9Xf9J0t/1YoenAQAAAAAOE+EfDqi5I6eS5JcfAAAAAAAAPAnhHw6wT7pf6/QIAAAAAMAhI/zDITE7O9vpEQAAAACAQ8CX+wIAAAAAQEHs+AcAAAAAgILY8Q8AAAAAAAUR/gEAAAAAoCDCPwAAAAAAFET4BwAAAACAggj/AAAAAABQEOEfAAAAAAAKIvwDAAAAAEBBhH8AAAAAACiI8A8AAAAAAAUR/gEAAAAAoCDCPwAAAAAAFET4BwAAAACAggj/AAAAAABQEOEfAAAAAAAKIvwDAAAAAEBBhH8AAAAAACiI8A8AAAAAAAUR/gEAAAAAoCDCPwAAAAAAFET4BwAAAACAggj/AAAAAABQEOEfAAAAAAAKIvwDAAAAAEBBhH8AAAAAACiI8A8AAAAAAAUR/gEAAAAAoCDCPwAAAAAAFET4BwAAAACAggj/AAAAAABQEOEfAAAAAAAKIvwDAAAAAEBBhH8AAAAAACiI8A8AAAAAAAUR/gEAAAAAoCDCPwAAAAAAFET4BwAAAACAggj/AAAAAABQEOEfAAAAAAAKIvwDAAAAAEBBhH8AAAAAACiI8A8AAAAAAAUR/gEAAAAAoCDCPwAAAAAAFET4BwAAAACAggj/AAAAAABQEOEfAAAAAAAKIvwDAAAAAEBBhH8AAAAAACiI8A8AAAAAAAUR/gEAAAAAoCDCPwAAAAAAFET4BwAAAACAggj/AAAAAABQEOEfAAAAAAAKIvwDAAAAAEBBhH8AAAAAACiI8A8AAAAAAAUR/gEAAAAAoCDCPwAAAAAAFET4BwAAAACAggj/AAAAAABQEOEfAAAAAAAKIvwDAAAAAEBBhH8AAAAAACiI8A8AAAAAAAUR/gEAAAAAoCDCPwAAAAAAFET4BwAAAACAggj/AAAAAABQEOEfAAAAAAAKIvwDAAAAAEBBhH8AAAAAACiI8A8AAAAAAAUR/gEAAAAAoCDCPwAAAAAAFET4BwAAAACAggj/AAAAAABQEOEfAAAAAAAKIvwDAAAAAEBBhH8AAAAAACiI8A8AAAAAAAUR/gEAAAAAoCDCPwAAAAAAFET4BwAAAACAggj/AAAAAABQEOEfAAAAAAAKIvwDAAAAAEBBhH8AAAAAACiI8A8AAAAAAAUR/gEAAAAAoCDCPwAAAAAAFET4BwAAAACAggj/AAAAAABQEOEfAAAAAAAKIvwDAAAAAEBBhH8AAAAAACiI8A8AAAAAAAUR/gEAAAAAoCDCPwAAAAAAFET4BwAAAACAggj/AAAAAABQEOEfAAAAAAAKIvwDAAAAAEBBhH8AAAAAACiI8A8AAAAAAAUR/gEAAAAAoCDCPwAAAAAAFET4BwAAAACAggj/AAAAAABQkK6VlZVdLbC4uNimUQAAAAAAaKfjx493egQ64P8DB17A0SZ4ZKIAAAAASUVORK5CYII=;movable=0;resizable=0;rotatable=0;deletable=0;editable=0;locked=1;connectable=0;" parent="1" vertex="1">
          <mxGeometry x="-270" y="585" width="2222.07" height="1295" as="geometry" />
        </mxCell>
        <mxCell id="BK12QYTPV-eWoDnU58BK-2" value="" style="shape=image;verticalLabelPosition=bottom;labelBackgroundColor=default;verticalAlign=top;aspect=fixed;imageAspect=0;image=data:image/png,iVBORw0KGgoAAAANSUhEUgAAA64AAAOACAYAAAA6oC40AAAgAElEQVR4nOzdf2xd530n6E8GBnZnsZuU5i6wtALTHlFKhkGjXYKg4BYrI7YTlhZcgygTlLaghDDqkdEwLTBoh3VcEVJjh7NBsZ0whVVlDGYEjdSdcKDxCNItYzuJhZ31mCDurBZbTkKRY9Mb+i4woJlmF0gQJMj+wd8iL39IlHhIPg8QmLr3Pe/7Pee8Ifnhe865H/rxj3/8qwAAAEBB3fNv/s2/2e4aAAAAoKoP/epXv7LiCgAAQGH9ve0uAAAAANYiuAIAAFBogisAAACFJrgCAABQaIIrAAAAhSa4AgAAUGiCKwAAAIUmuAIAAFBogisAAACFJrgCAABQaIIrAAAAhSa4AgAAUGiCKwAAAIUmuAIAAFBogisAAACFJrgCAABQaIIrAAAAhSa4AgAAUGiCKwAAAIUmuAIAAFBogisAAACFJrgCAABQaIIrAAAAhSa4AgAAUGiCKwAAAIUmuAIAAFBogisAAACFJrgCAABQaIIrAAAAhSa4AgAAUGiCKwAAAIUmuAIAAFBogisAAACFJrgCAABQaIIrAAAAhSa4AgAAUGiCKwAAAIUmuAIAAFBogisAAACFJrgCAABQaIIrAAAAhSa4AgAAUGiCKwAAAIUmuAIAAFBogisAAACFJrgCAABQaIIrAAAAhSa4AgAAUGiCKwAAAIUmuAIAAFBogisAAACFJrgCAABQaIIrAAAAhSa4AgAAUGiCKwAAAIUmuAIAAFBogisAAACFJrgCAABQaIIrAAAAhSa4AgAAUGiCKwAAAIUmuAIAAFBogisAAACFJrgCAABQaIIrAAAAhSa4AgAAUGiCKwAAAIUmuAIAAFBogisAAACFJrgCAABQaIIrAAAAhSa4AgAAUGiCKwAAAIUmuAIAAFBogisAAACFJrgCAABQaIIrAAAAhSa4AgAAUGiCKwAAAIUmuAIAAFBogisAAACFJrgCAABQaIIrAAAAhSa4AgAAUGiCKwAAAIUmuAIAAFBogisAAACFJrgCAABQaIIrAAAAhSa4AgAAUGiCKwAAAIUmuAIAAFBogisAAACFJrgCAABQaIIrAAAAhSa4AgAAUGiCKwAAAIUmuAIAAFBogisAAACFJrgCAABQaIIrAAAAhSa4AgAAUGiCKwAAAIUmuAIAAFBogisAAACFJrgCAABQaIIrAAAAhSa4AgAAUGiCKwAAAIUmuAIAAFBogisAAACFJrgCAABQaIIrAAAAhSa4AgAAUGiCKwAAAIUmuAIAAFBogisAAACFJrgCAABQaIIrAAAAhSa4AgAAUGiCKwAAAIUmuAIAAFBogisAAACFJrgCAABQaIIrAAAAhSa4AgAAUGiCKwAAAIUmuAIAAFBogisAAACFJrgCAABQaIIrAAAAhSa4AgAAUGiCKwAAAIUmuAIAAFBogisAAACFJrgCAABQaIIrAAAAhSa4AgAAUGiCKwAAAIUmuAIAAFBogisAAACFJrgCAABQaIIrAAAAhSa4AgAAUGiCKwAAAIUmuAIAAFBogisAAACFJrgCAABQaIIrAAAAhSa4AgAAUGiCKwAAAIUmuAIAAFBogisAAACFJrgCAABQaIIrAAAAhSa4AgAAUGiCKwAAAIUmuAIAAFBogisAAACFJrgCAABQaIIrAAAAhSa4AgAAUGiCKwAAAIUmuAIAAFBogisAAACFJrgCAABQaIIrAAAAhSa4AgAAUGiCKwAAAIUmuAIAAFBogisAAACFJrgCAABQaIIrAAAAhSa4AgAAUGiCKwAAAIUmuAIAAFBogisAAACFJrgCAABQaIIrAAAAhSa4AgAAUGiCKwAAAIUmuAIAAFBogisAAACFJrgCAABQaIIrAAAAhSa4AgAAUGiCKwAAAIUmuAIAAFBogisAAACFJrgCAABQaIIrAAAAhSa4AgAAUGiCKwAAAIUmuAIAAFBogisAAACFJrgCAABQaB/6v/7b/+FX210EAADAVvnEf/4P210CW+ye0V/8dLtrAAAA2Dr/3f8ovO4y91R++fPtrgEAAGBLPPpffCSjv/hpRms+nsZ7/r4Au0t8aPz9cZcKAwAAu8aVj316IcAKr7uDhzMBAAC7ytEfvpb/8v8cXPj31z/8D7axGraC4AoAAOxKjff8/Ximz+4guAIAAFBogisAALDrvf3229tdArdBcAUAAPYE4XXnElwBAAAoNMEVAACAQhNcAQAAKDTBFQAAgEITXAEAACi0e9pb27e7hh3l0tCl7S4BAABgT7lHENs4IR8AAODuc6kwAAAAhSa4AgAAUGiCKwAAAIUmuAIAAFBogisAAACFJrgCAABQaIIrAAAAhSa4AgAAUGiCKwAAAIUmuAIAAFBogisAAACFJrgCAABQaIIrAAAAhSa4AgAAUGiCKwAAAIV2T3tr+3bXsKM4XgB716WhS9tdAgDsSff4Ibxx7a3tfmkB2KP84RIAto9LhQEAACg0wRUAAIBCE1wBAAAoNMEVAACAQhNcAQAAKDTBFQAAgEITXAEAACg0wRUAAIBCE1wBAAAoNMEVAACAQhNcAQAAKDTBFQAAgEITXAEAACg0wRUAAIBCE1wBAAAoNMEVAACAQhNcAQAAKDTBFQAAgEITXAEAACg0wRUAAIBCE1wBAAAoNMEVAACAQhNcAQAAKDTBFQAAgEITXAEAACg0wRUAAIBCE1wBAAAoNMEVAACAQhNcAQAAKDTBFQAAgEITXAEAACg0wRUAAIBCE1wBAAAoNMEVAACAQhNcAQAAKDTBFQAAgEITXAEAACg0wRUAAIBCE1wBAAAoNMEVAACAQhNcAQAAKDTBFQAAgEITXAEAACg0wRUAAIBCE1wBAAAoNMEVAACAQhNcAQAAKDTBFQAAgEK7p721fbtr2FEcL4Cd69LQpe0uAQC4Bff4Ib5x7a3tfukB2KH84REAdi6XCgMAAFBogisAAACFJrgCAABQaIIrAAAAhSa4AgAAUGiCKwAAAIUmuAIAAFBogisAAACFJrgCAABQaIIrxfbOt/K53/5WJre7jrvpdvd5I9vvxOO6E2u+XUWfC3vxnAAA20JwZYtM5lu//bl8653trmOztqLunbrvd8pOPR7mwqY9+IX8q3/7hdRvesM9dpwAgNsmuLK6d76Vz/32C3nhjz+Xhvsa0vDbL+TNubcmv/tCPndfQxrua8jn/vjNzP4S+mi+MlLOV36zIZ/75mTe/OOGvPDdufbf/Fwa/vjNJf3OrtAs72du1WZ+3N9uSMN9i2MurWnZa6uo3u/iytDkNz+Xz33zf19R94r9vm/JL9cb7aOqN/Ot325Y6PeF706uqLdhof/xfHNDx36+lvnXP5cXXh6/6ZjdXPPKGlft97svzNZjLpgL1Szts+o8uXlfN3OcAABmCa5UN/LXyW99LePvj+eNJ8byl3O/zP/RXzTka++PZ/z9N/L7+cu88N36fOHfvpEXmpvywr8bz7/6vfo8cKApYxOzv5C+eyNp+sFrs7/EvjOe8scfTP0738ofHUt+/9+NZ/z98XztwNU8Ov9L8shfJ3/4Rsbf/0oenq/lnW/lc38wnt//Z0teW81a/a6wb0XdK/b7/MF85Q/WuhSySh+r+e5rufrxVzL+/njG3/9afu+R+oV6H5+r941/9qnZ1asNH/u5fe6d3+ev5dP565TXOkarHbPV+n3kKxmfX00zF/b2XNio1Wpdsa+/sfHjBAAwR3CluuYXZn+hTlK//2DKN97N5OtXUx75Sh69ryEN9z2aZ86XF0LJUvWPPZ5c/l4m82Zey+/n958YyzvvJJMTY/nd33o4k69fTU79Xh5+cLF90/m5QLNk3CTJyFfy6G9+JQf/8CsL7atZs99b2e9HPp3fHbma723FJY0PNiTnn8nn/vhbefOdpH5JvV+Yr/fB+pU1rHPsl+9zfR5+7oU0baKsDZ1Tc8Fc2IhVal1tXwEANktwZdOaTr0xt3oy+79VV0we/FQez3je/e5ryYEH8vD+g7n6+pv53uWD+fQjmxyw+YW8cf5389fH1r809M44mAfXCUkb8uAX8q/efyO/fyB57Q8eXbhEsnzj3Q13saFjfwtutV9z4RbtwrlQVZV9BQDYDMGVTal/7PGk95tL7vVb/kvo+MJqVH0e/PhY/vIvkobH6pNHPp2DN17L+Mc/nYeX9PPmXPvJ16+mfOzT1S/9fOQreePUWJ5Z5567NfsdGc+77yR55818s3f5BZTjS1fRRr6Sby7cc/ha/rq5IQ8svLfBPlbzzpt58536PPx7X8jvPfG7Kd94d2EVcP54Tr5T/Zf6asd++T5P5s2Xv7L88tA1al6r3/WYC+bChqyyr/PWPU4AAHMEVzbnwS/ka+eTq78597CVP/je3MpXfT71hwczdmzxYSsP/9bBlEcyt0L1QBp+8NcZO/DAsn7+cq6fP7rxeN74n9e8YzH1v/e1vPCDZ9a+565avw9+IV87NZZnfrMhDb/5l8mx+QsoV9ad5t9N/uaP0nBfQx79i+SFfzZ3n+dm+ljNO+8s1PXo5eSF5x5ecTwf/YPvVb+Hstqxf/AL+dqp+X3+o7yW3128PLRazQ8+mIP5Sv7om5PV+51/ONNm6zEXdt9cuB2r7etGjxMAwJwPjb8//qvtLmKnaG9tz6WhS9tdBnfSO9/K5/4g+dotfcQHu4q5sOvc7vdwPwMAdp6ffbIjo7/4aSq//HkOv3YxSXL48OFtropbYcWVHejNvDD/kSFL/leMlZsi17YbFfl4F7m2zdgt+wEA7GRWXDfBX9sBdi4rrgB7jxXX3cOKKwAAAIUmuAIAAFBo92x3AcDd0d7avt0lbBmXawIA7C2CK+whHV9vWr9RwQ1+aeXnjwIAsLsJrrAH3Wr42w3BFwCAnUdwhT1qsyHUSicAANtFcAUWzIfToq+s/st/8S8Xvn76809vYyUAANwNnioMAABAoQmuAAAAFJrgCgAAQKG5xxX2sGoPXLr59aLf8woAwO5mxRUAAIBCu6e9tf2uDHRp6NJdGQfYuJtXUnfKU4UBANhb7rkbgfJuhWMAAAB2H5cKAwAAUGiCKwAAAIXmqcLAAve2AgBQRIIr7FHVPgoHAACKRnCFIioPpbPSkotHazbXdoPbWVkFAGAnEVyhiJpac3G7awAAgILwcCYoovJQOq/MVHlzJufOXkhjV38au4ZyrVqb3mrvAQDAzmLFFXaa8nBKOZzSwP7UJ0l5KC/f1OTa2VLGn3wqx7ehPAAA2GpWXGGHmaxM50DzXGhdxfXB8zkxdTDPuI0VAIBdQnCFHejGyEQmq7x3qONYzuwbS0/VS40BAGBnEVxhh6k/2pa2vJ22+Xtc62qTwVLOVRbbHHm2LW3DpZz0iTcAAOwC7nGFIlrzqcI1Of7sUzn+7OIrRwaaZ7+oW9zu+Kmn7lx9AABwFwmuUFgTOdl1NYNLXjnUcWxjn+0KAAC7iOAKhbU/pwe6c3q7ywAAgG12T3tr+4YaXhq6dIdLAQAAgJV2zIrrRgP2nVaUOmA1P7zvkepv3vdIXuxbv48v9/x46woCAIAtcM96K6lFCmrbverb3tq+7TXArWpvbU/H1324KwAAO4+PwwEAAKDQBFcAAAAKTXAFAACg0ARXdr/yUDqvzNy59pvaZibXzl5IY9dQrq26zUROnp3Y3Ni3VAcAAOwcO+apwnDLmlpz8bY7mcjJ3pk8c6o59bfVzwd5fepgSgOz/Ry57boAAGD3s+LK7rfWKmR5KJ29Q+ns6k9j14WcLC99cybneodyLTM513s1g++9lbbekUxWG2d4eHk/S8ctD6XzyruL/SxbcZ3JubMX0tjVn86zb+dGle4ny/N19i/Zn8VtG7uGcm1F7QAAsPMJrux511ObvoHujL50OHl1MZheO1vK+JOtOZKaHD/1eDrufyilNVZcq/Wz6COL/Qy0Lqy2Tl4ppbSvLaMD3elrrs31Kv3XN7XM9j9wLG3Dw7OhtDycUg6nNNCd0SV9LtYOAAA7n0uF2fMOteyfDaN196Yh45lMcn3wfE7c/1BKz95ePxt1oK4mSVLf1JCOkSqNKhPpef6tuWB7MGeSTFamc6C5dVmYvpXaAQCgyKy4suddH56YDZmViZRSm/okhzqO5cy+sfRs4kFHq/WTqQ+SJNdGxtbc9kZldpzJ8ngGq7S5dnksbS91Z3Tg8XTcv2TbkYllIflWagcAgCITXNnzDmUsPV39aXx+LAeeXLwU+MizbWkbLs3d93pvGrL2Pa4r+mlqSdvU1TR29eflqdqq49cfbUvb8Pk0dvWnZyTpqNLuSHNtSs/3p7F3PMlYXi/PbZu303bTPa7LawcAgJ3NpcLsfus9VbilLRdP1Sx5YbH98VNPzX1Vk+OnunN8rTGabn5xtW1qcvrUyrrW7HvpGAOtCzUujPHsUzm+5LLg+ftaF2sHAICdTXBlj5jIya6ryy7DPdRxLBfrtqifozVVt9i8uzEGAADsHIIre8T+nB7ozukVr2/2M16r9bOV7sYYAACwc7jHFQAAgEKz4roDtbe2b3cJFNQP73uk+pv3PZIX+9bv48s9P966ggAAYAsIrjvUpaFL210CO0x7a3s6vr7iCVIAAFB4LhUGAACg0ARXAAAACk1wBQAAoNAEVwAAAApNcGVvKg+l88rMdlex3Ko1TeTk2YltKWfPuJW5sOFtZnLt7IU0dg3lmvMLAHDLPFWYvampNRe3u4abFbGmPWsiJ3tn8syp5tTfVj8f5PWpgykNzPZzZGuKAwDYc6y4sjetuWI2k3NnL6Sxqz+dZy+k8+zE8vYLXy+2a+wdyeTN/a7Vbs2alo7/dm5Uq7F3KNeSpDKSziXjnyzP9dV7IZ1d/bP/3vWWHuOhXKtUaVYeSmfvUDq7+tPYdeGmYzN/TGdyrvdqBt97K21rna/h4eX9rDj37y72s2zF1fkFANgswRVuMnmllNK+towOdKevuTbXN9Cu1DKdV6oEiI2229z4NXm4ZTqvl5NUkgP7pvNmJbk2kjTUzba4noPpG+jO6b3w0a3l4YVjNnqiNi9frn757fXUpm+gO6MvHU5eXQym186WMv5ka46kJsdPPZ6O+x9KaY0V12r9LPrIYj8DrQurrc4vAMDmuVQYVnGgriZJUt/UkI6R6u2uD55P4+Ds14c6WpK6DbZLzW2PX990MDfKM7k2NZ3HmpPXKzNJavNwXZJKcqhl/21e5rpzTFamF45Z6mpyYGomk8mq+79wXOruTUPGM5nZ83Pi/odSenbjY67Wz0Y5vwAAm2PFFVZxozJ7yedkeTyD8y9OfZAkuTYyttDuUMex2VW+l47l4tGazbXb7Pg3q6vJganhvL6vIUeaGpKR4Yzv25thpr6uduGYpTKTG/tqqq+UDk/MhszKREqpTX1mz8+ZfWPp2cRDmlbrZ7VzvxrnFwBgcwRXuEn90ba0DZ9PY1d/ekamcyhJmlrSNnU1jV39eXmqdrHdVGn2vsrnSzlX2US7DY+fdFRtuT+PZSyp25/k3jRMjSV164fiXampZfEYn5nOc0/sr9r0UMbS09WfxufHcuDJxUuBjzzblrbh0tw9o/emIWvf47qin1XO/WqcXwCAzfvQ+Pvjv1qrQXtre5Lk0tClWx6kvbX9trbfqj5uVxFqKFIde8NETp5NTj9bPQjtFO2t7en4+s6/IXLwS+V0PLUY957+/NMb37g8lM5Ky4ZWvdl9bvd7p++9ADvPzz7ZkdFf/DSVX/48h1+b/fyGw4cPb3NV3Ar3uLKHTeRk19Vll2oe6tjYpbx3d9ztqnMnq3LMqtyDvOl+tvTYO78AAOsRXNnD9uf0QHdOr9dmEw/s2bpxb6c91Y/ZZj8r924ce+cXAGA97nEFAACg0Ky4btL8Pb/brSh1UBw/vO+RtRvc90he7Fu/ny/3/HhrCrpFL/b92toN7nskL37/g8X23+9f0eRj7393q8til7jd75276Xuv+3UB2EkE100oyg95DwjhVuyUhzOtF5w39nCm7i2uit3Aw5kW7aYADsDe4FJhAAAACk1wBQAAoNAEVwAAAApNcAUAAKDQBFeKqTyUziszm9xoIifPTtyRcrZG0evj7jMnAAA2QnClmJpac/FozXZXcRdN5GTvSCa3uwwAACggH4dDMZWH0llpWT28lofS+ep08t50DnQfS8NIKX1vTefQQ7VJDlfpcCbnzi5vd7F5fHGMhfGy0C73P5TSqebUL61lrXYbHHeyPJSe/rFcT3Ko49hsX71XM/heMtib/PMnp9O/7P3VAvxMzvUO54FTrTlSGUnnmaRvrtaTac3pLD1G3Tld/E/BuU0zS87HwZw50ZojdWu3u6vz4JbmLAAA8wRXdqTrOZjSQHNy5UJ69rVldKAmk+WhtI2s3n7ySimlzba7MpRXysnpjbZbJRyuNm59U0v6BlpTPxc+rx1tzfFTj2e8dybPnGpOfWay76b3j6zouSYPt0znlXJyJMmBfdN5s5I8MJI0PJGksniMVg/Uu0x5eOE4pzKSzssTOfLs/hXNtmseJJufswAALBJc2ZEOtexPfZLJJAfqZlck65sa0rFGCNhou+uD59M4ODdOR0uy6srdKu2y+qXNK8atTKTn+bdyPUlyMGdu3mC99+fUNx3MjfJMrk1N57Hm5PXKTJLaPFyXpLJ4jPaCycr0wnFOXU0OTM1kMll1/7drHtzKnAUAYJZ7XNnxblRmH+I0WR7P4GbbTX2QJLk2MrbQ7lDHsYwOdGf0pSWX6W603QbGvXZ5LG0vdWd04PF03L+y/XrvL6iryYGp4by+ryFHmhqSkeGM79s7YXWp+rraheOcykxu7Kupehy2ax6sWwMAAFUJruxo9Ufb0jZ8Po1d/ekZSTo21G46h5KkqSVtU1fT2NWfl6dqF9tNldLY1Z/G50s5V9lEuw3Wd6S5NqXn+9PYO55kLK+Xk+TeNOSttPWOpH7V91ezP49lLKnbP7v91FhSt5ceaLVEU8vi+TgzneeeWHmZcLJ986B6DdXnLAAAiz40/v74r9Zq0N7aniS5NHTplgdpb22/re23qo/dwrG4XRM5eTY5vco9kLtZe2t7Or6+85/SNPilcjqeWox7T3/+6VvsaW/Og73sdr937qbvvbtpXwDW8rNPdmT0Fz9N5Zc/z+HXLiZJDh/2YMSdyD2uFNhETnZdXXYpZfWn7N7ONlvhTo67Xfu0k+3GeQAAsHcJrhTY/pwe6F71aa63t83+nH72duq61XGL2PdutRvnAQDA3uUeVwAAAArtrq24zt8ru9197BaOBTf74X2PrN3gvkfyYt/6/Xy558dbU9AterHv19ZucN8jefH7Hyy2/37/iiYfe/+7W10Wu4TvnQCwM92V4LoVD4DwIIlFjgW3Yqc8nGm94LyxhzN1b3FV7Aa+dwLAzuVSYQAAAApNcAUAAKDQBFcAAAAKTXCF7VAeSueVme2ugpute14mcvLsxC1uu9Ft1hgDAGCPElxhOzS15uLRmlvYcCIne0cyueUFsS1ueR4AAOwtd+3jcIAlykPprLSsHlrKQ+l8dTp5bzoHjj2UG+ffyvUkhzqeSNvw1Qy+lwz2JqVTzalfddsk743lemrT89JTOV5353dn+83k3NlS+t6aTu4/mDMnWnNktf2ujKTz+fnjeSwXj2ZxuxzMme4kw8PpHFx6/Bb7PvRQbZLDy8/f/Nd11ep5aPVzlSzpJyvHWG0fe4fzwKnWHKmMpPNM0neqOfXloZxMa05nybzp7s7p4j9AGgBgwwRXKKDrOZjSQHNy5UJ6Oo5ldD7gHn08470zeaZaEEpyPbUpDXSnvjyUzssTOf7s/rtW97YpD6e0ry2jAzWz4fTyRI6sst+T5bFk6fEsD6WUwykN7J89nuWhnLjp+D287+2FvifLQ2kbWb+cySulxW2uDOWVctYMksvaVx2jJg+3TOeVcnIkyYF903mzkjwwkjQ8kaSyOG+qzQ0AgJ3KpcJQQIdaZoNU/dHDOTB8Po1dF3Jyg/dPzm+buto7WWKhTFamc6BuLozW1eTA1Myql1PffDwnK9M50Lx/WdBb7fjN913f1JCObMz1wfNp7OpP2+BYblTWP3cbGaO+6WBuVGZybWQ6jzUn45WZvJvaPFx3U+0AALuM4ApFVrk3z5zqzuhLB5PhCfe2VlFfV7sYDiszubGvZvUAd9PxnEpyY2T94zrf92R5PIPzL059kCS5NjK26jaHOo5ldKA7oy8d29B9rKuOcbO6mhyYGs7r+xpypKkhGRnO+D5hFQDY/QRXKLDJynB6uvrT+PxY8uT+1OfeNOSttHlA03JNLWmbKqWxqz+NZ6bz3BOrXx598/H8jaNtacvbaevqT2PXUK6tsk390ba0Dc+unvaMZHY1tKklbVNX09jVn5en5lZm62qTwVLOVea2ma/n+dnX1rLqGKvan8cyltTtT3JvGqbGkjoPdwIAdr8Pjb8//qu1GrS3tidJLg1duisFrVXHdtdQFI4Ft6K9tT0dX9/5T+wZ/FI5HU8tRrunP//0NlbDTuJ75yLHAtgrfvbJjoz+4qep/PLnOfzaxSTJ4cOrPQSRovNwJtg2EznZdXXZZaGzT7rdyAra7Wy7FxTt+Gy2nqLVDwCwvQRX2Db7c3qgO6fv+rZ7QdGOz2brKVr9AADbyz2uAAAAFJrgCgAAQKF96Nd//dfXfDgTsHP88L5HbruPL/f8eAsquXUv9v3abffxsfe/uwWVsBt5INEsD2cC9goPZ9o97lnvB5enChePY8Gt2ClPFV4vOG/sqcLdW1wVAADbyaXCAAAAFJrgCgAAQKEJrgAAADvdxCv5Ts3H8+2aP8mPbqmDdzP66Mfz7ZqP5+3vbHFtW0Bw5c4pD6Xzysx2V7E5Rai5MpLOrv40dg3l2i11MJNzvf1p7OrPyfIW18bdYx4AwB7zvbz96Cv5yS2/n+TYy/nszFfz0SQ/+c4refvRj+c733i3SuN3Mx0X+4EAACAASURBVNr9O/l2zcfz7Uf/JKMTD6TxjR+k9c8+cRv7cOcIrtw5Ta25eLTmDnQ8kZO9I5nc9j7u4HgPPZ7RgdbUX7mQxq7+xf+dnVil8UzOnZ1r1zuUc5WaHD/VnVJH7RbWz+atd843MCfm5sGRJJPlkZzs7V/jDyvmAQBs3PLQ9qOJ5Efdv5PRuV+1fvKN31lj1XHltournfNBcUmbaiugy7b53zL66HN5r/y1DD36St7/zp+s7G/J+z9ZVsNqYfZ7+Y+Xk33t7VWPwE++8Y/zt/liWmd+kNZ/kvzts+uE4m12z3YXwC5WHkpnpSXPTZXy7hNP5XhdMnnlQl6peyqnV3247URO9l7N4Htz/3zo8ZSax9PTP5brSQ51HMvFo8m5uTaDvUnp1P68ebaUvremk/sfSulUc+pXLWYm5+bb5YF89v53F/t4cjo9r04n703nwOMHk/+q+i5dO3thlX1Z0vdCDWuMt6zmgzlzojVHKkPpnK/h2EML49UffSqjR2e/nh1v/4qaJq+U0pfDKQ3sT8pDaTszkodPNW/gBO0mS8/B7DHN5dXO1ca2PZKRdD7/1vJ5t3A+D+bMXJhcprJ0myfSNrw4T//5k9Ppv615PJFXRpLHWg7mRpUjYB4AwCZ856/yo4/9eT4788BsgPyL7+UzTxzMd0rvpvGLyY8uHcy+Nza+7Yc/djX5s7/JZ7/4wFybP8mP8sW0znwqH67SzU9KN23zxZfz/z76n/IP33gmH867+a9nvpoP592MPvpX+dEXv5rGNxbfzzd+Z6GGn3zjT/Ifv5McXvZr4qdyuP9TyXf+JKNjVcb/YfKJP5yr7zP/KJ/4p3+VnyRV691ugit33JHm2rxcnsnxo8mbw7V57FSVhuXx3Gg5ltFTNQshrb7p3vQNtM4Gwd7hXDvamuOnHs9470yeOdWcXLmQ0r62jA7UZPLKUF4pZ/VwUh5Oae6X+tlAMJFfzfVRXx7K9RxMaWD2687K5vZl8kppZQ1Ze7z59qmMpPPyRI40Z7GGykg6VyyszlQ9dpNTSc8Tc+M0taTn1eFMJlUC/C5VHl5xTC9ueN6t3LZ+31jScSyj81cMlIduOp8rTZZv2ubo4jytz0z2bXYe1y3tfX9OPztbx8tV5qd5AAAb95OxsXzk4Fxg3P8P8pHR/5Sf9H8mH/mnb+QnbcmPGj+Tz2xi2/R/MR959Lfy7T/9RO7/sz/PP8xYPvLEV9cMgR/+4vJtDn9xyZsTb+TfN38tf5ckac9Dq2z/d3/6W/n2n85+/ZE/+0fJyvWNXcWlwtx5TQ05MDyRycpESvsaVq5UzaurTQbPp7GrP23DB/NYU5LKRHq6+tPYdT59762+2fX5bQbHcqOy+mWUk5XpHGiuHjoOtVR/byP7cnMNa403WZnOgbq5cFNXkwNTM5lcr4bycEotLdWP3R636jHd4LxbbdscPZwDw+fT2HUhJ6+sfT7n1d+0zTJbNI8BgK3x4YMH83djc/d+Tvyn/F3jP8iH86nsaxzPf/yL8Xz0Dz+1uW0nHsw/fOMH+ezI48mlN/L/Jfm7y99b+9Lbm7ZZ2vZHf3E1Hx35QT4783LuX/WKseQjf/Y3+ezMD/LZkb/JZ+ZXbTfhwx9L/vYvZmv8yXf+Kn+bhsKutiaCK3fF/jy2bzqvXJ5O2xPV/xQ0WR7Lge7ujA50Z/RUc44kuXZ5LG0vdWd04PF03L/6doc6js1u89KxNe+pvTEysQX3tK6+L6vVUG28+rraxWBSmcmNfTXrhOaZnHs1ea7KvtXvS/ouz441WR5OX2r33Crb6sd0Y/Nu1W0r9+aZU90ZfelgMjyRqWxg/ty0zdK2WzmPq+6HeQAAG/eZf5SP/vAfz94j+ux4GueC6kefSN4bbchH11q9XGXbn0z8Vf59zcfz7earyT95NPd98c/z0XwjQ2vc43rzNh/Og/lvMnsP64efOJgfNX883370O0kuZeo7SZa8ny/++WINzf944d7ctfzkG7+T73zj3YX/fviLf55PzNU49E+TT5x9ptDB1aXC3BVHmpMTr9amVFe9TX3Twdx4vj+NSZLadHQ/ldPNtXn5+f703X8wHRnL6+XWHGm6Nw25mrbepHSqLW1nS2nsmk5Sm56XZu9pXNH30dl2bV1XM3uPYstiH08uaVhXm/SXcq5p9X5W25f5vpfVsNZ4p1oW299/MGdONCeV8eoHZm619eLcPyevXEhP2tKXUnrSlotH29IzP9b9B9NzYvb+yLv34KkCaFrlmGZj8261bScrQ+l5fizXU5uO7rb8RtP+jC87nyvvcZ2sDC/bpj5ZMsduYR6vs8vmAQDcjgfS2P+v09h/08uf+Wo+W+0a4bW23f/VfGbmq8tardr/Eh/+zCrbvPGDud+Fs+S9+f8+sOz9Ff1PJDn/XL59vj0PzT1ZOJ/5aj4ztz8f/uK/nrv8+V8vXAa9vI93M/rob+Vvy8n9/2v1urfLh8bfH//VWg3aW2efRHVp6NJdKWitOra7hqLYrcdi6YOPUh5K50hDLj67yy/WX83CQ36qPARoXTM51zt7SWpHd/fCPb/tre3p+HqVa012kMEvldPxVMfCv5/+/NPbWM0ddIfmASS79+cIwM1+9smOjP7ip6n88uc5/NrsMsDhw4c3uPX38nbNc1l6l89H/uxWLsvdqn72NiuubIOJnOy6msElrxzqODb7MJ3n+9OXzK183UpordL3pi+93Kp+bkFdcy4O3M7TYGc/BmW9Fbu9Z4fNDfMAALbZp3J45gfZaMy98/3sbYVfcZ0ff6m9/ldifynnVlhxBeb5OQLsFj/7ZMf6jdbxif/8H7agEu60PRVcV+sLdosf3vfIbffx5Z4fb0Elt+fFvl+77T4+9v53t6ASAGAn+NP/++e33cdnZ36wBZVwJ92z0TC300PfTq8fAABgr7pnvdXLIq643o7dcGmUS7y4FTvlUuH1Vn03dqlw9xZXBbuLnyPAbnLlY5/e7hK4CzycCQAA2LGO/vC1qu/d3lOFKZLCB9f5vwj76zAAAMDe9Pe2uwAAAABYi+AKAABAoQmu7B7loXRembn7fWx4m5lcO3shjV1DubbqNhM5eXYiqYyks6t/tt3mKlkY51xvfxq7+nOyfEsdYB4AABRK4e9xhQ1ras3FO9LxRE72zuSZU82pv61+PsjrUwdTGpjt58haTR96PKPP7s9s+DifvveSpDY9Lz2V43U3N57JubOl9L01ndx/MD0nWnP8VHcevnIhr9xWvSxnHgAAbBcrruwec6tX185eyLnK7EuTVy5UX20qD6Wzd2huVevmdjM51zuUa5nJud6rGXzvrbT1jmSy2tjDw8v7WbqSVh5K55V3F/tZttI2k3NnL6Sxqz+dZ9/OjZv7rUyktO/xjA50Z7S7NqXLEyuGnrxSSl8OpzTQndKTSd+ZNerctRaPY2PvUK5VYh7syXkAAOxWgiu7zpHm2pTKs2HgzeHaPLbGR5deT236Broz+tLh5NXFX/SvnS1l/MnWHElNjp96PB33P5TSGitt1fpZ9JHFfgZaF1bZJq+UUtrXltGB7vQ11+b6zZvV7c9zeXs2kPVPp+2J/St6npxKep7Yn/ok9U0t6cn03gss5eGF4zh6ojYvX54wD/biPAAAdi3Bld2nqSEHhicyWZlIaV/DmpdiHmqZ/UU/dfemYe4X/euD53Ni6mCeWSPobKSfjTpQV5MkqW9qSMfNb5aH8/J8IHvpYEpW0VY1WZleOI6pq8mBqZlMmgcAALuG4MoutD+P7ZvOK5dXX5la6vrwxGwAqEyklNrUJznUcSxn9o2lZxMP51mtn0x9kCS5NjK25rY3KrPjTJbHM3jTe5OV6XXHrt+X9F2eHX+yPJy++fH3kPq62oXjmMpMbuyrSb15sOfmAQCwewmu7EpHmpPBqdo8vOIBNssdylh6uvrT+PxYDjy5eAnokWfb0jZcmrvf8d40ZO17G1f009SStqmraezqz8tTtVXHrz/alrbh82ns6k/PSFastC19v/H5sbSdaE6uXEjnlZlMzv23/mhbevJ22rr60/Zq0nPidh8etAM1taRtqjR7nM5M57m5oGoeAADsDh8af3/8V2s1aG9tT5JcGrp0Vwpaq47bqaEo+7EVbvdYMKc8lM5KSy4erdnuSparjKTz+bdyPQdzZsl9kBu3+ATaju7unJ671LW9tT0dX9/Eda8FNfilcjqeWox2T3/+6dvrcI/NA0j8HAH2jp99siOjv/hpKr/8eQ6/Nvv5E4cPH97mqrgVPg6HPWAiJ7uuLrv88lDHsVxcZxVuw/1sdeCpa87Fgebb6KAmx0915/iWFbRbmAcAADuV4MoesD+nB7pzesXrm/3c12r9sDOYBwAAO9WHfv3Xf33NS4WBneGH9z1y2318uefHW1DJ7Xmx79duu4+Pvf/dLagE7owiXKLrUmFgr3Cp8O7h4UwAAAAU2j3r/cW1KA818nCmRf5Szq3YKQ9nWm/Vd2MPZ+re4qrg9s3/HAIANs+KKwAAAIUmuAIAAFBogisAAACFJrgCAABQaIIrd195KJ1XZra/j62y4Vpmcu3shTR2DeXaqttM5OTZiaQyks6u/tl2t1TQTM719qexqz8ny7fUAYUzNzfWe83cAQB2KcGVu6+pNReP1tyBjidysnckk4Xt94O8PnUwpYHWHFnvGDz0eEYHWnNkSZBo7LqQc5XVGs/k3NkLs216h3KuUpPjp7pT6qi97YrZgcwdAGAXume7C2APKg+ls9KS56ZKefeJp3K8Lpm8ciGv1D2V06t9Wkt5KJ2vJnlvLNdTm47up3J64c2ZnOsdzgOnWvJu79UMvpcM9ialU82pX6efnpeeyvG6mZw7W0rfW9PJ/Q+ldKo5WahlIid738+9+T/W7jdJhofTObi0vtl9vHi0Zm5/P5a24bn6uqZzpjt5udKSi0ezMP6hh2qT3PSB2JWJlPY9ntFT+2f7uTyR48/uX9Zk8kopfTmc0sBsm7YzI3n4VPNmz8oOt/Q8HsyZE63J5Qsbm19Ltp0/Bxebx286f8vP1fxcqS/ffJ6rtFtt2PJQOl+dTt6bzn//+MH8P1fHcj3JoY5jc3/UWFnXqq8t6efAsYcW+zd3AIBdxIor2+ZIc21K5ZkkM3lzuDaPrfERo9dTm76B7oy+dDh5dXH189rZUsafbM2R1OT4qcfTsVZQWNpPd21KlycyeaWU0r62jA50p9QynVfKSf3RtjS8OpRzZ99Ow4n/KX+4mX5vqm/RRxbrG2jNkblXl47f11yb6zdvVrc/z+Xt2RWx/um0PbH/5haZnEp6ntif+iT1TS3pyfQdWHUuuPLwwnEcPVGbly9PbHh+rXsOVmk3P1dup12SXM/B9A1053/5bMvs/Bk4lrbh4VyrUle1Wuf7Od24pHNzBwDYRay4sn2aGnKgdyKTTUlpX0MurtH0UMvsL9epuzcNGc9kkuuD53Pi/odSenbjQy72s3gp5PXB82kcnHu/oyVJTY4/mTS+ejClus32u1jfRh2om71kuL6pIR0jN71ZHs7L+9oyOlAze//i3IpYtQC9V01WpheOY+pqcmBqJpPPbnx+rXkOllgxV6rMj9Xm1GoW5k1lIj3PvzUXRA/mzBp1rfbaQj9LmTsAwC5ixZVttD+P7ZvOK5dXXw1a6vrwxGwYrEyklNrUZ/aSyjP7xtJzmw9pOtRxbHal7qX5SzQncvLV2pxpGVtztWy9+jL1QZLk2sjYmtveqMzWP1kez+BN701Wptcdu35f0nd5dvzJ8nD65sffQ+rraheOYyozubGvJvWbmF+rnoNVzt/KubKJdmu4dnksbS91Z3Tg8XTcv3Zda82XpcwdAGA3EVzZVkeak8Gp2jy8zsrmoYylp6s/jc+P5cCTi6tGR55tS9twae4JqPemIW+lbRMPUqo/2pa2qdLs5ZTPl3Kuklw7+3YaTjTnyNHDyatDubaBflfU19SStqmraezqz8tT1R90U3+0LW3D59PY1Z+ekaRjjfcbnx9L24nZe3A7r8xkcu6/9Ufb0pO309bVn7ZXk54Te3BVrall8Tyemc5zc0F1I/Nr+TmYzqGF/pafv9XmyobbreNIc21Kz/ensXc8yVheL68+N9abL9X2y9wBAHa6D42/P/6rtRq0t7YnSS4NXborBa1Vx+3UUJT92Aq3eyx2nKUPwNkLKiPpfP6tXM/BnFlyP+zGzeRc7/n0vZd0dHcvPJCovbU9HV9f40biHWLwS+V0PLUY2Z7+/NNb2PtETp5NTj+79gptYd2hucPWKNLPoT33cwTYs372yY6M/uKnqfzy5zn82uyNQ4cPH15nK4rIPa4UyEROdl1ddvnjoY5jubjB+0zX7ee2g++d6vcmdc25OHA7T3ad/UiT41tW0G5xl87fdo5r7gAAu5TgSoHsz+mB7iUfdTOvdc0H62y8n9t1p/rl7tjI+duf05t42NfWjQsAwFrumb90aT0bbXcnbXcN2z3+UkWqhWL44X2PrN3gvkfyYt/aTb7c8+OtK+gWvdj3a2s3uO+RvPj9Dxbbf79/RZOPvf/drS4LkhTjMl8A2Is8nGmDBEUAAIDtcc96fz0uysMkivIgiSLUUJRjwc6yUx7OtN6q78YeztS9xVWx1/njJQBsLyuuAAAAFJrgCgAAQKEJrgAAABSa4Mr2Kw+l88rMdldRHJWRdHb1p7FrKNduqYOZnOvtT2NXf06Wt7i2vWjd+TmRk2cnbnHbjW4zN4a5AQDsUT7Hle3XtNnPad3pJnKydybPnGpOfbUmDz2e0Wf3Z/LKhTQOTq94fbmZnDtbSt9b08n9B9NzojXHT3Xn4SsX8sod2gPuoPX+/zA/ByoTOXnmagbfy+J5r7u5sbkBAOwOVlzZfnMrTNfOXsi5yuxLk1curLEiNJNzZy+ksas/nWcvpPPsxPJVqoWvF9s19o5kctl767RbZ9xl/fVemF0F6x3KuSurvT80t0p2ISfLMznXezWD772Vtt6RDK6zz/VHn8roQHdGB7pT6qhNR/PNoTWZvFJKXw6nNNCd0pNJ35m19mG3WnpuhnKtko3Pp4VVzP6V82F+ZXN4eOEczva5dA6+nRtJlblVrcY1ztEq83JhjKXq7s0zJ+bmRktSKq9c2TU3AIDdQnClMI4018798j2TN4dr81iVT26ZvFJKaV9bRge609dcm+tV+lvartQynVeqBJfbbXc9B9M391rf1OGMDnTnzL6xvFmZf782fQPdGX3pcPLqRB4+9Xg67n8opVPN6djgPq/1/uRU0vPE/tQnqW9qSU+m9144KQ8vnJvRE7V5+fLExudTeSzpOJbRge5cPFoz29dc2BsdaM2RLDmH3bUpXZ7Y8BxcNs4G59lq7Vcfoyb1dUkyk8mp6Ryoq1nZh7kBAOwSLhWmOJoacqB3IpNNSWlfw5qXS87/kl7f1JCOkertrg+eT+Pg7NeHOlqSFZdSVmmXlSGgWn+HWmaDwWSysCJavy95fS64zr+funvTkPFMLu17yT6Pt7TkeLUdKQ+n1NKyxy6p3rjJypLgVleTA1MzmXx2Y/Op/ujhHOg9n8bB2nR0tOWZTOdAc+uyy7gXz2HtwmsbnYNLbXSebXiMykROnnk7DSeeyukqcxsAYDew4kqB7M9j+6bzyuXptD2x8pLYpW5UZi+LnCyPZ3D+xakPkiTXRsYW2h2aW0kbfenY7GraZtqtYqPtlro+PDG7ylWZSCm1N93XurjPDU3V+pvJuVeT56qMV78v6bs8O8ZkeTh9K8bY/errahfmRCozubGvJvUbnU+Ve/PMqe6MvnQwGZ7IVJIbIxPrrkxudA4utdn5s+oYC3WPpPPMTB478dQq97bOMjcAgN1CcKVQjjQng1O1eXiN1aP6o21pGz6fxq7+9IxM51CSNLWkbepqGrv68/JU7WK7qdLsPYXPl2bvTdxou2rjbqDdzQ5lLD1d/Wl8fiwHnmxOfe5NQ2bvcZ3cyD7PrbYemfvn5JUL6bwys/Df+qNt6cnbaevqT9urSc+JNR76tFs1tSyemzPTeW4uqG5kPk1WhhfOT57cn9842pa2ueNZ7em9y+dg0rFQw/K5lbraZHB2rmx2/qw6xlKV6Vx/762ceH7x/lxzAwDYrT40/v74r9Zq0N7aniS5NHTprhS0Vh3bWUNRjkOy/ceiWCZy8mxyesWTdguiPJTOSsvaq2vloZystOT0fJvKSDqffyvXczBn5u6x3JyZnOs9n773ko7u7pyeu7ezvbU9HV+vehPtjjH4pXI6nlqMcU9//ultrOYuu0Nzg/Vtxc8AP0cA7r6ffbIjo7/4aSq//HkOvzZ749Dhw4e3uSpuhXtcKbCJnOy6uuwSyUMdG79EdyeMO3nlQtqGa3Pm1JK+65pzcaD5NnqtyfFT3dXvl92ztms+bWE95gYAsEcJrhTY/pwe6M7p9do8ux3jbtA6n8lZf/SpjB7dioFY3xae1y1RtHoAAIrrnvlLl9az0XZ3khoWFaUOiuOH9z2ydoP7HsmLfWs3+XLPj7euoFv0Yt+vrd3gvkfy4vc/WGz//f4VTT72/ne3uix2CZfHAsDO5OFMAAAAFNo96/31uSgPk9juB0kU5Tgk238s2Jl2ysOZ1lv13djDmbq3uCp2OlepAMDOZsUVAACAQhNcAQAAKDTBFQAAgEITXAEAACg0wZXdpTyUzisz213F+latcyInz04klZF0dvWnsWso126p85mc6+1PY1d/TpZvv1QAANhu92x3AbClmlpzcbtr2Ij16nzo8Yw+uz+pTOTkmasZfC/J/QfTc6I1x+tubjyTc2dL6XtrerHNqe48fOVCXrljOwAAAHePFVd2l7mVzGtnL+RcZfalySsX1lh5nMm5sxfS2NWfzrMX0nl2Yvlq6MLXi+0ae0cyuey9ddqtUefy8d/OjZvb1d2bZ050Z3SgO6WWpFReuZo8eaWUvhxOaaA7pSeTvjNrjAsAADuQ4MqudKS5di7kzeTN4do8VuXjSyevlFLa15bRge70NdfmepX+lrYrtUznlSpBeKPtNj5+TerrkmQmk1PTOVBXs7KPqaTnif2pT1Lf1JKeTAuuAADsKi4VZndqasiB3olMNiWlfQ1rXpY7HwbrmxrSMVK93fXB82kcnP36UEdLsuKS3SrtsjJsbmr8ykROnnk7DSeeyukqYwIAwG4muLJL7c9j+4byyuWk7YnmNVveqMwkqclkeTyDacjpJJn6IElNro2MJftakiSHOo7l4tGapDKT1NUk5Q22W8eq48+rjKTzTPLciaf+f/buP6bN897//7Nn0aRK38Jc/vlSUCCFOMxRm48QgmVHSpXS2jVZViFMzyGNsiG0NNGJ+6kU7TR0DSjp2tBvFalnMCVhn4h+opzk7ECEehA4dks5QedzUhDylD/qEsdOIYP4K03MhX6lVdGqff+w+W0bAzbY5vWQpoT7vu739b7vi0Hfua7rNvuiFK0FeXCsx89zR4vAPUwLOThW7FVEREREJH2ocJWMta8Mjn2cgyPGLGXBASvW5tAM6Z69OeyhGErLsX58FVM97NmeA3nhdu0OTPVTQA6n3jvEkXjbxd2/EdvSBoEp7jzwcuyt20CoKG7BwSmsc39eP2DlVLsDa31f+OVMZRSAlguLiIiISMZQ4SqZZeHbeksteKLsbZ1n4MgZO0eA0MfRLD0278jRQxw5Gu3aWO1i57ksRmAEbvdhum3kYocFT4dlycWHwtcemo+xqM8gV5qv0vIAbPYV8hARERERSQMqXGWL8NNU30fXgiNzS3pTrd/cMq53xF7eHFvkglpEREREJF2pcJUtooizHfbF+0cjtVlppjQp/YqIiIiISCzbqi3VcTWMt10ypUIO65Woe8iEZyGJdfep52M3eOp53m2J3eRXp75OXEIiIiIiIgmiz3HdQCo2RUREREREVm9bt7M7ZoPZYmuldslWbane9BwSZb33kUnPQjZOtaUa229WfFuViIiIiEjK0YyriIiIiIiIpDQVriIiIiIiIpLSVLiKiIiIiIhISlPhKiIiIiIiIilNhatsLLeTut5gAgL5aWr3JyBOsqwjv8AIdfWtmOqdDK4pQJArza2Y6ltpcq8tBRERERGRVKLCVTZWqYXrBwybncUm89PUPMJ4rCZ7q/B0WNi3oAg11V/jSiBS4yBX2q+F2jQ7uRIwcOSMHYctJznpi4iIiIhsMBWusrHCM66D7fNF2Hjvtegzg24ndc3XqKtvpck9X6DVtQ9xL2onC9tdo67dv3imd+7vCwu+cCEZb7sV+w3lN+52hmdPW+djNffR9eA21uYR/nvZ+SUCfhx5VXg67HjsOTh6ls/ijvc6aKECR4cdx8vQcnGFolhEREREJM2ocJVNsa8sB4c7VMjdGs7hhRgfL3oHIy0ddhoCDhx5VjwddlrKcrgTpf147+rbOcqnuByleF5Lu9l+C0rLaemw4+k4jHV4mEEMHDlThW37XhxnyvjxsvNL5BZxnKFQ0dw6hfVg0fJ+J+HUwSIKwv2dYkqFq4iIiIhklG2bnYBsUaXF7Gz2M14Kjrxirsdouqc8VJSNAztzQ8uMC0qLsY1Evybedne6rmLqCvdjK4fcONsRebnzsn4Dfk69dTtcPBu5uPSClc67h7mQZ8XTYQjtfb04wnNnyiiIfksiIiIiIhlHM66ySYp4IW+Kyz2RZxGjuRcILacdd/voWm27yT8DMDjinWu3x3Y4tAz3vcPze2/jbRdHv4M9Xqzv2fF0VGHbvrz9SufHA1Mx7jKkIA9aevyMA+PuYVrIUWErIiIiIhlFhatsmn1l0DWZw3NRZjmXKjhgxTp8FVN9K6dGwBZXuyn2AJSWY53sw1TfyoXJnPl2k47QMty3HKE9t/G2izO/fWU5ON5qxdTsA7x86gZ4kmJCe1wLIp6PHNP0lhfrsTLovUZdb5Dx8J8FB6ycE1UYFgAAIABJREFUYghrfSvWj+HUMc3IioiIiEhm0VJh2VillvllwaUWPDH2ti5rT+htuUdW7GRhOz9N7dGvPXL0EEeORrs2VruV+p1VxPUOS/jvlojtlp0PALf7MN02crHDsjzmgUPhZ3Jo7tkszi/IleartDwAm32lnEVEREREUp8KV0kRfprq+xYt/91ji70sd23XJEKS+80t43pH2ToCxFvgi4iIiIikBxWukiKKONth52zCryni7Iozpau1llxFRERERGSt4i5cqy3VycwjbXJIhETcR6Y8C0mcu089H7vBU8/zbkvsJr869XXiEhIRERERSRDNuIqIiKSRRP3Dpf4BVERSRbeze7NTkDSwYuGaKt9I1ZbqlMllrWb/I2G995EJz0I2XrWlGttvVnobloikA/0eEZFMoX9Ek3jp43BEREREREQkpalwFRERERERkZSmwlVERERERERSmgpXERERERGRLWeAIfvA2i71X8ZlKKHT0MjEmgKM4aksodNQwpArvitUuIqIiIiIiCTcAEOVl5nZ7DTWJI7cD1+gNniOrLYaOg0l8/+LWAyP4bGH21U24vEXYuofxfLO7rgzUuEqIiIiIiJbzOJCasIPE/YaPP7Q2Zm2mhgzgQMMVS4u1GZcjeEZyBJcbWOh+JXHeeD+AGflZWYW9RejIHQ14qqswWUo4b/OLY25+HxnZSOettXFHHLN5+GytzENK+b+cNn5xbJO3KA2OEptMFSIbj+4f1mbmbaTfMEJLMFRLG/CF0dXX9Drc1xFtpCu192bnYKIiIjI5nNdYmLXeWqDhaFlrx8OYD5oxOUYw3QCJrqN5PVHu9bFdPVNavsLmWmr4UvjfrLMO/hR8BxZjOGpvMTEiXOY+i/wTeV9ftjfAG01c/3NtDXypQsqzJHDT1OFJXiDLMaYaVwcM3/BedpqcN49QW1wPxP2Gib8DZiKYsekrYbPZ/NwNeLsgSzzazFzz2KM/yu4PI/lxqI+t5m7sPuN/WQBmF9j9/uXmIHQ13FS4SqyRSz9zMZ//d//ukmZiIiIiGyuGa+XbGNh6Iuip8n23Gem1Uz2+/3MWGHCZCZKXQlFxfAPL9F5Gij9JXv7AX8/n5d9wDQA1eyNcNn06fA1QPY7r4G5MGL47OrKUEEXJebs+RmYm93M2gWTfiBK4brwmtn7zjKb2d4TR+5x3BsQ+seA6teiP7d10lJhERERERHZUrKMRqa94WWv/vtMm54mi/3kmXx8+aGP/DeWL3edNePoI/v3oaWxtf0N5AMTH/aRPzJKbfAC20sjX5f9zs3QNSM3MZ+IXLQuFE/MtZi97xmXiwdx9BNfHmN43gdTlPvK2gVffDjADDDjusQXFK9qthVUuIqIiIiIyFZjfo38uydD+0OP+jCFC9X8g/DAU0x+lJlLgCxrFdP/MLvHNbQXNv+gkYmyEjorXUA3ky6AHTxBaJ8oJ87P91d2cm4vbSyRY65P1onz5He/RKehhM97YHvUfuZzz4onj/Bs6+wS4pm2GlxtY3N/Zp04z27acBpKcL4Pu9sbVl24PuZ76Pvb2m9941RbqpctdUw31ZZqYPmSzbXESfdnISKykdb78zcRP79T6XeAfo+ISKpI9s+jb5+14fnrXwh894iKT64DUFFRsa6YE/YaZt64EdpP6mrE1WPG3Bp9hjYj+S/jKvuAaarZG4y25zWWMTyVL/GFG7b/fjTqft+FtMdVRERERERkmQGGDMd5sOBI9js3Qy9xKivhC4DSava2r6VojRI7jiXEGxsziqIGzMGGdQQIfRyOaRVXqHAVERERERFZZj8VwVGWz8+ewxw8l6TYqRYzdahwFRERERGRtPTts7YV25i2PY5p2+Pwk2MAoZnSBXb/6Q9JyEwSbdvsnpt0kE65ioiIZCr9PhaRRFrXz5RcOP3HR+vq32MooTY4uq4YknyacU1T+o8GEZHVW+/PzkT87E33n9/pnr+IiKSnbenyVkG9AXGenoOIyOpk0luFU0Wm3IeIbK5E/Dd+764XE5SNpDLNuIqIiIiISNo6cPeTqOeS8XE4sjn+brMTEBEREREREYlFhauIiIiIiIikNBWuIiIiIiIiktJUuIqIiIiIiEhKU+EqIiIiIiIiKU2Fq4iIiIiIiKQ0Fa4iIiIiIiKS0lS4ioiIiKSzrz7ilZ9+xPhm55FMG3mPW+F5iqQhFa4iIiIiG2Kcj376Ch99lcl5ZMA97vg5//4fP6dgI/sUkRWpcBURERFZi68+4pWfvs3b//wKxU8VU/zTt7kVPjX+2du88lQxxU8V88o/3yJU1FTy6xE3v/77Yl753Ti3/rmYtz8Lt//dKxT/860FcUMzfovjhGcBZ/v9aTHFT833uTCnRccWWZ7H+O9eCecIfPZ2qO/P3qb4px8xnsn3GO3yhTOuUe//Fh/9NJRz8VOv8PZn/72sTxFJLBWuIiIiIms18m/w0gf4HvroP+jlt78bh68+4pcfFvPBQx++h/38E7/l7c8K+Pl/9PN2WSlv/x8f//6LAgp3luL1hwqcsXtQOvpJqCj6yoe7ZAcFX33ELw/DP/0fH76HPj7Y2UflbPE18m/wRj++h7/mudlcvvqIV/6nj3/6lwXHllmeR8EvPqBq9Ld89NU4H33opepffk7B87/GNzvrmKn3uJ4x/uwT+kou43vow/fwA37x/I+X9SkiiaXCVURERGStyt7mF8+HipSCIiPue2OMf9qHe+TXVD5VTPFTlTRcdc8VbwsVvFAFPQOMc4tP+Cf+6aCXr76Ccb+Xf3zpOcY/7YMzv+C5HfPtS6+GC78F/QIw8msq//7XGN/49Vz7+BXw83+pou/vK+k7+AE/X3r9VrjHWCLcPzuK4WoDr/zzR9z6ijUsKxaR1dpWbane7Bzilk65iohI6lnv75FE/B5Kld9lqZJHpio90x9h1m1JYbdjP1X8jrHPfLDzFzxXZOS3n96CHiMv/gfgX0WHZW/T/4aPysNv8+LDWLORK7g3Rrxl2Fa4x6h2/Jx/f7ifW78b4JP/WclvD/bz779YX0gRiU0zriIiIiIJVPBCFTT/bv4lPV8tLuZ8cy/vKWBHiZfffgjFLxTA8y9ivPcJvpIXeW5BnFvh9uOf9uE+/GL0gu35X9N/xkvDP0ff/Rk5j3E++p99VP2ffqpGfzu3J3Wr32NMX93i1lcFPPeLn/OLg/8YmoVd1qeIJNK2bmf3ZucQl2pLNemSq4iIpJbZ2cW1/h5Z7/WJipEo+p2aZDt+zgdX3+aXf1/MrwHK3ubyf/yc5yhg/xtG+g4X80p4tvK5l4w0XIV/2gFQSPHov9F38BfL4jQApYffpv//eQ6+il4ZFfziA97+aSVvf+bj189HbbUojw/4JX0HP+DfdxTAv1Txyt+/za2r0PBhMf3/ksH3uJ5Z26++4reHG2gAKPtH3v6XUKSl9y4iifOY76Hvb5udRDz0S1ZERNZKheti+p0qIqki2T+Pvn3WhuevfyHw3SMqPrkOQEVFRdL6k+TRUmERERGRjHOLt5+a/biW+f9l1se0rOcet8LzEcks2zY7ARERERFJtOf49UNfaBlvxlrPPW6F5yOSWTTjKiIiIiIiIilNhauIiIiIiIikNC0VFhEREclwmfS5vXqxmMjWpMJVREREZAuw/aZ0s1NYt67X3ZudgohsEhWuIiIiIlvIWou/TCh8RSR9qXAVERER2WJWW4RqplNENpsKVxERERGZK05TfWb1X//3v879/dWfvbqJmYjIRtJbhUVERERERCSlqXAVERERERGRlKbCVURERERERFKa9riKiIiIbEHRXri09Hiq73kVka1hWzp9IHU65SoiIqlHv0dERETSk2ZcRURERLagpTOp6fJWYRHZmrZ1O7s3O4e4VFuqSZdcRUQktczOtOr3iIiISHrSy5lEREREREQkpalwFRERERERkZSmPa4iIiIior2tIpLSVLiKiIiIbDHRPgpHRJYaY8J+kttXjez9PXi8r2E+wfyx4DnyNz2fwg3NAFcjrk3oV4WriIiIyBaydWdWgwy2Ozh2O4eLdrgQKOf6AeaPdVjYt+n5GDY0A9xO6jaj37TyFZOeKizBBrKAfDPAwKJjm5aPqxHPhve/ebTHVURERES2gD/z6aQRR4eFfaWWcLG24Nhm5rPhfQuM4bHX0GkoobOykQl/lDaVx3ng/gCnoZEJVyOutv9afCyuOJH7m7DX4Am3n2mrYci1tN1lZiA0w1lZg8tQgqtsYd+x4o/hqQy38V/GtSBWqJ8IXI24KhtxGUroNITzcTXiahubPz/791n+y+H2JeFzEfJPEBWuIiIiIpLGglxpv4apvhVTs5PBQJQ2zX10PbiNtd7JoNtJXe/Y4mNxxYnc32D7Na6E24/3XqPJvbTdCOMQmuFsvkZdfSv/+MuFfceKH+RKc7hNYIS6BbGaoq34djupa3ZSV9+KqT6cj9tJXW9w/vzs32cFRsLtW8PnIuSfSVyXmNh1ntrgKLXtxXg+HIjQqBBT/wW2l/4Sy9yS4PzFx+KKE7m//INGJhyhYm+i20ieGWbaTs61s1T7+DJcZE5TxY+Co5hHluYTLf5X5Fd7mXQBfsg2+ULFcg88URT9sUxTzI+Co9SOnID3Vy48Zxx98M5NaoOjmE8URs0/EVS4ioiIiEj6cg/jyLPi6bDjOZbDhZ5IU14GjpypwrZ974IZzuzFx+KKE7m/fWU5ONyhYu/WcA4vlMJ4r2OunaN8isvhIvMORlo67PzbB0vziRb/zzxXPsWnbiAAO/OmuBWAwREozo3+WO6QQ0uHHc97FfDxyoXnuNsLtsN4OuxcP2CImn+mmPF6yTaG92gWPU225/6aZgfjjROxndlMdnc/M/5+JkzmuUJ0+vRLdBpKcJ7uZtobmuHMrq6MuSw5UnysVUx7x5jo8ZF3EL7xjzFDMfkxCte5fop28AS+FZ9J1okTZHe/FJqhDc/GRso/EVS4ioiIiEjaGg9MsTM3vEcz18DOyeCaZgfjjROxXWkxO4f9jAf8OPKK5wrRO11XMdW3Yu3yci8QmuHcU15EwSrzoNTIvUCQwZEpXigDXyDIGDk8F6Nwnesn90mKmVrxmRQcqGDn8NXQDG14NjZS/pkiy2icL6r895k2Pb2m/arxxoncbj95Jh9ffugj/439c22zwzOYtSM3434BUsT4RU+TffcSk7vM5JvN0HOJb3bFLoCnu/tDxaq/nwmKQ23vfgXARE/38gv8O/hh/yi1I1XQ3c//t8b846HCVURERETSVkFuznxRFQhyL88QszBcb5zI7Yp4IW+Kyz1TWA/OT2ftCc9get47HPcLkCLGzzWwc3KYT/OK2VdaDCPD+PJiF8B3hv2hYjXgx0FOqO3knwEYHPEuvyDwJA1n7HjeM8Kwn8k15p82zK+Rf/dkaC/mUR+mBYVjUuJEaZd/EB545mdBs06cn29XdnJuD2xERcVwOtwmYvz95NENxv3ADp7wdIMxdiGZTR+fG0roLOsj+80Gssyvke85TqehBI9n97J+Z/yX5trzZiVPrSb/VdJbhUVEREQkfZWWY213YKqfgu1GLh4rS26cKO32lcGxj3NwhGdBCw5Y59uRw6n3DnEkWt+5OdDq4ErpIY5Eif8CfXyaawGCFE968ZVZYt7OHrycqr/NHXKw2Q9RUBrE+vFVTPWwZ3sO5C3u97nAMKfe8obbW/lxaRG+pfnHmOFNP4WYWm9gal2p3X4q+sPFqPkcZnPo2rljcceJ0s58jlrzCu2KZvtdkk9RA+ZgQ8z4+a2j4SXIhZj6R1dKEqrPY+5fWNyGrjMtarSg36JzmIPnFp2N73ms3mO+h76/JT5s4lVbqul2RpieFhERWUG1pRpgU3+PpEIOs/Q7deuptlRnxMfgdL3uxnbINvf1qz97dROzSWFp9DE3yf559O2zNjx//QuB7x5R8cl1ACoqKiK0HGDIcJwHC45kv7OWpa6JipNMUXI0XtqUz2eNl2ZcRURERCSD+Gmq76NrwZE9trUsdU1UnGSKkmNGzYxulP1UBEeJVNJuTpxkipbjwpnd1KPCVUREREQySBFnO+ycTZk4yRQtRwvXNyEbkWTaNrt0KR2kU64iIiIiIpJ83z5ri3netO1xTNseh58cA+CLCG12/+kPSchMEkkzriIiIiKSEt5t+UHsBk89z7v/+ef59v+5/A0wux5+lui0JMnWOzl1+q+PYp4PfPeI3O99P2Ybj6GE2mAcLy+STbMtXV7OoBdJiIiIiGS2X536Oub5+F7OZE9wVpJMifpv/N5dL8Y8H/gudnErqU8zriIiIiIiktYO3P0k4vH43yosqe7vNjsBERERERERkVhUuIqIiIiIiEhKU+EqIiIikkrcTup6g6tvu5rrJD6zzzSZz1ZjmHlcjbjaxub/TGYfS/+ewbTHVURERCSVlOozOFPG3FjEGhM/Tc1BGs6UUbBReUlqM5/DbAaY/TOSAYYq7/PD/gayNi6ztKYZVxEREZFUEnPWLciV9muY6lsx1TsZjNamOdq5TLTgmTQ7GQxEa+enqbk1/OxaMbX7Q8+6+Rp14Wuv9M7GGWEc4phxDXKluY+uB7exNo/w373XaHLP9hWOEStfjeEmGsNjr6HTUEJnZSMT/mjtBhiqLAm1M5TQaR8IzXBW1uAKX+tpm41zmRmIY8Z1DE/lcR64P8BZeZmHbTUMuWb7CseIla+hkYlobSqjnUt/mnEVERERSRfuYRxU4OgoCs3uuZ1cWNJksN2B7+VDHNmE9DaFexhHnhVPhwECI9T1+Nl3tChCOx/3yg/jOWNgvPcal3OLAB93MOLoKIPea1gnK/B0FDHYfo1bgbI4nqGBI2eq8M3NuBbha3ZyZWSK4mOHIs/AagxTg+sSE7vOUxssBP9lXB8OkN+6P0I7F9PVN6ntL2SmrYYvjfsBF9NUYQnegLYanHdPUBvcz4S9hgl/A6YVOy/E1H+Bb+ZmXCv5urIRT4+XJ9pvRJ6BdV1ighNYgvtD512NeJY0mbCf5Js3b8TRf3rSjKuIiIhImhgPTLGzrCjqktQ7XVc5NmmkoXRD09pU44EpduYaQl/kGtg5GYw805mbA11XMdW3Yh028kL4Ge0pn3+etrJQwVuQB76oM7exGDjyMrRMGnkuN0a+GsNNN+P1km0sDH1R9DTZnvuRZzqLiuH0S3QaSnB2V5EXXvqbXV05V2BuPxgqeLN2wTdRZ25jKcT0JnzhqSI/wr+5zOV7cH/UZcXTp1/itqeKH0Zdmpz+VLiKiIiIpJF7I/4oS1Bhj+0wF/O8nNpCL/gpyM3hXiB8v4Eg9/IMEYvCcbeXnXY7ng47njNl7EtKNn6aPs7hYrmXy+7orTSGmy/LaGTaG17G67/PtOnpiEXhjKOP7N+PUhscpba/gfykZDPA0PvF7K3u40tX9FbTPQNRlhFD9js32Wvq4/MMfkmTClcRERGRNFFwwIqVIayz+yNzc6DLwZUFs4P7jlqxDjvCey23gNJyrJOO0J7Ri1McPxh5yqqg1Mi91tk9rtcS+HyepJjQHteu9iGKj5Wx70AFfBx5j6rGMEWYXyP/7snQntGjPkxvRFgmDGRZq5j+h9k9rrN7URNhB08Q2uN6z97GE+0N5J84Ae9H3qOadeI8+bThnN3jWlQMp0/iWTDDm996nvzukwnMMbU85nvo+9tmJxGPaks13c7uzU5DRERkTaot1QAp8btMv1O3nmpLNbbfpP/a067X3dgO2ea+fvVnr8Z97WD7NcYOHuJILqGXLY0Ucz3SXljZUMn+efTtszY8f/0Lge8eUfFJ6N3QFRUVcV8/Ya9h5o0bmIoIvWypx4w50l5YSTq9nElEREQk5fhpqu+ja8GRPbbDXD9g2LSM0keUZ1eWw4W3WmkB2G7k4rHVFq2rHRONYXoZYMhwnAcLjmS/cxPzQSOushK+ACitZm/7aovWKHFPFCao/dahwlVEREQk5RRxtsPO2c1OIy1Fe3YWrndYkhA3Ue1lc+2nIjjK8rnYc5iD55IQN1Httw7tcRUREREREZGUphlXERERERFJW98+a4t53rTtcUzbHoefHAMILftdYvef/pCEzCSR0urlTCIiIiKy3N2nnl93jF+d+joBmazPuy0/WHeMXQ8/S0Amkk5O//FRzPOB7x6R+73vrxinNjiaqJQkCdKmcBUREUlnequwbCa9VVhSVaJ+HvXuenHdMV6fub/uGJI8WiosIiIiIiJp7cDdTyIeX+/H4Ujq0MuZREREREREJKWpcBUREREREUkUVyOutrH5PyUhVLiKiIiIrIXbSV1vMPHxVhN3YdtE5yNrGxMR8znMJwrn/4xogKHKy8xsaGLpTYWriIiIyFqUWrh+wJD4eImOK2sX15j4aWoeYXxDE5P1G8Njr6HTUEJnZSMT/mjtBhiqLAm1M5TQaR8IzaRW1uAKX+tpm40TLkRXnHEdw1N5nAfuD3BWXuZhWw1Drtm+ohWzC/Nd0E9lYygPQw2eqPeQGfRyJhEREZG1cDupC5RHKWj8NDX30fUg/OXeKjxlPuo+noIHU9zZbuRU+RQtXVOwfS+OM2UUzMbLHY4RN8iVdgctt6cAIxftkRILcqV5mMIzFvYl6l5T2oJnst3IxWMW9uVGapeMMQlyJRyzqxn+V7mXm7mHOFvqp6k5SMOZMgpi5rugn4+BB17ukMOp9w5xJOI9SMK4LjGx6zy1wULwX8b14QD5rfsjtHMxXX2T2v5CZtpq+NK4H3AxTRWW4A1oq8F59wS1wf1M2GuY8DdgWrHzQkz9F/im8j4/7G8gi0q+rmzE0+PlifYbZEW4Yqbt5Fy+M22NfOmCCmCaYizBUbJcjbg+HMAU6R4yhGZcRURERBLN7eNe+WE8HXYcthxsZUUA3MFIS4cdR/kULZMVeDrsXMzzcisQb9xhHFTg6LDj6YhcmA62O/C9vFWKVkLPJM+Kp8OO51gOF3qiTDslZUwMHDlThS1cgP74gJXij51caR+i+FikohXGex1z+TrKp7jsJpxHDi0ddjz2HBzR7kESZsbrJdsYXsZb9DTZnvuRZzqLiuH0S3QaSnB2V5FnDh3Orq6cKzC3HwwVi1m74Js1DV0hpjfhC08V+UXRW03P5nG6m2nv2OI8iorX0nFa0YyriIiISKLl5kDrVUxdwPa9XDwDuGFPeREFwDjMFU4FefBpnIXreGCKnWWWiAURwJ2uqxzbvhfH0fXfQroYD0yxMzc8E5prYOdkkHFY/oySNCaLGTjyMpg+NuKIMWN6pyucB7DHVg6583mQm7OWjmWVsozGUPFnLgT/faZNT0ee6XT0kf37UczmZGYzwND7xeyt7uNLVwMVUfrKfudmaM+sfwyKCsGVzJxSjwpXERERkQQbd3vZabdzvTTxse+N+BkvLYpYvO6xHeb4pINTvUVbZp9sQW4O9wJBwACBIPfyDJFnOpM4JvP8NH2cw8VyL5fdZZyN0tce2+HQ+ASCkGsAdzJzkojMr5Hfc5JOwxdQWs3e9oaIzbKsVUyXldAJwG62//4GifkU2B08wXGclfA/TH080X6D/KKnmaxsZMJ8jvyleZw4T749nC+72T1yI44lyZlFhauIiIhIghWUGrn3Vmv4PyxzsNkPcTYRcQ9YsbY7sNb3AUYuvpcDrQ6ulB7iSLjNvqNWxpodNOUeilo4ZZTScqztDkz1s3tcyyI2S9aYwJMU04e1Gc7meSk+doh9uQY+bXYyWLp8yfbsGJrqp2B2P2tC8pDVKcTUegNTa+xWEx/2kT8yirmI0MuQegag9dzcDGzWiflCdv7vs+fPxZipLcTUPxr+fpwtmvdT0R9tj2qEfIsWxC9qwLzCvaS7x3wPfX/b7CREREQyXbWlGoBuZ/cmZxLKJRXyyGSD7dcYOxh+wY7bSd1IMdePxti8lmTVlmpsv0n/KrbrdTe2Q7a5r1/92atxX5tqYyIhyf559O2zNjx//QuB7x5R8cl1ACoqIs2ZDjBkOM6DBUey37mJ2XgJ1z90Mw3hmdlzMfehxh031sfkrKr91qEZVxEREZE189NU30fXgiN7bIe5XpbDhbdaaYHwLOBqC6QocbfI8t/1SZUx0Riml/1UBEcjLAM+hzl4LglxE9V+61DhKiIiIrJmRZztsEdYcmrheoclCXFlZakyJhpDkURS4SoiIiIiImnr22dtMc+btj2Oadvj8JNjAHwRoc3uP/0hCZlJIj32zDPPaI+riIiISBq7+9Tz647xq1NfJyCT9Xm35QfrjrHr4WcJyETSyek/Pop5PvDdI3K/9/0V49QGRxOVkiSBXs4kIiKyAfRyJtlMejmTpKpE/Tzq3fXiumO8PnN/3TEkebRUWERERERE0tqBu59EPB7/W4Ul1f3dZicgIiIiIiIiEosKVxEREREREUlpKlxFREREREQSxdWIq21s/k9JCBWuIiIiIpG4ndT1BhMfL9FxJXk0ZrIW5nOYTxTO/xnRAEOVl5nZ0MTSmwpXERERkUhKLVw/YEh8vDXH9dPUPMJ44jKSlcQ1ZhqX9DSGx15Dp6GEzspGJvzR2g0wVFkSamcoodM+EJpJrazBFb7W0zYbJ1yIrjjjOoan8jgP3B/grLzMw7YahlyzfUUrZhfmu6CfcB6h6zOb3iosIiIiEonbSV2gPErB4qepuY+uB+Ev91bhKfNR9/EUPJjiznYjp8qnaOmagu17cZwpo2A2Xu5w9Lhu51yMnYf3cu/qbe4Ae2wHsQ6H+utqJhQv4rXAAy93yOHUe4c4kpvIB5Kqglxpd9Byewq2G7l4zMK+iPedjDELcqV5flz+V7mXm7mHOFvqp6k5SEOkcVqU74J+Zsfdbuds+n9yUepzXWJi13lqg4Xgv4zrwwHyW/dHaOdiuvomtf2FzLTV8KVxP+BimioswRvQVoPz7glqg/uZsNcw4W/AtGLnhZj6L/C7Z6m8AAAgAElEQVRN5X1+2N9AFpV8XdmIp8fLE+03yIpwxUzbybl8Z9oa+dIFFTCXR6RrMo0KVxEREZHVcvu4V34YzxkD473XuJxbBPi4gxFHRxn0XsM6WYGno4jB9mvcCpRxJM7QC2Ocsh3GM1ssHajCF7UYmr02B0eHPVQI9fg5crQoATeb4tzDOPKseDoMEBihrsfPvkj3nZQxM3DkzMJxKcLX7OTKyBTFxw5FHKfxXsdcvuO9Ti674Szz4x5tbCWxZrxeso3hZbxFT5Ptuc8M+5cXgEXF8A8v0XkaKP0le/sBF2RXV5IFzADbD4YK3qxdMBl15jaWQkxvQuf7VVhi/F92+nQ4DyD7ndfAOJ/HVqClwiIiIiKrlZsDXVcx1bdiHTbyQniGbE950VzhYSsL/RdoQR74AvGHno1RcKCCncNXMdVfoynO/ZVz/efmxN9hmhsPTLEzN1zc5xrYORmMvGw3iWM2z8CRl6Fl0shzMWa778zm0eXlXiC4LA9JviyjkWlveBmv/z7Tpqcjz3Q6+sj+/Si1wVFq+xvIT0o2Awy9X8ze6j6+jLHkN/udm6E8Rm7G2DubuTTjKiIiIrJK424vO+12ridzSWfgSRrO2DkbGKHpop/xRO63zSAFuTnh4s8AgSD38gyRZzo3Yszw0/RxDhfLvVx2l0Vd8rvHdji07DgQhFwDuJOZk0Rkfo38npN0Gr6A0mr2tjdEbJZlrWK6rIROAHaz/fc3qEhIAjt4guM4K+F/mPp4ov0G+UVPM1nZyIT53LICOevEefLt4XzZze6RG3EsSc4sKlxFREREVqmg1Mi9t1rD/+GYg81+iLMJ7mM8MMypt0L7VW12KwVAMX1Yo+1x3apKy7G2OzDVz+5xLYvYLHlj9uTcuJzN81J87BD7cg182uxksNTCvqV5HLDO5zu7FzkhecjqFGJqvYGpNXariQ/7yB8ZxVxE6GVIPQPQeg6zOXQ+68R8ITv/99nz8+0i9t8/Gv5+nC2a91PRH2GfbbR8i2LFzzyP+R76/rbZSYiIiGS6aks1AN3O7k3OJJRLKuSRzgbbrzF2MPzyI7eTupFirqfwftJqSzW236T/G3+6XndjO2Sb+/rVn70a97XpNmZbRbJ/Hn37rA3PX/9C4LtHVHxyHYCKikhzpgMMGY7zYMGR7HduYjZewvUP3UxDeGb2HPmr+raJEjfWx+Ssqv3WoRlXERERkaj8NNX30bXgyB7bYa6X5XDhrVZaIDzLt9oCKErcuJYDr+farSBVxkzjlF72UxEcjbAM+Bzm4LkkxE1U+61DM64iIiIbQDOuspk04yqpKnVmXCXVacZVRERERETS1rfP2mKeN217HNO2x+EnxwD4IkKb3X/6QxIyk0R67JlnntGMq4iIiEgau/vU8+uO8atTXycgk/V5t+UH646x6+FnCchE0snpPz6KeT7w3SNyv/f9FePUBkcTlZIkgZYKi4iIbAAtFZbNpKXCkqoS9fOod9eL647x+sz9dceQ5NFSYRERERERSWsH7n4S8bj2uGaOv9vsBERERERERERiUeEqIiIiIiIiKU2Fq4iIiGQut5O63mDy2q/qmiCD7dcw1TsZjHiNn6Z2/+r6XlMesi7JfM4aw8zlasTVNpZ+sVOIClcRERHJXKUWrh8wrDOIn6bmEcbXncyf+XTSiKPDwr6E5CXJsZbxTtT3iKSvAYYqLzOT9Gu2LhWuIiIikrlizWC5ndQ1O6mrb8VUf40m98KTQa40OxkkyJXmProe3MYaqzAZHl4cZ2G/bid1vWPzcRbNuAa50n4NU30rde1D3IsSftw9m2frgvuZv9ZU72RwWe5bxYLn0OxkMLCKdrHGqXkk9NwT8T0SKc6yvpd8nwZGloz5wvxVJK/fGB57DZ2GEjorG5mIutghQruFM5yuRlxt/4Wn8jgP3B/grLzMjKsRV2UjLkMJnYYahlxL4lU2MsHY4msidR0pzrK+l8y0+i+H25eEzy3MP72LZBWuIiIismXdIYeWDjue9yrg4/liYLDdge9lC/swcORMFbbte3GcKaNglXHmZc/H6bCwL3x0vNeBI8+Kp8NOS1kOd6LELygtD8XvOIx1eDhUlLqHcVCBo8OOZ0HM+dy3CPfw3DP0HMvhQk+UCiSudtnLxnvjvkcWG3d7wXYYT4ed6wcMi75XHOVTXHavEEBic11iYtd5aoOj1LYX4/lwYB3t8jH1X2B76S+x9DeQBUxTzI+Co9SOnID35wvGCftJvnnzHPkULrsmkmhxoplx9ME7N6kNjmI+UchM28m5/C3VPr50rRAghalwFRERkS1rT3lRqNDIfZJiphgH7nRd5dikkYZVfOxppDjx2pkbWjJcUFqMLVqjgJ9T9a2Y6q/S8iB0aDwwxc6yokWF0lpyT3fjgam5Z0iugZ2TwYjPP952S23W90jBgQp2Dl8NzdCGZ2PvdF3FVN+KtcvLvYD2wq7HjNdLtrEw9EXR02R77kcsCuNtt1R2dWWoGC3awRP4mAGmT7/EbU8VPzTHn2ekOLFknThBdvdLoRna8Gzs9OmX6DSU4DzdzbQ3fffCqnAVERGRLevOsD9UQAT8OMihANhjO8zFPC+nVvGSnEhxmPwzAIMj3pjXzhYg424fXVHaDPZ4sb5nx9NRhW37gmtH/IsKoLXknu4KcnPmi7hAkHt5hoiznlHbrTBOm/Y9EniShjN2PO8ZYdjPZLhfT4cdz3uHtUd6nbKMxvkizn+fadPTEWc9o7a7+xUAEz3dEeNPd/eHikx/PxMUkwVkv3OTvaY+Pl/Fi5QixYnZt38HP+wfpXakCrr7+f/C/dYGR6kduYn5RGHcfacaFa4iIiKyZe3BG5rJfMvLzpfnl3nuO2rFOuwI72l8kmJi73FdFqe0HOtkH6b6Vi5M5kTtv+CAFetwaBbt1AhRZ1z3leXgeKsVU7MP8PKpO3wtQ1iX7HFdnPsWUFqOddIR2vt5cYrjB4vibxdxnBaP94Z+j+TmQJeDKwEYDwzPteflIn58wDqf/1uhNrIO5tfIv3sytPfzqA/TG/vjb2d+jXzPcToNJXg8u8MNd/AE8/tVs+njc0MJnWV9ZL85vxQ4v/U8+d0nw/teF18TybI4kfouKobTJ/H4YcZ/aa49b1by1Inz8/mXhdqkq8d8D31/2+wkREREMl21pRqAbmfkf53fSNWW6pTIY9O5ndQFyrfEzFW1pRrbb9J//XDX625sh+bL+1d/9mpyO0zU98gW+l5brWT/PPr2WRuev/6FwHePqPjkOgAVFRVJ6w8IvTTJ+9r6ZzcTFSdDbNvsBERERESSy09Tfd+iZbh7bIe5npugOAktRjaij0y3mc8wUd9rsvEGGDIc58GCI9nvbNTS2ih9Gzeg6zSiGVcREZENoBlX2UyacZVUlZEzrpIU2uMqIiIiIiIiKU1LhUVEREREJG19+2zUD5ICwLTtcUzbHoefHAPgiwhtdv/pD0nITBLpsWeeeUZLhUVERETS2N2nnl93jF+d+joBmazPuy0/WHeMXQ8/S0Amkk5O//FRzPOB7x6R+73vrxinNjiaqJQkCbTHVUREZANoj6tsJu1xlVSVqJ9HvbteXHeM12furzuGJI+WCouIiIiISFo7cPeTiMf1cqbMoZcziYiIiIiISEpT4SoiIiIiIiIpTYWriIiIbB1uJ3W9weS1X9U1QQbbr2GqdzIY8Ro/Te3+1fUtq5PO47uW3EXSmPa4ioiIyNZRauH6uoP4aWoO0nCmjIJ1xfkzn04acXSE4uxbd16SGBpfkVSkGVcRERHZOmLNUrmd1DU7qatvxVR/jSb3wpNBrjQ7GSTIleY+uh7cxto8wni0foaHF8dZ2K/bSV3v2HycRTNyQa60X8NU30pd+xD3IgafzQUIjFA3m4fbOd9X8zXq6luX3EOmmn9mpmYng4EozdJmfGHcPZtn64Lv1wX3WR8e/0W5i2Q2Fa4iIiIiYXfIoaXDjue9Cvh4vnAZbHfge9nCPgwcOVOFbfteHDFm5KLFmZc9H6fDMjcbN97rwJFnxdNhp6UshzsRoxt4rnyKT91AAHbmTXErAIMjUJw727+Rlg47Z9P/E3BW5h6ee2aeYzlc6Im+/DY9xhcKSstD8TsOYx0eDhWl7mEcVODosONZEHM+d5HMpsJVREREJGxPeVGoWMl9kmKmGAfudF3l2KSRhlUUgZHixGtnrgGAgtJibFHaFJQauRcIMjgyxQtl4AsEGSOH53KX9L8FjAem5p4ZuQZ2TgajPu90GV8Cfk7Vt2Kqv0rLg9Ch8cAUO8sWj+tachdJVypcRURERMLuDPtDRUjAj4McCoA9tsNczPNyahUvwokUh8k/AzA44o157b1AqJ9xt4+uaI1yDeycHObTvGL2lRbDyDC+vK1TrC5UkJsz98wIBLmXZ4g+U5om4zvY48X6nh1PRxW27QuuHfEvKpLXkrtIulLhKiIiIhK2B29opustLztfnl8quu+oFeuwI7wv8kmKib0Hclmc0nKsk32Y6lu5MJkTtf+CA1asw1cx1bdyaoToM3IU8QJeyC0K5TPphdlZx62mtBzrpCO09/PiFMcPFkVtmi7ju68sB8dbrZiafYCXT93haxnCumSP6+LcRTLXY76Hvr9tdhIiIiKZrtpSDUC3s3uTMwnlkgp5pBy3k7pAOdcPZF4BWG2pxvab9F9P2vW6G9uh+XLv1Z+9Gv/FGTy+6SzZP4++fdaG569/IfDdIyo+Cb1TvKKiImn9SfLo43BERERki/HTVN+3aJnmHtthrucmKE5CC6ON6CPTaHxFMpEKVxEREdliijjbYefssuOr/YzXaHESaSP6yDQaX5FMpD2uIiIiIiIiktI04yoiIrIFze65lcxw96nnYzd46nnebYnd5Fenvk5cQmv0bssPYjd46nne/c8/z7f/z9ZlTXY9/CzRaYlIClDhKiIissXoxUxbT7q8nGml4jm+lzPZE5yViKQCLRUWERERERGRlKbCVURERERERFKaClcRERERERFJaSpcRURERERE4uVqxNU2lqRrxpiw19BpaGQi4jUDDNkHVtd3hlDhKiIiIluP20ldbzB57Zfx09TuX8f1khRrGde4rwky2H4NU72TwYjX6HsiswwwVHmZmXXH+YpJTxWW4DnyzecwnyhMQG6ZQYWriIiIbD2lFq4fMKwziJ+m5hHG151MouJIYiRqPP7Mp5NGHB0W9iXk+00SawyPvYZOQwmdlY1MRPs3BFcjrspGXIYSOg01DLmWxKhsZIIxPJXHeeD+AGes4rX70uI4C2dUXY242v5rPs6iGdf5XF32Nqaj3U9lIxMA/su4ZvNwNc73VVmDy1Cy5B7ShwpXERER2XpizZq5ndQ1O6mrb8VUf40m98KTQa40OxkkyJXmProe3MYatcgJcqX9Gqb6Vurah7gHjLtn47aG+18c57+XnY8St9nJIEBghLrZ/t3OUK5uJ3XN16irb12Se6aaf86mZieDgSjNEjauwPDw4jgLv5/cTup6x+bjLJpxXf49EfF+NL7J57rExK7z1AZHqW0vxvNh9OW30xTzo+AotSMn4P35wnTCfpJv3jxHPoWY+i+wvfSXWPobyFplnHn583GC58gPH51pOzmX648OGqMUroXkV3uZdAF+yDb5mPDDRA88UTTbfxU/Co5SYY7rCaUcFa4iIiIiS9whh5YOO573KuDj+QJmsN2B72UL+zBw5EwVtu17cZwpoyBCjPFeB448K54OOy1lOdwBCkrLQ3E7DmMdHmZwSZwfLzsfiYHnyqf41A0EYGfeFLcCMDgCxbmz+Rtp6bBzNvU/unX93MNzz9lzLIcLPdGX3yZiXGPFmZc9H6fDwr7w0UjfE8tpfDfCjNdLtjG8DLfoabI996POlGZXV4aK0aIdPIGPGWD69Evc9lTxw1UUgZHixH1tONcss5ntUdpkWauY9o4x0eMj7yB84x9jhmLyi5b0n6ZUuIqIiIgssae8KFS05D5JMVOMA3e6rnJs0kjDKoqFnbmh5aEFpcXYAAJ+TtW3Yqq/SsuDCBesdD6soNTIvUCQwZEpXigDXyDIGDk8l7sk/y1gPDA195zJNbBzMhh1pjRR4xopTryWfU9EoPFNviyjkWlveJmu/z7Tpqejz5R294eKTH8/ExSTBWS/c5O9pj4+X8VLmiLF4e5XAEz0dMe+NpzrjMtF1B8NRU+TffcSk7vM5JvN0HOJb3ald7G6kApXERERkSXuDPtDxUjAj4McCoA9tsNczPNyahUv87kXCLUdd/voAgZ7vFjfs+PpqMIWYdpkpfNzcg3snBzm07xi9pUWw8gwvrytWcwU5ObMPWcCQe7lGaLPlCZoXCPFYfLPAAyOeGNeu/R7IiKNb/KZXyP/7snQHtejPkxv7I/aNJs+PjeU0FnWR/ab80uB81vPk999MrxndAdPEHuP67I45tfI9xyn01CCx7M7av9ZJ86T3/0SnYYSPu8h6owr7CePbjDuD+Xj6QZj5rzcadtmJyAiIiKSavbg5VT9be6Qg81+iAKcAOw7amWs2UFT7iHOlj5JMX1Ym4m4rLTggBVr81VMXbBnrxEbsK8shwtvtdKy3YgNL5+6LexbGOflSOcjZVjEC/Txaa4FCFI86cVXZknuQ0lVpeVY2x2Y6qdgu5GLx8qiNk3EuEaMUxrE+vFVTPWwZ3sO5EXuP9L3RGQa3+QrxNR6A1NrHE2rz2PuX1gAnsMcXiJs6r8xH69/FFO0GOb5axblsOyaQir69y+7JmbsBfJbR8N7Y0OxY/efXh7zPfT9bbOTEBERyXTVlmoAup2xl4NJCnA7qQuUZ9RbYKst1dh+k/4bIrted2M7NF/uvfqzV+O/OAPHVVb27bM2PH/9C4HvHlHxyXUAKioqIrQcYMhwfNEy3Ox3bmI2XsLlfW0VH0sTJU5CP9ZmI/pIPZpxFRERkS3KT1N936Llmntsh7mem6A4CSmQkhk7U6XDuG5kHxKf/VQER1le0q52pjJanETaiD5Sj2ZcRURENoBmXGUzacZVtqr4Z1wl1WnGVURERERE0ta3z0bfLQxg2vY4pm2Pw0+OAfBFhDa7//SHJGQmifTYM888oxlXERERkTR296nn1x3jV6e+TkAm6/Nuyw/WHWPXw88SkImkk9N/fBTzfOC7R+R+7/srxqkNjq7YRjaPlgqLiIhsAC0Vls2kpcKS6Xp3vbjuGK/P3E9AJpIsWiosIiIiIiJp7cDdTyIe1x7XzPF3m52AiIiIiIiISCwqXEVERERERCSlqXAVERERERGJl6sRV9tYgoINMGQfSFCszKbCVURERDKT20ldbzB57VfNT1O7P45ja5T0/DNQQp9ZAsdS0tAAQ5WXmdnsNDKYClcRERHJTKUWrh8wrDOIn6bmEcYTkpCkB4351jCGx15Dp6GEzspGJqL9m4OrEVdlIy5DCZ2GGoZcS2JUNjLBGJ7K4zxwf4AzWvHqasRVWYPLUMKQa75vl72N6YTfW2bSW4VFREQkM7md1AXKIxevbid1HwMPvNwhB5v9EGfnTga50jxM4Zlyxpr76HoAXc3gOFNGQcQ4U/Bgiv+7ysj/2+flDrDHdjjcb5Ar7Q5abk+xZ28OUBH52II4O+12zi755Jpxt5NTrdFjg5GL9qX5W9i3/qeYBhY8h+1GLh6zsC83QrMkjPlO+2GKR5aOr6QF1yUmdp2nNlgI/su4Phwgv3V/xKbTFGMJjpLlH2Do6GVm3gwdn7Cf5Js3b2AC6L/AN5X3+WF/A1lRupymCkvwBrTV8Hm47xlXI86eZNxg5lHhKiIiIlvSHXJwdNgpCPhpujjC+Muh44PtDnwvH+IIsO9MFb7mIA2RCpi5OEYcHWUUEGS81kJBuAgaPGChoNeBI8+Kp8PAuNuJdQTGIxxbHGe5gtJyWjoWx97nHsZBBY6OotA1bicXluS/JbiH554ngRHqevzsO1oUsWmix5zea5yKMJaS+ma8XrKNhaEvip4m23OfGfZHLDqzqytDx4t28AQuZoDp0y9xu/SXWFrj73M2zgzM9Z1lNrNdhWtctFRYREREtqQ95eGCL/dJipliHLjTdZVjk0YaSle4OFKcgJ9T9a2Y6q/S8mD+/M7c0IxvQWkxthjH5uJEEiH2eGCKnWWLr1lL/uluPDA19zzJNbBzMhh1mW/Cx5zIYympL8toZNobfsGS/z7Tpqejz5R294eW//r7maCYLCD7nZvsNfXx+Rpf0jTb94zLxYMV2kqIClcRERHZku4M+0MFTsCPgxwKCC3DvZjn5dQaXtgz2OPF+p4dT0cVtu3zx+8FQrHG3T66YhxbU+wR/6IibT35p6uC3Jy550kgyL08Q/SZ0gSPOax+LCVFmF8j/+7J0B7Xoz5Mb0ReJgyQTR+fG0roLOsj+835pcD5refJ7z4Z3ve6gyeIscd1gawT58nvfolOQwmf98D2FdpLiJYKi4iIyJa0By+n6m/P7XcswAnAvqNWxpodNOUe4mzpkxTThzXafscF9pXlcOGtVlq2G7Hh5VO3hbMHrFibr2Lqgj17jdiAggjHVhI1drsDa30fC/e4Ls5/nQ8pHZSWY213YKqf3eNaFrVposd8LWMpqaIQU+sNTPEs9a0+j7m/cMGBc5jNob+Z+m/Mx+sfDe13jcQ8f82KbSWix3wPfX/b7CREREQyXbWlGoBuZ/cmZyJA7Bc3ZaBqSzW236R/Fdv1uhvbofny8NWfvRr/xVtszCXk22dteP76FwLfPaLik+sAVFREeonWAEOG44uW7Wa/cxOz8RIu72uYTxRGuCaSKHHivl6i0YyriIiIZDA/TfV9i5Zw7rEd5nqkt86uJU7Ci6CN6ieTpduYS2rYT0VwNMJ7oRfOlK4njqyXZlxFREQ2gGZcZTNpxlW2qvhnXCXVacZVRERERETS1rfPxt5dbNr2OKZtj8NPjgHwRYQ2u//0hyRkJon02DPPPKMZVxEREZE0dvep59cd41envk5AJuvzbssP1h1j18PPEpCJpJPTf3wU83zgu0fkfu/7K8apDY4mKiVJAi0VFhER2QBaKiybSUuFJdP17npx3TFen7mfgEwkWbRUWERERERE0tqBu59EPK49rpnj7zY7AREREREREZFYVLiKiIiIiIhISlPhKiIiIrKR3E7qeoObnYWs1ez4JWQc/TS1+yEwQl19K6Z6J4NrihPkSnMrpvpWmtzrTEmSw9WIq21s/s91GWDIPgD+y7gMJXQaGplYU5wxPJUldBpKGHKtM6UNoD2uIiIiIhup1ML1NV3op6k5SMOZMgoSnJKswtz4xRrHNYzV3io8R4sY772GqWtq2fHFglxpd9Byewq2Gzl1zMKRM3ae673G5VXdjGwY8znMZoDZPyMZYKjyPj/sbyAr3riHL1Dbup+Ztho6T3+x7PhiY3jsJ/ni6hdQWs3u9nOY+kfJb6vhy1XezmZQ4SoiIiKykdxO6gLlXD9giHzu4yl4MMXOw3u5d/U2d4A9toNYh/voegBdzeCIVBC5ndR9DDzwcoccTr13iCO5yb+dzbe4iLt4zAI91xg7GLr/8d5rXM49xNmIL1X209Qceq5AqEgs882NwZ3tRk6VT9HSNQXb94ae++z45Q5HGccgV5rnx+p/lXu5mXuIs6WzxWwRt8L57tmbAyx+UVDBgUN4DoT+Hsp9adEK470OWqjA0VEEbifWiyM8d6Zsnc9xq1lcxO1tPwcf1jDzxg1MRTDTVsOXxhtURCwyBxiqPM6D2dntwxeoPejC9b4X3F8wXVrN7movX5z+Akp/iaW/gSxXIy7va5iNl0J/nihcnk845oNK+PvqPv5ovEGFebaYrWQinG/24d3AiUVXZ524QW34UCj3pUUrzLSd5AtOYAnuB1cjzqOXye9vWOdz3DhaKiwiIiKSQu5gpKXDTsO3XrAdxtNh5/qBQo6cqcI2WzxFvTaHlg47HnsOjh7/hua9adzDOPKseDrseI7lcKHHz76yHBzuIBDk1nAOL0T7JCC3j3vloWfssOVgKwsVibNj4CifomWyAk+HnYt5Xm4F4knIsGisfnzASvHHTq60D1F8rAx6HXP5tpTlcCdqnOi5j0/CqYNFFAAFpeWcYorxeFKTea5LTPz/7d1/TJtXvufxT1f9Z7S3MA7/LAXhtBCHGt1mhawwuStllNIxcbgoQjG6Io0yQpHyQ8JVpegqkFGDkqgJURVtNCAlQRehRbmJKohQhMCxOx5mslebwrIeRVpc4uBcnCH1rkaMB/ePdqsZdf+wAQO2E8DAA7xf/6A8z3PO87V9qvLhnOd493XVRcdV11GiwI0hFdZYNOWelDSpqT6LCtLNjHq9mql9qLrouKoul6moJh4SZ3RIP4uOq6o2qLGnjaqLjmufdVBTr/Wf4k5ZfTdVlAi6bzde11vXmhVwteutjhNS+9m5en9WY9FM2n7S1x57KpV9ckA5knLsp1SmCcVepzSDILgCAAAYyJ69iUBSXaFdI3dkbbirC6/5LOVsW+XnrWWJhhKOTGtXfmLWM9+kXS+jCpeXaNdISOFISO6CEu1P1zg/T+q9I2tDmxwjlrmQOPc+SnNh1lwgTbxWcF3MpOOHpdaXFv08MQM+W6+5vETOdM38I3Lv3Zu+dqxKLBhUriUx61n8rnIDzxWz25Xb51Ms5NOU1a7CdI2LS6RPD6rHVCpP36G5kJhbWzm3xHc2zObslr5d0d+Qdsp6ThoLHFJhYtJ9tt4cu11F6Zp5b2uq9lT62jcxgisAAIARRXboxEWXAlcs0kiIGbU0zPl5ehZJBPtIVM8KTDKrWB8WTKuzf1qOmqVLbWeF/UHtcrnis7UXbWsUEkO68CBPt/YG1ZlYWjpbb9g/od6UbaLqfiCdSbWcXPEQ3dofHxNh/4halcdzz8uUY7FoJpjYJCn0XDPWd5WjAyqwTujrGxMq/GTpUttZMRMrW50AACAASURBVPegcr8Yj8/W+k6sUUgc0vC1Eu2rHdTXiY2TZuuNeb16kbLNpALXJOuSZchxObulsRtDikmKeW9rTCWv/yytAfCMKwAAgAGFIyNqOh9/XtXpcsgsqUSDcqR7xnW7Kt8rR4db1obZZ1zjz3rut0mnH+TJneE5X3O5Rc/Ot8kqScqT03VUl7JS1I65z+pSQVAlp49qf75Jv2nxKHzRIUfLHVl7pT37LKlnXBOzrbObP4UH7qpJDrXKrSY5dK/aoaYOtxwNg4nNmeLjgT9uLIP9lAr7z6rHNPuMa/xZz8Ia6fG1ElWl/3uHchyHNGMrVY8kqUxFX9xf9KTySr2jt3RGnkrpP1sH9VbHfRUWv6uXlc2K+a6rsPKgej6Vco/Vpp5xTcy2zq4SjrUf0Ve6rp/prL7Sddkbr6vMdVYe05nE5kzxTaA2y3LhNya+mfhxo4sAAGCrq62qlST1efo2uBJsR7VVtXL+Ot2DnptH78d+OY/OR72PfvnRqvp71DG/iZP8HtWPlujekh1810FkVPXnH+uJLLrVVbWCmd+oulvuqPWF5HS50mxEtT19/75Tgb9+p8jfflDFl/E/BVRUrC5mTrnmN3GSt1nefrvsS3bwXQehTnltn2tGtdoXvbqCmd9JBSoPaswvFX0xnmYjKuNgxhUAAGDdhXShYXDBMtE9zmOpdxrOatvtKs17ZsvTzfNtapUSs7XLDa1Z+izybbrXtZpdgU06ftGl46voAakMadh0ZsGy3NzLD2WvschrK9WYlJitXW5oTdNvmiW+aRWfkD26ml2Bd8rqG0+sODA+ZlwBAFgHzLhiIzHjiu1qLWZcsTGYcQUAAACwKX3/ftp9medY3/yJrG/+RPrH05IUnylNUvanP6xBZcg2gisAAAAM4bPWn2a+4O0P9Nnv/jx//e/allyy+5vfZrssGFm+9Okff1hVFwFTqeqi41kqCGvlzdmlSwAAYO3x/12shadvf5D5grc/0GetmS/5VdNfslcQAGQZz7gCALAOeMYVG4lnXLGVDez+xar7+Dj2PAuVYC2xVBgAAADAplX99Mu059icaev4DxtdAAAAAAAAmRBcAQAAAACGRnAFAABYDr9H9QPR7F0HpBIZVX1Dm6wNHj1aUQdRdbe0ydrQpgv+LNcG4wp1ymsqVY+pWVMr6mBSgcpS9ZhKNezNcm2rRHAFAABYjvIq3as2pTkZ0oWWUYVfed1aSqoBG+hVn8NrfE77DinQVaX9kZAuJEKotcWj7kiqi6Pq7ribdI1Jxy+65HbmrfJ1YH0NabiyU7EVn5d07KbqoldVGBrScCKE9lQ2KxBKdfGkAq4jSdfslNU3rqrLZat8HdlHcAUAAFiOtDOpUXW3DKr3xWM5WkYVnr3O71F9y9347FmLR90Ds+FiNrQkB47EsaQ2KWfLks/7Zmfm2lQ/MLmwhjV8G4xjYWB7FJEeddydC3fhgbsZZhyXto2/t57EezrbNum6dDOgkfSfw//we5LORbVkrKQaA8nyd+jEaZcCXS6590pu/9LxFx5wq1UVcne55D4std7aLp//Si0MbFMhacp1ZC7cxdqPZJhxXNpW3mZ5K5sTs52zbZOuSzcDOjdDWipv+78pUHlGL/yfy1PZqW+8zUnnJuP9JZ2PLagjRZgtfkfvdYyrLjquqlppyj255Pax9rMaU6OqouOqOieNnXxFKN5A7CoMAACQFSYdv3hIEy1Rnbhok9nvmTvzRBa5u2zSwF05XlYo0FWsRx139fuITT/3u+UucCjQZVJ4wKNOv3QpqY05zd2S+2xyHlNgdna3OqmGNX/NBuAfmXv/FBlVfX9I92x5uumP6ni19PuRPH148fXb7rdJT5Qnd5dL5khIF26NKqxpuVUhd1dx2vc07A9KaT+HqAq6qmRWVN0tI3pUXbVgrGjg7tIxkJ/cu0nmfEmKKvxyWrtsS2fywy+lpppEfeV71fRgRGFpe4yBlfDe1tTu66qL7oyHxxtDstdY5HVPytooTfVZVOB7/baFNdKMSlQVHVdOaEjDJzsV04Sm1Kiq6AHlpOkq5h6ULj9UXePO+IHGm/q28rne851Qjib1d9GrytGkApW3NdV4VVbf/Hm1H5mrI9berK+9UkVxcu87lVMsSZOKPQ0qt2bn0vs/lco+SdRnP6Wya7cVk9LWu5GYcQUAAFhje/bOBx6nLf6bpblAmkjMCj7pvSNrQ5scvUE9i0SXtMnUp7m6QrtG7sRnB7fhM7XhyLR25SeCXL5Ju15GFS4v0a6RkMKRkNwFJdq/nLZKeu/zd6hE0/qfkWntsmX+PDJ+DpGQmhraZG24o9YXqdunGgOL+7jQ4tZkzVFd2vxfybvhYsGgci2JIFf8rnIDzxWz25Xb51Ms5NOU1a7C5bSVlFtbGQ98xe/oLU3o/waDyq1JH1olKaexUbl9B+OztO2LZkRDPn1lKlWP6aDG0qwamPn0oHpMpfJ82qeZ4NIZVYWGNFx5VrFP7qvCnqGQTYDgCgAAsMH2OI8p0OVS4Mqx5T8XG9mhExddClyxSCOhbbc81JyfNx/0IlE9KzDJrGJ9WDCtzv5pOWqKl9lWejL7PkZCcitPb0t6NvqK9zbD5/CoPyjHFZcCXYfkLErdPOMYiIyq/lZUH54+quP5qdubC6TW/vh9w/4RtSqP2dYMciyW+aAXeq4Z67vK0QEVWCf09Y0JFX5yYJltpZk+X3yZbcinKZXoP0qa6R/KvPQ29I7e842rbvSQNNs+YerGoApHx1UXvamiNH+syL38UHXRcdWNPpS9cdGMaqhT3pPPVdBxX9Y0/xnk7JbGbsRrjHlva0wlhpxtlQiuAAAAWbRDJVre86XmaoccL93x5xvPu9NsvJNeODISn807H5QOF8u8gho2tfK98+/frWmdSQTV/Tap92Wefp4m6GVqu0fBufd012Gb/qHaIYeG5cjwjGumz8Fsy5P7fJusLROSgvqNX0oeK3rVGIhM68mLxzp9fv452fDA3QU/zdUONSVqdDyQmk5vk6XiK2U/pcKnZ+PPh56ckDURVAtrpBeBEhWm/3tH2ra5GozPkNoGlXvuhN5uvK5CtcuT4RnXWOj2XBudq1SO3tFbij/DmlNj0ZStVD2VXkl9eumVlHRejdfn67CdXbr5UmhCM/7P9dg2/5xsrP3Igp85jddVlqjRc00q6zhh2OD6xsQ3Ez9udBEAAGx1tVW1kqQ+T98GV4LtqLaqVs5fb/71pb0f++U86pz790e//Cj7N/F7VB/Zu0E7QieJjKr+/GM9kUW3uqrSLndOL6rulvjSZKfLtW2XF3//vlOBv36nyN9+UMWX9yRJFRUV2b+Rt1ne4Kmls57rLdQpr+1zzahW+6JX0y53Tm9Sgcr40uSiL8YNtbyYzZkAAACWLaQLDYPqTTqyx7mCZb6Guc9Wl833cZ0+k3yb7nXZVtFB/OtwjmetoO1oSMOmM0p+LDn3coolueveVwbFJ2SPnlhFB/Gvw7FmraDsYcYVAIB1wIwrNhIzrtiqvn/f+eqLXqHsT3/IQiVYa8y4AgAAwBA+a/1p5gve/kCf/e7P89f/rm3JJbu/+W22y4KR5Uuf/vGHVXURMJWqLjqepYKwVt6c/QswAABYe/x/F2vh6dsfZL7g7Q/0WWvmS37V9JfsFQQAWcZSYQAA1gFLhbGRWCqMrWxg9y9W3cfHsedZqARriaXCAAAAADat6qdfpj23brsKY83xPa4AAAAAAEMjuAIAAAAADI3gCgAAAACr4W2Wt31yjdpMasp1RD2mZk2lbDOkYdeQFOqU11Qav255lczdJ1BZqh5TqYa9K+pgTRFcAQDA5uf3qH4guv59vHabqB513JW1waNHKduEdKEjJEVGVd/QFr9ueZXM3ae7pU3WhjZd8K+oAzAOkDVDGq7sVGzV/fy7XgYOqSp6VYX2q7I37kx/6bGbqoteVWFSCO0xHVEglOriSQVcR+LXVDYrENopq29cVZfLVl3xWiC4AgCAza+8SveqTWvQcUgXWkYVXnU/f9ZvXlrk7qrS/lfVuu+QAl1V2p8UPqwNd9UdSXVxVN0dd+PXtHjUHTHp+EWX3M68VVeMZIyDrWdhaJsKSVOu+YAXaz+SftbR2yxvZXNidnPxdZMKVDZrSpMKVJ7RC//n8mQKr323F/aTPKPqbZa3/d/m+1kw4zpfv9fVrpnF/YZ8mrLeVF10XHVfWDR1Y2jJrWPtZzWmRlVFx1V1Tho7mY2QvXYIrgAAYPNLzF496pj/xT48cDf9bJPfo/oWT2JWa/F1UXW3ePRIUXW3DKr3xWM5MoWWkZGF/STPpPk9qh+YnO9nwUzbfNio7xjWs8X9RkJyFxxSoMulgCtP7v6lUybhAbdaVSF3l0vuw1LrrWyEq81mYWh7FBHjYFuOg2Xy3tbU7uvxYNdRosCNIRXWWDTljofCqT6LCuzpm8+oRD+LjqtutFG6Nh/4plxn9e25qyrUTll9N1VU/s+q8p1QzjL7mVc430/0qgoTR2PtZ+fq/1mNZWlwLa6UVe3xYP5PQRV+cmBJz7GnUtknB5QjKcd+SmWaILgCAACsh/22PLn98TDw+5E8fZjhq0ufKE+tXS4FrlRID+Z/0X/U4dbE4Srtl0nHLx6Ss2if3BdtMi+zn3m58/10VWl/4mh4wC13gUOBLpdabXl6srhZfrHOaDgeyNqm5agpXtJz+KXUVFMssyRz+V41aXr7BRb/yNz7GDidp5v9IcbBdhwHyxQLBpVrSSy5LX5XuYHnitntyu3zKRbyacpqnwuJqeTWVsbDaPE7eisR+GY+PajHgUN6L0PgfZ1+Xrttov4cu11Fi096byswG8xHD2nK4LOpr4PgCgAAto7yEu0aCSkcCcldUDIXDlLZszf+i77yd6gk8Yv+k947Ov3SohMZgs7r9PO6duXHl4qay0vkXHzSP6Kbs4HsikVuZtFSCkem595H5Zu062VUYcYBXiHHYtFMMLEkN/RcM9Z3laMDKrBO6OsbEylnKJPN9PniQTDk05RKlCMp9/JD7bMO6qtlbNKUqh89/XdJ0lR/X+a2ifpjXq9eLDoXCwZfee+c3dLYjSHFJMW8tzU2e3+DIrgCAIAtpFgfFkyrsz/1zFSyJyOheACIhORWnsyS9jiP6VZBUE3L2JwnVT96+WdJ0qPRzL88PovE7xP2T6h30blwZPqV9zYXSK398fuH/SNqnb3/NmLOz5t7HxWJ6lmBSWbGwbYbB8tmP6XCp2fjS2lPTsiaCKqFNdKLQIkKMw8b5WpQX5lK1WMbVO65+aXAhW3XVdh3NvHc6zt6S5mfcV3Sj/2UCgNn1GMqVSCQfpOknMbrKuw7qB5Tqb7q15IZ1+TzPbZBFXackNqPyNs+qVjiZ07jdZWpXR5TqTzXpLKO9EuajeDNjS4AAAAgm/bbpNMP8uTOz3zdHgXV1PBYT5Qnp+uozPLE2590aLLFrQv5R3WpfIdKNChHi9IuE13ST3lUjgd3ZG2Q9hTlSQWp72+udsjRckfWXmnPPsuSmbbk81Kemq4clQbuql4OtcqtJjl0r9qhpg63HA2DUpFFTafjNW6rGbnyvXJ0uGVtmJaKLLp12iaJcbDtxsGy7ZS17b6sbYsO26+q7nWW+tZel92XvLvvVdkT7ay++/P38I3Lmq4P+3ybBXUtabNTFb4DS9osuS70XLpzRj13arUvenXp+cb7ijed/alF78GkApUHNeaXir5IV/TGeWPim4kfN7oIAAC2utqqWklSnyfz0i+sE79H9ZG9a7QT8SpERlV//rGeyKJbSc9Bvr6oulvuqPWF5HS5dCmx1LW2qlbOXy9j3atB9X7sl/PofLT76Jcfra7DbTYOtqPv33cq8NfvFPnbD6r48p4kqaKi4jVbD2nYdGbBMtzcyw9lt9yWN3gq89fSvE4/r90eEjOuAABgSwvpQsPgguWXe5zHdO8Vs3Cv3U+2A0++Tfe6bKvoIP41KMezVtBWwTjAShxQRXRcS2NuqpnSlfSD5WDGFQCAdcCMKzYSM67Yqr5/f8l2VstW9qc/ZKESrDWCKwAA62A2uAJr4enbH6yq/a+a/pKlSlbns9afrrqP3d/8NguVYDP59I8/rLqPuuh4FirBWmJXYQAAAACAoTHjCgAAsMWxVBhb2cDuX6y6j49jz7NQCdYSmzMBAAAA2LSqn36Z9tzqdhWGkbBUGAAAAABgaARXAAAAAIChEVwBAAAAYDW8zfK2T67hDYY07Bp69bFQp7ymUvWYmjWVtXtPKlBZqh5TqYa9Wet02QiuAADA+Pwe1Q9EN7iPkC50hFbWNDKq+oY2WRs8erSKCl4tqu6WNlkb2nTBv6Y32rqyMdYySjWOUhxbkzHD+FhfQxqu7FRsvW977KbqoldVKCnm7dRwZWlSqJ4PoemD6KQCriPxayqbFQjtlNU3rqrLZev3GlIguAIAAOMrr9K9atMadBzShZZRhdejn32HFOiq0n5JYf+oLrS0zQekuZDSJmtLIqikOrZEVN0dd+eu6Y6YdPyiS25n3qpfEZJla5wsU6YxkxRC0wdRxkd6C8PZVEiach1RIPH3g1j7kfSzi95meSubEzObi6+bVKCyWVOaVKDyjF74P5cnXXj1NstbeUReU6n+7epsf4tCZqJGr6tdM+mOJfUz/N+TbzCkr/ulgtrk7xH/d31rvam66LjqouOqsC8tK9Z+VmNqVFV0XFXnpLGTGxC+U2BXYQAAYHx+j+oje3XmpVuTNUd1PF8KD9xVZ/5RXUr1LS9+j+ofSHoR1BPlyek6qktzJ6PqbhnRzot7NdkyqN4XUm+L5L5ok3lJR1F1d7jV+nhae/blSapQ2O9RU1tQTyTtcR7TvWqpO6mffzk8rbYF5xcH7pA6R6UP91r0bPZQfrFar9hknn1dfml/eapjC3sKD7jVqgq5u4olv0eOW6P6+UXbSt/lTWr+M1KRRbdOV0n9d9d3nPg9qn8wLb2Y1n86ZNH/GVz8+S8dRymPJfWz69i+pBukGDP6syYKDilwsTjtO8P4yMB7W1O7r6suujO+vPbGkOw1Fnndk7I2SlN9FhX40jefUYmqouPKCQ1p+GSnYufix6dcZ/XtufuySpLvpr6tfK73fCeUk7afQ6qK3leOJhVrvqocTSpQeVtTjVeV0352rsaYt1me/nioXHxsQT+hTnn/12zvB1TRdkDyNisQTLrpnTPquSNJZSobvS/roiEUeyqVfXIgXrP9lMqu3VZMSvsa1gszrgAAYNPYb8uT2x+VFNXvR/L0YYavJn2iPLV2uRS4UiE9mJ8te9Th1sThKu2XSccvHpKzaF+a0Br/xd9d4FCgy6VWW56eSDKX743323VMjpERPVrUzz8sOb9YsS6dtGl/fvIxk+SPz4w5Riw6UZ7u2KL6XkpNNcUyJ+pq0vT6zwpuNP/I3GcUOJ2nm/2hdR8n8X4sau1y6b/WLf38U42jVMeS+7lkTe491ZiR9HgwMeN6V92RpTUxPtKLBYPKteyM/6P4XeUGnitmtyu3z6dYyKcpq12FGdrn1lbGg1zxO3pLE4pJmvn0oB4HDum9FLOYr+wn5NNXplL1mA5qLGn2fLbGHLtdRZmOzfbzSu/ovdGH8RnXLyyaurH4uVnjIrgCAIDNo7xEu0ZCCkdCcheUaH+GS/fsjf/CrvwdKkn8wv6k945Ov0wdAtPZlR+fMTWXl8gpSZGQmhraZG24o9YXKRq86nwa5uqjCnS55D48rabEctBUx7BQODI99xkp36RdL6MKb8A4mesnzee/ZBylOTbXzyvt0Ikrx+KB3ZUnd/8Kn7/epnIsFs0EE0tyQ881Y31XOTqgAuuEvr4xocJPDmRsP9Pniy+fDfk0pRLlSMq9/FD7rIP6agWbNE3dGFTh6LjqojdVlDTuZmuMeb16keHY8sSDb7rlvzm7pbEbQ4pJinlvayzx+jYawRUAAGwixfqwYFqd/dNy1KRfIilJT0ZC8dmlSEhu5cms+NLNWwXBZYXAZ5H4tWH/hHolPeoPynHFpUDXITmLll7/qvMpRaJ6tHjGLNWxRcwFUmt//HWG/SNqTbzO7cScnzf3GSkS1bMCk8wbME5mpfv8F4+jdMeWJx58082iMj4ysJ9S4dOz8WdcT07ImgiqhTXSi0CJCjMPG+VqMD5DahtU7rn5pcCFbddV2Hc28dzrO3pLGZ5xTVJYY9GUrVQ9lV5JfXrplXIar6uw76B6TKX6ql8qUupjyxLy6euT8WdpPdcka9sBxdqPyNs+Ofczp/G6ytQuT+Kaso70S53XE8+4AgCATWW/TTr9IE/uxcsmF9mjoJoaHs89u2iWJ97+pEOTLW5dyD+qS+U7VKJBOdI8u2iudsjRckfWXmnPPoucii9Xvnm+Ta1FFjkV1G/8Vdqf3M/hFOdfUasiId1se6zTUvw5zYsmyT+65Fh44K6a5FCr3GqSQ/eqHWrqcMvRMCgVWdR0Ov4attVy0PK9cnS4ZW2YfcY1/gzneo6TZKnGx6UU4yjV2FqWSEidtx6r94US46OY8bEsO2Vtuy9r26LD9quqe52lvrXXZfftTDpwVfZEO6vv/vw9fOOyLm6bdK/ZNrJflT16da6vTO2XHjsw34+UeIa1VvsSOwsvuE/xCVX4TqgiuXnjfcVPz/7UovdmUoHK+BLmoi/SvZi198bENxM/btztAQAA1kBiM6e12Yl4BSKjqj//WE9k0a3ELrFrI6rulvgSVafLNbchUW1VrZy/Xsa6V4Pq/dgv59H5iPfRLz9aXYdGGyfJ1mTMpB4fW9n37zsV+Ot3ivztB1V8eU+SVFFR8YpWs4Y0bDqzYDlu7uWHsltuyxs8JXvjzrQtX6uf124PiRlXAACwqYV0oWFwwTLLPc5juveqGc7X7SdbgSbfpntd67Gba/zrTo6vw502l00yTpKtyZhhfCzPAVVEx7U05l5dOMO54n6wHMy4AgAAbHHMuGKr+v79ZS+yXqLsT3/IQiVYa2/8/d//PcEVAABgE3v69gerav+rpr9kqZLV+az1p6vuY/c3v81CJdhMPv3jD6vuoy46noVKsJbYVRgAAAAAYGgsFQYAANjiWCqMrWxg9y9W3cfHsedZqARric2ZAAAAAGxa1U+/THtudbsKw0hYKgwAAAAAMDSCKwAAAADA0AiuAAAAgFFERlXf0CZrg0ePVtRBVN0tbbI2tOmCP8u1wbhCnfKaStVjatbUijqYVKCyVD2mUg17s1xblhBcAQAAgKwJ6ULLqMIrPi9p3yEFuqq0X1LYP6oLLW2qH4imuTiq7o67sja0ydriUXfEpOMXXXI781bxGrD+hjRc2anYis9LOnZTddGrKpQU83ZquLJU3vbJNBdPKuA6oh5TqXoqmxUI7ZTVN66qy2WreA1ri82ZAAAAsIlF1d3hVuvjaanIolunq6T+u5qsOarj+VJ44K4684/qUqpNlf0e1T+Q9CKoJ8qT03VUl+RR/YNp6cW0drmOqWQ00bcsupUIkwtERlV//rGeSNrjrJFjZFC9L6TeFulfDk+rrS2YOHdM96ql7pb58+6Lxfr9XO375L5ok3lB5yF1jkof7rXoWZpXHx5wq1UVcncVS36PHLdG9fOLtlW+p9vBpAKusxq7MyaV12pfx1XpxhHFPrkva7EUaz+iry33VWFP0dTbLO81Sf4+zahMRV/cV4Wa5b0WlPxjyv3iod7qT/StWu1LhMkFQp3y2j7XjKTcy/+iwr4zeuGXXlRK/+XchP73P/Ulzj2UvVEKVM6fr/JVamqu9n9Wle+EchZ0PqSv+6WC2lrNpHn1sfazGlOjqqIHJG+zPCc7Veg7scr3dG0RXAEAALB5+UfkLnAo0GWKh8j+kO7Z8nTTH9Xxaun3I3n68GL65k+UJ3eXS+ZISBdujSp8WHoii9xdNpn9HtUnQqE5TfuwPyg5jylQbYofqD6kiZaoTly0yayoCrqqZFZU3S0jelRdpeMX589r4O5c7eEBjzr90qX85N6LdemkJL9HNyNp7v9SaqpJ1Fe+V00PRhSW0taLBO9tTe2+rrrozniIvDEke41FXvekrI3SVJ9FBb70zWdUoqrouHJCQxo+2anYOWlGh1QVva8cb7O8iVCYk6Z9zD0oXX6ousad8QONN/Vt5XO95zuhHE3q76JXlaNJBSpva6rxqqy++fNqPzJXe6y9WV97pYri5N4PqKItHkgDwTT3fyqVfZKoz35KZdduKyalrdcIWCoMAACATSscmdau/ERozDdp18uowuUl2jUSUjgSkrugZOksaZI9exOhL3+HSjStcNKxcGRau2zpQ6skmasrtGvkjqwNd3Vh8XLeSEhNDW2yNtxR64vU7Z/03pG1oU2O3qCeRdItB0a2xYJB5VoSobH4XeUGnitmtyu3z6dYyKcpq33pLGmS3NrKeMgrfkdvaUKxpGOxYFC5NelDqyTlNDYqt++gekxHNLx4OW/Ip69MpeoxHdRYmueUZz49qB5TqTyf9mkmmG458NZCcAUAAMCmZc7Pmw98kaieFZhkVrE+LJhWZ/+0HDXFGds/GQnFnzeNhORW3pKQ+mw0lPl51MgOnbjoUuCKRRpZeO2j/qAcV1wKdB2Ssyh18z3OYwp0uRS4ckz3Zmdtl8FcILX2x+8b9o+oNcVrwFI5Fst84As914z1XeXogAqsE/r6xoQKPzmQsf1Mny/+vGnIpymVLAmpM/1DmZ9HDb2j93zjqhs9JM32lTB1Y1CFo+Oqi95UUaol7oovIa6Ljqtu9KHss7O2y5CzWxq7Ea8x5r2tsRSvwWgIrgAAANi8yvfK8dId35zo1rTOJILqfpvU+zJPP8/P3HyPgvFZ0fNB7Tq88BlTc7VDDg3LkWGX33BkZK69DhfLrB0q0WM5WkZltuXJfb5N1pYJSUH9xi8p6byqHfO1n3erO81y4AX3G7ir+oHog59itAAABp5JREFU3E9ztUNNiRodD6Sm04ufk0VK9lMqfHo2vjnRyQlZE0G1sEZ6EShRYea/dyhXg/FZUdugcs8tfMY0p/G6CtUuT4ZdfmOh23Ptda5SOXpHb+lzeSo7lVNj0ZStVD2VXkl9eumVlHRejdfna7edVSD06pcbaz8ib/vk3M+cxusqS9TouSaVdSx+TtZ43pj4ZuLHjS4CAAAAa6e2qlbOX6eZutlEej/2y3nUOffvj3750eo69HtUH9m7opnONTO32VOazaBeKarulvjSZKfLlXpTqm3k+/edCvz1O0X+9oMqvrwnSaqoqFhdp95meYOnVjTTuWbmNntKsxnUK00qUBlfmlz0xXjqTak2GJszAQAAYIsL6ULDoHqTjuxxHtO9V8zGvlYf2Q69+Tbd61rNrsDxr8M5nrWCtrMhDZvOKPnx5NzLD2W3ZKGPbIfe4hOyR1ezK3D863CsWSso+wiuAAAA2OKKdanLpUtLjlfp3qr7wNZ1QBXRcS2dn70q+2vPSKbrA8tFcAUAAACwKX3/vvOV11jf/Imsb/5E+sfTkqSxRefL/vSHNagM2cYzrgAAAFvcZnnG9bPWn666j93f/DYLlWAz+fSPP6y6j7roeBYqwVpiV2EAAAAAgKGxVBgAAACG8Kumv2Q8/3q7CruyXBWMbmD3Lza6BKwDgisAAACATav66Zdpz63J1+FgQ7BUGAAAAABgaARXAAAAAIChEVwBAAAAAIZGcAUAAAAAGBrBFQAAAABgaOwqDAAAsA30fuzf6BIAYMUIrgAAAFtcn6dvwb//9b/96wZVAgArw1JhAAAAAIChEVwBAAAAAIbGUmEAAIBt5qNffrTRJQDAsjDjCgAAAGBLCvz1O1nf/MlGl4EsILgCAAAA2HK+f9+50SUgi97kAwUAAACwlQT++p0kyfrmT+T7fzMbXA2y4c3ZDxUAAAAAtoLZwBr52w+SpIov721wRVitN2c/TAAAAADYCgisW88bX3311Y8bXQQAAAAArLWKioqNLgErxOZMAAAAALY8Quvm9saPP/7IjCsAAAAAwLCYcQUAAAAAGBrBFQAAAABgaARXAAAAAIChEVwBAAAAAIZGcAUAAAAAGBrBFQAAAABgaARXAAAAAIChEVwBAAAAAIZGcAUAAAAAGBrBFQAAAABgaARXAAAAAIChEVwBAAAAAIZGcAUAAAAAGBrBFQAAAABgaARXAAAAAIChEVwBAAAAAIZGcAUAAAAAGBrBFQAAAABgaARXAAAAAIChEVwBAAAAAIZGcAUAAAAAGBrBFQAAAABgaARXAAAAAIChEVwBAAAAAIZGcAUAAAAAGBrBFQAAAABgaARXAAAAAIChEVwBAAAAAIZGcAUAAAAAGBrBFQAAAABgaARXAAAAAIChEVwBAAAAAIZGcAUAAAAAGBrBFQAAAABgaARXAAAAAIChEVwBAAAAAIZGcAUAAAAAGBrBFQAAAABgaARXAAAAAIChEVwBAAAAAIZGcAUAAAAAGBrBFQAAAABgaARXAAAAAIChEVwBAAAAAIZGcAUAAAAAGBrBFQAAAABgaARXAAAAAIChEVwBAAAAAIZGcAUAAAAAGBrBFQAAAABgaARXAAAAAIChEVwBAAAAAIZGcAUAAAAAGBrBFQAAAABgaARXAAAAAIChEVwBAAAAAIZGcAUAAAAAGBrBFQAAAABgaARXAAAAAIChEVwBAAAAAIZGcAUAAAAAGBrBFQAAAABgaARXAAAAAIChEVwBAAAAAIZGcAUAAAAAGBrBFQAAAABgaARXAAAAAIChEVwBAAAAAIZGcAUAAAAAGBrBFQAAAABgaARXAAAAAIChEVwBAAAAAIZGcAUAAAAAGBrBFQAAAABgaARXAAAAAIChEVwBAAAAAIZGcAUAAAAAGBrBFQAAAABgaARXAAAAAIChEVwBAAAAAIZGcAUAAAAAGBrBFQAAAABgaARXAAAAAIChEVwBAAAAAIZGcAUAAAAAGBrBFQAAAABgaARXAAAAAIChEVwBAAAAAIZGcAUAAAAAGBrBFQAAAABgaARXAAAAAIChEVwBAAAAAIZGcAUAAAAAGBrBFQAAAABgaARXAAAAAIChEVwBAAAAAIZGcAUAAAAAGBrBFQAAAABgaARXAAAAAIChEVwBAAAAAIZGcAUAAAAAGBrBFQAAAABgaARXAAAAAIChEVwBAAAAAIZGcAUAAAAAGBrBFQAAAABgaARXAAAAAIChEVwBAAAAAIZGcAUAAAAAGNr/B5/oYUlnoE+pAAAAAElFTkSuQmCC;movable=0;resizable=0;rotatable=0;deletable=0;editable=0;locked=1;connectable=0;" parent="1" vertex="1">
          <mxGeometry x="1952.07" y="580" width="1366.73" height="1300" as="geometry" />
        </mxCell>
        <mxCell id="BK12QYTPV-eWoDnU58BK-3" value="&lt;font style=&quot;font-size: 24px;&quot;&gt;OSC&lt;/font&gt;" style="rounded=0;whiteSpace=wrap;html=1;fillColor=#66B2FF;" parent="1" vertex="1">
          <mxGeometry x="1830" y="238" width="120" height="170" as="geometry" />
        </mxCell>
        <mxCell id="BK12QYTPV-eWoDnU58BK-5" value="&lt;font style=&quot;font-size: 24px;&quot;&gt;net_input_queue&lt;/font&gt;" style="rounded=0;whiteSpace=wrap;html=1;" parent="1" vertex="1">
          <mxGeometry x="1150" y="238" width="200" height="170" as="geometry" />
        </mxCell>
        <mxCell id="BK12QYTPV-eWoDnU58BK-6" style="edgeStyle=orthogonalEdgeStyle;rounded=0;orthogonalLoop=1;jettySize=auto;html=1;entryX=0.5;entryY=0;entryDx=0;entryDy=0;" parent="1" source="BK12QYTPV-eWoDnU58BK-7" target="BK12QYTPV-eWoDnU58BK-18" edge="1">
          <mxGeometry relative="1" as="geometry" />
        </mxCell>
        <mxCell id="BK12QYTPV-eWoDnU58BK-7" value="配置模块" style="rounded=1;whiteSpace=wrap;html=1;" parent="1" vertex="1">
          <mxGeometry x="1530" y="28" width="120" height="60" as="geometry" />
        </mxCell>
        <mxCell id="BK12QYTPV-eWoDnU58BK-9" value="&lt;font style=&quot;font-size: 24px;&quot;&gt;idleslope&lt;/font&gt;" style="text;html=1;align=center;verticalAlign=middle;resizable=0;points=[];autosize=1;strokeColor=none;fillColor=none;" parent="1" vertex="1">
          <mxGeometry x="1590" y="151" width="120" height="40" as="geometry" />
        </mxCell>
        <mxCell id="BK12QYTPV-eWoDnU58BK-10" value="" style="endArrow=classic;html=1;rounded=0;entryX=1;entryY=0.25;entryDx=0;entryDy=0;exitX=0;exitY=0.25;exitDx=0;exitDy=0;" parent="1" source="BK12QYTPV-eWoDnU58BK-3" target="BK12QYTPV-eWoDnU58BK-18" edge="1">
          <mxGeometry width="50" height="50" relative="1" as="geometry">
            <mxPoint x="1750" y="388" as="sourcePoint" />
            <mxPoint x="1700" y="438" as="targetPoint" />
          </mxGeometry>
        </mxCell>
        <mxCell id="BK12QYTPV-eWoDnU58BK-11" value="" style="endArrow=classic;html=1;rounded=0;entryX=0;entryY=0.25;entryDx=0;entryDy=0;exitX=1;exitY=0.25;exitDx=0;exitDy=0;" parent="1" edge="1">
          <mxGeometry width="50" height="50" relative="1" as="geometry">
            <mxPoint x="1650" y="358" as="sourcePoint" />
            <mxPoint x="1830" y="358" as="targetPoint" />
          </mxGeometry>
        </mxCell>
        <mxCell id="BK12QYTPV-eWoDnU58BK-16" value="&lt;font style=&quot;font-size: 24px;&quot;&gt;Allow_transmit&lt;/font&gt;" style="text;html=1;align=center;verticalAlign=middle;resizable=0;points=[];autosize=1;strokeColor=none;fillColor=none;" parent="1" vertex="1">
          <mxGeometry x="1640" y="321" width="180" height="40" as="geometry" />
        </mxCell>
        <mxCell id="BK12QYTPV-eWoDnU58BK-17" value="&lt;font style=&quot;font-size: 24px;&quot;&gt;iv_transmit&lt;/font&gt;" style="text;html=1;align=center;verticalAlign=middle;resizable=0;points=[];autosize=1;strokeColor=none;fillColor=none;" parent="1" vertex="1">
          <mxGeometry x="1670" y="241" width="140" height="40" as="geometry" />
        </mxCell>
        <mxCell id="BK12QYTPV-eWoDnU58BK-18" value="&lt;font style=&quot;font-size: 24px;&quot;&gt;CBS&lt;/font&gt;" style="rounded=0;whiteSpace=wrap;html=1;fillColor=#66B2FF;" parent="1" vertex="1">
          <mxGeometry x="1530" y="238" width="120" height="170" as="geometry" />
        </mxCell>
        <mxCell id="BK12QYTPV-eWoDnU58BK-19" value="" style="endArrow=classic;html=1;rounded=0;entryX=0;entryY=0.471;entryDx=0;entryDy=0;entryPerimeter=0;" parent="1" target="BK12QYTPV-eWoDnU58BK-18" edge="1">
          <mxGeometry width="50" height="50" relative="1" as="geometry">
            <mxPoint x="1360" y="318" as="sourcePoint" />
            <mxPoint x="1410" y="271" as="targetPoint" />
          </mxGeometry>
        </mxCell>
        <mxCell id="BK12QYTPV-eWoDnU58BK-20" value="&lt;font style=&quot;font-size: 24px;&quot;&gt;ov_queue_empty&lt;/font&gt;" style="text;html=1;align=center;verticalAlign=middle;resizable=0;points=[];autosize=1;strokeColor=none;fillColor=none;" parent="1" vertex="1">
          <mxGeometry x="1335" y="283" width="210" height="40" as="geometry" />
        </mxCell>
        <mxCell id="BK12QYTPV-eWoDnU58BK-21" value="&lt;font style=&quot;font-size: 24px;&quot;&gt;queue_gata_contrl&lt;/font&gt;&lt;br&gt;" style="rounded=0;whiteSpace=wrap;html=1;" parent="1" vertex="1">
          <mxGeometry x="1485" y="478" width="210" height="80" as="geometry" />
        </mxCell>
        <mxCell id="BK12QYTPV-eWoDnU58BK-22" value="" style="endArrow=classic;html=1;rounded=0;entryX=0.5;entryY=1;entryDx=0;entryDy=0;" parent="1" target="BK12QYTPV-eWoDnU58BK-18" edge="1">
          <mxGeometry width="50" height="50" relative="1" as="geometry">
            <mxPoint x="1590" y="478" as="sourcePoint" />
            <mxPoint x="1640" y="428" as="targetPoint" />
          </mxGeometry>
        </mxCell>
        <mxCell id="BK12QYTPV-eWoDnU58BK-23" value="" style="endArrow=classic;html=1;rounded=0;" parent="1" edge="1">
          <mxGeometry width="50" height="50" relative="1" as="geometry">
            <mxPoint x="1590" y="448" as="sourcePoint" />
            <mxPoint x="1890" y="448" as="targetPoint" />
          </mxGeometry>
        </mxCell>
        <mxCell id="BK12QYTPV-eWoDnU58BK-24" value="" style="endArrow=classic;html=1;rounded=0;entryX=0.5;entryY=1;entryDx=0;entryDy=0;" parent="1" target="BK12QYTPV-eWoDnU58BK-3" edge="1">
          <mxGeometry width="50" height="50" relative="1" as="geometry">
            <mxPoint x="1890" y="448" as="sourcePoint" />
            <mxPoint x="1940" y="398" as="targetPoint" />
          </mxGeometry>
        </mxCell>
        <mxCell id="BK12QYTPV-eWoDnU58BK-25" value="&lt;font style=&quot;font-size: 24px;&quot;&gt;gata_ctrl_vector[]7:0]&lt;/font&gt;" style="text;html=1;align=center;verticalAlign=middle;resizable=0;points=[];autosize=1;strokeColor=none;fillColor=none;" parent="1" vertex="1">
          <mxGeometry x="1645" y="441" width="250" height="40" as="geometry" />
        </mxCell>
        <mxCell id="BK12QYTPV-eWoDnU58BK-26" value="" style="endArrow=classic;html=1;rounded=0;entryX=0.011;entryY=0.134;entryDx=0;entryDy=0;entryPerimeter=0;" parent="1" target="BK12QYTPV-eWoDnU58BK-18" edge="1">
          <mxGeometry width="50" height="50" relative="1" as="geometry">
            <mxPoint x="1415" y="261" as="sourcePoint" />
            <mxPoint x="1465" y="221" as="targetPoint" />
            <Array as="points" />
          </mxGeometry>
        </mxCell>
        <mxCell id="BK12QYTPV-eWoDnU58BK-27" value="&lt;font style=&quot;font-size: 24px;&quot;&gt;CLK，RST&lt;/font&gt;" style="text;html=1;align=center;verticalAlign=middle;resizable=0;points=[];autosize=1;strokeColor=none;fillColor=none;" parent="1" vertex="1">
          <mxGeometry x="1380" y="221" width="140" height="40" as="geometry" />
        </mxCell>
        <mxCell id="BK12QYTPV-eWoDnU58BK-28" value="ov_schdule_queue" style="text;html=1;align=center;verticalAlign=middle;resizable=0;points=[];autosize=1;strokeColor=none;fillColor=none;" parent="1" vertex="1">
          <mxGeometry x="1930" y="156" width="120" height="30" as="geometry" />
        </mxCell>
        <mxCell id="BK12QYTPV-eWoDnU58BK-29" value="&lt;font style=&quot;font-size: 24px;&quot;&gt;virtual_queue_manage&lt;/font&gt;" style="rounded=0;whiteSpace=wrap;html=1;" parent="1" vertex="1">
          <mxGeometry x="2200" y="241" width="250" height="162" as="geometry" />
        </mxCell>
        <mxCell id="BK12QYTPV-eWoDnU58BK-30" value="" style="endArrow=classic;html=1;rounded=0;entryX=0;entryY=0.5;entryDx=0;entryDy=0;exitX=1;exitY=0.5;exitDx=0;exitDy=0;" parent="1" source="BK12QYTPV-eWoDnU58BK-3" target="BK12QYTPV-eWoDnU58BK-29" edge="1">
          <mxGeometry width="50" height="50" relative="1" as="geometry">
            <mxPoint x="1960" y="321" as="sourcePoint" />
            <mxPoint x="2120" y="321" as="targetPoint" />
          </mxGeometry>
        </mxCell>
        <mxCell id="BK12QYTPV-eWoDnU58BK-31" value="&lt;font style=&quot;font-size: 24px;&quot;&gt;ov_schdule_queue&lt;/font&gt;" style="text;html=1;align=center;verticalAlign=middle;resizable=0;points=[];autosize=1;strokeColor=none;fillColor=none;" parent="1" vertex="1">
          <mxGeometry x="1960" y="273" width="230" height="40" as="geometry" />
        </mxCell>
        <mxCell id="BK12QYTPV-eWoDnU58BK-34" value="&lt;font style=&quot;font-size: 18px;&quot;&gt;表示被调度的队列ID&lt;/font&gt;" style="text;html=1;align=center;verticalAlign=middle;resizable=0;points=[];autosize=1;strokeColor=none;fillColor=none;" parent="1" vertex="1">
          <mxGeometry x="1955" y="323" width="190" height="40" as="geometry" />
        </mxCell>
        <mxCell id="BK12QYTPV-eWoDnU58BK-35" value="" style="shape=image;verticalLabelPosition=bottom;labelBackgroundColor=default;verticalAlign=top;aspect=fixed;imageAspect=0;image=data:image/png,iVBORw0KGgoAAAANSUhEUgAAAsMAAAAwCAYAAAD0FXfcAAAAAXNSR0IArs4c6QAAAARnQU1BAACxjwv8YQUAAAAJcEhZcwAADsMAAA7DAcdvqGQAAA/YSURBVHhe7Z3Lq1zF14Y731xEnYkjjQNREWJ04GWgoBGdClGcitepKEQdGtRhBpoIgjMVnCpGQUFFxAtEVHRgRAQdRcS/IF8/lf2erKyzavfu4/nl5GS/DxS7uy6rqlatWlVdu3v3ntNLFsYYY4wxxsyMPUv+b3htjDHGGGPM7PBm2BhjjDHGzBZvho0xxhhjzGzxZtgYY4wxxswWb4aNMcYYY8xs8WbYGGOMMcbMFm+GjTHGGGPMbPFm2BhjjDHGzBZvho0xxhhjzGzxZtgYY4wxxswWb4aNMcYYY8xs8WbY7Ep+++23xd69e/lP8cXff/89xJ7LF198sZGHwOuHHnpocezYsSHHGShPPHneeeedIdb0kD6nMjZWjNG68sZAPuN73333bcglPP/884sPPvhgyHWG7a7b7Bzff//9OeO9Kpg+r776atMROt0KWdcKl19+eZuXPX9tzE7izbDZlVx99dVtg7V///7FFVdcMcSe5amnnlrceeediyNHjixOnz7dwmWXXbZ49913F0888cSQ6wyU37dvX3t96623tqsZB11OZWys7rjjjuHV9nDttde28b377rvbmJ86dWpx9OjRxeHDh5stRLa7brNz/Pzzz+3KWMf5fuDAgY33pJnVfPLJJ+160003teu6nDhxYni1WJw8eXJD/6+99tri119/9YbYXJB4M2x2LTjWW265ZXh3FjbCr7/+elsI77///iF20TbCPf7999+2eLJxM6tZ90NDb6y2c1HkJOuff/5ZfP7554tnn322xbH5fvzxx9trNsgRL8i7D04XudOQ+eyzzxavvPLKxliTB1u4+eab23tQmhnn66+/Hl7VcMqLj+3BJpoPvhD9KXffPvroo8W33367ePHFF4fY/w42QZsquzBmMstPbMbsOt5///3TmO+JEyeGmLMQv65pk//o0aPDO7OdjI3VcgPT0pYfRIaYrXHq1KkmB3lT2a66zfnh0KFDbbwyGvuI8p48eXKIOQNxBw8eHN6ZdZGulx84h5jNoHPy5DERY2lbAVkHDhwY3hmzPksb8smw2Z38+OOP7Tp2K2/qyR/fHYXrr7++Xc32MjZWuiX7X7+eotvknPBPZbvqNv97mMvc7ang9H9Yzzb47rvv2jXf6SGffxewdd588812HfuK0aqT5e1EPj7f9TFmXbwZNpvAwXBLWz980A/PerC4xB8s5bz8cKn6AZV+tJbjM6SpPIFbdG+88caQ2ue9994bXo3z5ZdftuuYg2fDTL1qQ3XLH3TLjh9sCfpPHGn8OKUH/dSPV5R/TC/nkzi+vb7DumN1/Pjxdh1bzNA9tiLdVvVfeeWV7cpXYabqbErdjKPmAv2qbg/LvuN3IfnKhuybMmNtqubPVn+8tF1I1xHpgbQxGK9oAz2bVx1xrqgOQuTpp59uX3sApec8EY3tKhgX5OQ+xfZXxB9fEhhD+hnHDdnyGXEDTj7Jzz/qjJAmHRGwEXQV65Ac0gTpKhPtla8RSF7ML6INVnOMPrz88svttfIR8vj+8MMPw6vNaB7wFbYe1CPZtBc90I88RvQHu4DnnnvunDZVMGZRn2O6NzOknREbM8DtpmwW3BKrTOXtt99u8fH2d47jPYHba9dcc027NS15xJGP29SkZZQv38ZWGwkVMX3KbXPk92QBafnWqm4F0jd48sknmxz6E+smjq8JqC+ECuL379/fdCIkcyqSv05Y5/ai+qA+R7Y6VkqL/RayjVif9F59pSXqGF2uYqxufYUip2GnjIsgj+yb17Jv2kfc2C1jyhFfzZ8q//kg2zF9kR2DdFzNVyAtzxX1R+NYzRXiZP+kERfR1x5yfAW6X5WXeqiPoPyKo/3RliKy52gDkPNKFlfJB8ojG5BBfLRvUN3SuVDdpMtOkM9Y8Bo/Qxnqi7rFBomnvpi/QmVym4CypK3yqZLBmEXUL9pXoXHPdffkQe+rMxHpIsod8yNmfixtYYUVmdmBSVRmkR0zDkbOK5K/HxodGM5cC2t0TMRXi6vkZ4elRaFqJ+C0Yx4tSj3GZKm9VXnKaOGnPvVZ8iinOCAv8TjiiBa2mBfQHTKmonrXCbR7Kmpnbj9sdayIZ3wy6Jv4XE4L8qoFlZAX1Uyv7t5GCPKYxDrIX41ZJWvV/Mnx54tsx7L/KXbcmysaR8qRVs0V5r/KSX5EdjTFXlU+y4hQP7KoU+NNOYKgL9k+yBfbKnJ96EZ5kI8s9BPlqd5sp+QjPvcVm1cd2JnKSTfUgUyheOpEppD8CuIJ1RxXe2MdFZKh9kUdV35ekB71LySPuZGhj1lPEeqm/1ku8cj0ZtjA0haW1mBMAJOYYhZytNkR4aR75XHWWhQiPYeGnMp5qu68UGXk9FflVZ4MCwLx9KmCtNxuFlnJy4uG2hPjccqVToA25xOonWRsbInfyliRVvVRukI3EW0Wq8Ua0D91kYcwtiHu1U0/SKvarHZVEF+NJfG5jPSS7Uc6Hts0nA9kx/Rnih2PzZVeX7VBImhz3EP5qnmSGRu/CvWHctrAVqiPlU2pfRVsuNAjIcpX/3v67cnLIJe8vQ+iWe+SX0E88irGykXIU4WxuTg2r1W+lzZmE2pzHtdVfsTMi6UtLK3BmACLkpxrdqIR0gk4GZw5jo78LCjVJ3jSyZ8dohaYvCAof7VIqu4x5ypif3r5SatOJLSp6kFa1pE2M1W5yjFr4QbpUnFj+t8Jev3a6lhpQRorRx7SubJxZSzHFr+IZKDPzJS6qzTGhLSM5HHNSF5EcVPnT4VkrBumIDvOmwio7HhsrqjebM+Mp9JWMTUfKO/UU784B8cgX+UngPKVnQHxVRr9781x6QZ7H+uH5l5uP2NTxYP8YQXxvfp68jLkyXqizl5ftQaM1Vt9aJUd9si6YT5HvRojljYxYklmtsg5EapNDCidwEKIoxvbpMgJZXCAVXwvP6jeqZ/qVUd1agWkZUc8tpgAjrWSqU1BtWiioyxPdShIj9VGbCdhw6Y2ZrY6VvSztyipHIGNBHpB19XmrAflJCOzqu5eGvHViSNtW9WXiOIIU+bP+WZsc0tbY19XzRWl5bmi8eltMCPkq/ReofqmziHlH0M+sTdGpFUbtrGNHjocG3P5LUKv773NnT6cESLyWzkeNMfzwQSMlYv09KR2Vn5Am9aqXsmr1iHsZqw9qlMBe8MGkbWOHzEXP0v78NMkzGZ4HNHSEbc/oXj44YfP+SV0ZOnw8ESLb775ZvHhhx9u/NFBBXkqPv300+HVufBL4eUCMLzbzNKxTf6DjAcffLBd9bilCL8whvxYNT2qq4fSb7zxxnYVPFAe7rrrrnaNjD1yCD0SpMet/PtT/DX11FD9qrxCT9yo2OpY8WizsceaLTddTSf8YQd6eemll8p/G+yxXCyHV5tZVXeVRj95okH1S3ts69577x3ebQYdZNaZP+cb2XEFdhyfGLNqrog8V5YbnXat5krFmH4rtvoPahV//fVXu95www3tGpEPqer75Zdf2jX7F574gC3ddtttQ8xm+JMQ5gAwHtUTSeRXs73qcYaZr776ql3x7Zmxp+qo3Crk43K/pBvpI/LHH3+063XXXdeuET0RqErjDzzGYL5C9CP4EGx3HT9iZsLSSIzpgokQ4imLTgnGTjUiWzmlII4TqAif5jkBIa2qm/jqE79OrnqnC7keGDsJlbzqJKhXRqcUnE5EevkvNKT3fLoHxK87Vhr76jQIKpk9qjYB8cjJOp9Sd9Xm3mnpmDydesUTsXXnz05A+6q+yo4j2z1XMmMnhxnptmcTFeRfZWuMVdUG4mXnFT2bWXWqmaGO6gQdGVW7FJ/1oPjK9qijpzfmEOVW6Yn+EjKyg6o8caRliKdNVRnZRFVOaFxWtdmYpZ34ZNicpfc8ULjqqquGV2c/5f/+++/tGuF5kPG5odA7pcgnSpyW6KRy6cA2naQ+8sgji+Wi2l7r5IH88bmb1SnVxx9/3K733HNPu0Z0OgW0W6fgl1xySbtW6MHzzzzzTLtOQX8Y8NZbb7XrKjjVqE4gdwo94/XSSy9t13gyuJWx+vPPP9tV0N988sVJTubYsWPn6AV51Yk/6O+3H3vssXYVU+rOts3pX++0dOzU7IUXXmgnwPFkfN35c6GAnqo/vlg1V5abku5cGbujIHRyGEFP1R2r3h2bVcS/ba6QDf/000/tCnruLnOBOaC4+Gzfns3kePWl6hNw8lvdXRDVySncfvvtw6tzoT/YfLwzxBzX/IboV6OfFJSN84bX9Ks6dVVcdXdMz/mO9aFD5NHv+Bxw6aeyCYj602l5z48Ycw7DxtjMHJ3ecmLAKRaf5PnOGp+uOW3J6FN3DlVepeXToXhinNNpQ0zjtIE2QYxXXMzPayCNEw3aWp0Kg05oCDkPfaFs/L4f73vyYhvUF05saHt1EgNZBwq0S327EIjjzes4zuuOFegETyGfJvE+piugrwh6Jp78SkM28ZwIVTqcWnccQ96vOjWjnGxPdlWd5kHUZwxRrztFHE/pTzro2THtpk+aK8wP3hMqJK83LyPZvrL9CckkTD0Zpj/k17iNIVtTUNvjd3tjfySbkIn2HXVEPCHasvJWEC87jWS5QnUSkBvnB/mVlsvmvhMi6E/tZD5U+lS5ak5qDilofKN/jm3KNpHThdqU82U/YubN0i6WlmHMEpwLjic6pewsI+THQcqBsvHoLWySFzeVgkWLtGqRVVu4Vk47LgKkI4t2qD4CcZVjFjhd8lGuQou85NHOnk60sSWPnDBlq8UqEhdx8vP+QkObG9pY6XOdsRKMDenV2CODeMlFn1U+xge7jeOOzN4mVKyqm/TYp54NkVf1xjZQ/9iCu878Od9EO1Z/aKc2KD3iXNF49eaKZK+SKTQWyO/JVFsVaMMq0DsypxDHOtqX4mljRPZQyaff5CdP1AG6j3ZEWeqqfIL8RuVXiUdORvO40iNplKO+bO/kxV5JR6/ZtonPIY+t4qk7p/FeadFXKD7rCWgDOlSZyi6Ii3Y8ZpNmvixtY7FHL4wx/w1ub/Ojjt6PBc3FB3/p+sADD7TXF4srtR0bY+bEniX+zrAx28Thw4cXjz766PDOzIEjR46068GRJ1fsNmzHxpi54c2wMdtA7xFt5uLm+PHj7bpv37523e3Yjo0xc8SbYWO2gfgrc2N2K7ZjY8wc8XeGjdkG9u7du/H4oUOHDrWHu5uLH/64RFwMrtR2bIyZG3xn2JthY4wxxhgzS9gL+2sSxhhjjDFmtngzbIwxxhhjZos3w8YYY4wxZrZ4M2yMMcYYY2aLN8PGGGOMMWa2eDNsjDHGGGNmizfDxhhjjDFmtngzbIwxxhhjZos3w8YYY4wxZrZ4M2yMMcYYY2aLN8PGGGOMMWa2eDNsjDHGGGNmizfDxhhjjDHGGGOMMcYYMy8Wi/8H0JX0GlTmQMsAAAAASUVORK5CYII=;" parent="1" vertex="1">
          <mxGeometry x="870" y="103" width="707" height="48" as="geometry" />
        </mxCell>
        <mxCell id="BK12QYTPV-eWoDnU58BK-37" value="加入根据信用值算出被调度的队列ID" style="whiteSpace=wrap;html=1;" parent="1" vertex="1">
          <mxGeometry x="2010" y="460" width="300" height="60" as="geometry" />
        </mxCell>
      </root>
    </mxGraphModel>
  </diagram>
</mxfile>
